{"glyphs":{"0":{"ha":694,"x_min":50,"x_max":667,"o":"m 289 -14 q 114 72 177 -14 q 50 310 50 158 q 158 783 50 594 q 429 971 266 971 q 604 885 541 971 q 667 647 667 799 q 559 174 667 363 q 289 -14 452 -14 l 289 -14 m 302 26 q 486 218 413 26 q 560 701 559 410 q 525 876 560 820 q 414 931 490 931 q 231 739 304 931 q 157 256 158 546 q 193 81 157 137 q 302 26 228 26 l 302 26 z "},"1":{"ha":694,"x_min":75,"x_max":553,"o":"m 269 140 l 397 873 l 397 873 l 317 843 q 125 760 235 811 l 140 845 q 321 901 245 874 q 500 971 397 927 l 507 971 l 522 957 l 522 957 l 378 140 q 382 59 368 75 q 473 39 397 43 l 553 35 l 547 -4 q 313 0 412 0 q 75 -4 213 0 l 81 35 l 154 40 q 239 60 221 44 q 269 140 258 76 z "},"2":{"ha":694,"x_min":17,"x_max":608,"o":"m 608 745 q 545 545 608 641 q 255 211 481 449 l 138 87 l 138 87 l 374 87 q 510 92 446 87 q 596 103 574 96 l 603 94 l 578 -5 q 545 -2 570 -3 q 491 0 519 0 l 17 0 l 19 13 l 21 26 l 220 241 q 424 506 355 387 q 491 717 491 625 q 448 836 491 791 q 331 880 404 880 q 225 841 276 880 q 138 731 174 802 l 108 744 l 191 909 q 281 957 239 943 q 374 971 323 971 q 546 911 484 971 q 608 745 608 851 z "},"3":{"ha":694,"x_min":31,"x_max":621,"o":"m 500 754 q 464 849 500 814 q 364 885 427 885 q 273 861 311 885 q 181 771 235 838 l 155 789 l 237 929 l 237 929 q 315 960 272 948 q 395 971 359 971 q 549 920 489 971 q 610 788 610 868 q 515 612 610 696 q 408 544 462 565 l 408 544 q 549 486 494 532 q 621 323 621 427 q 507 85 621 185 q 239 -14 395 -14 q 130 1 183 -14 q 31 45 77 16 l 31 45 l 68 248 l 104 239 q 129 85 85 138 q 275 33 172 33 q 437 114 372 33 q 502 317 502 196 q 452 454 503 405 q 325 503 406 498 q 264 497 300 504 q 205 480 231 491 l 197 497 l 223 558 q 255 554 232 555 q 300 554 277 553 q 437 614 379 559 q 500 754 500 673 z "},"4":{"ha":694,"x_min":21,"x_max":668,"o":"m 374 267 l 21 267 l 26 294 l 31 321 q 258 640 160 507 q 495 951 355 772 l 581 972 l 593 964 l 486 343 l 486 343 l 586 343 l 663 343 l 668 336 l 644 258 q 588 264 632 261 q 492 267 544 267 l 472 267 l 472 267 l 450 140 q 452 59 439 75 q 537 39 466 43 l 612 35 l 606 -4 q 385 0 478 0 q 163 -4 292 0 l 170 35 l 239 39 q 322 59 304 43 q 351 140 340 75 l 374 267 l 374 267 m 387 343 l 387 343 l 477 855 l 477 855 l 477 855 q 313 640 385 736 q 102 343 222 515 l 102 343 l 387 343 z "},"5":{"ha":694,"x_min":20,"x_max":681,"o":"m 618 374 q 508 99 617 212 q 241 -14 398 -14 q 125 1 172 -14 q 20 56 79 16 q 43 153 35 113 q 60 251 52 194 l 91 244 q 124 86 81 136 q 269 35 167 35 q 431 126 363 35 q 500 340 500 216 q 454 489 500 438 q 321 539 409 539 q 236 516 280 539 q 159 457 191 494 l 130 469 l 222 957 l 222 957 q 454 950 357 950 q 672 956 547 951 l 681 943 l 633 865 l 633 865 q 419 859 509 860 q 259 863 348 859 l 259 863 l 191 531 l 191 531 q 240 565 215 550 q 382 602 305 602 q 556 541 493 602 q 618 374 618 481 z "},"6":{"ha":694,"x_min":68,"x_max":650,"o":"m 585 971 q 622 969 607 971 q 650 963 636 968 l 630 881 l 619 880 q 579 899 602 892 q 534 907 556 907 q 313 773 406 907 q 182 418 226 646 l 182 418 q 238 491 205 458 q 425 579 323 579 q 570 522 517 579 q 623 365 623 465 q 521 99 623 213 q 284 -14 420 -14 q 104 98 160 -14 q 68 269 68 169 q 80 393 68 325 q 267 806 123 642 q 585 971 411 971 m 174 251 q 214 101 174 155 q 326 47 254 47 q 463 127 408 47 q 517 327 517 207 q 478 456 517 410 q 368 503 439 503 q 230 429 287 503 q 174 251 174 357 z "},"7":{"ha":694,"x_min":74,"x_max":701,"o":"m 83 -5 l 74 8 l 603 856 l 603 856 q 404 859 492 859 q 123 852 287 859 l 142 957 q 420 950 303 950 q 701 957 538 950 l 701 908 q 428 460 534 652 q 259 132 349 318 q 214 40 233 79 q 194 -5 195 0 q 140 0 163 0 q 83 -5 117 0 z "},"8":{"ha":694,"x_min":50,"x_max":652,"o":"m 168 728 q 276 895 184 818 q 461 971 368 971 q 616 913 566 971 q 652 806 652 872 q 647 755 652 783 q 570 621 635 688 q 452 530 522 571 l 452 530 q 562 436 526 488 q 597 319 597 385 q 593 271 597 296 q 479 70 572 154 q 278 -14 387 -14 q 94 52 154 -14 q 50 179 51 102 q 56 236 51 206 q 155 398 71 326 q 304 488 216 451 l 304 488 q 195 577 229 528 q 164 682 164 623 q 168 728 164 705 m 555 749 q 559 783 559 767 q 531 867 559 832 q 426 913 494 913 q 317 873 361 913 q 260 764 272 833 q 257 732 257 748 q 283 644 257 684 q 395 557 319 589 l 412 549 l 412 549 q 496 620 465 583 q 555 749 543 675 m 157 248 q 153 204 154 225 q 185 102 154 145 q 308 44 228 44 q 427 94 376 44 q 492 227 478 144 q 496 267 496 248 q 468 370 496 323 q 345 469 429 433 l 342 470 l 342 470 q 229 388 271 431 q 157 248 172 328 z "},"9":{"ha":694,"x_min":45,"x_max":651,"o":"m 193 -15 q 139 -9 164 -15 q 87 11 115 -3 q 69 84 78 54 q 45 154 60 114 l 73 165 q 147 78 110 104 q 230 52 184 52 q 421 170 344 52 q 539 526 498 288 l 541 543 l 541 543 q 488 469 519 503 q 315 382 408 382 q 158 444 218 382 q 99 608 99 506 q 197 862 99 753 q 427 970 296 970 q 618 852 562 970 q 651 677 651 781 q 637 526 651 608 q 471 134 594 282 q 193 -15 350 -15 m 545 703 q 506 855 546 801 q 394 909 466 909 q 259 832 313 909 q 205 639 205 755 q 245 506 205 553 q 360 458 286 458 q 492 530 438 458 q 545 703 545 600 z "}," ":{"ha":347,"x_min":0,"x_max":0,"o":""},"!":{"ha":463,"x_min":106,"x_max":415,"o":"m 186 270 l 281 987 l 395 1019 l 415 1019 l 232 287 l 206 270 l 186 270 m 188 151 q 235 126 217 151 q 250 69 254 102 q 220 12 245 36 q 168 -12 197 -12 q 120 12 138 -12 q 106 69 102 36 q 134 126 110 102 q 188 151 159 151 z "},"\"":{"ha":694,"x_min":195,"x_max":631,"o":"m 195 705 l 195 705 l 282 966 q 287 978 283 972 q 324 1014 300 1004 q 370 1013 348 1024 q 399 975 393 1001 q 393 924 406 949 l 386 913 l 237 706 l 237 706 l 195 705 m 426 705 l 426 705 l 513 966 q 518 978 515 972 q 555 1014 531 1004 q 602 1013 579 1024 q 630 975 624 1001 q 624 924 637 949 l 617 913 l 469 706 l 469 706 l 426 705 z "},"#":{"ha":694,"x_min":5,"x_max":688,"o":"m 321 962 l 279 665 l 466 665 l 509 962 l 588 962 l 546 664 l 688 664 l 688 585 l 534 585 l 507 392 l 650 392 l 650 313 l 496 313 l 451 0 l 372 0 l 416 314 l 229 314 l 184 0 l 104 0 l 149 314 l 5 314 l 5 393 l 160 393 l 188 586 l 43 586 l 43 665 l 199 665 l 241 962 l 321 962 m 266 586 l 239 391 l 429 392 l 455 587 l 266 586 z "},"$":{"ha":694,"x_min":21,"x_max":632,"o":"m 446 1018 l 433 936 l 454 936 q 540 923 495 936 q 632 885 585 910 q 610 800 618 836 q 595 714 602 764 l 561 714 l 561 714 l 562 812 q 498 855 543 837 q 423 873 460 871 l 368 515 l 378 513 q 563 434 507 492 q 606 322 606 389 q 602 281 606 303 q 473 64 578 147 q 286 -14 393 1 l 264 -155 l 216 -155 l 238 -18 l 220 -18 q 115 0 175 -18 q 21 42 54 18 q 41 142 34 100 q 54 243 49 184 l 87 243 l 87 243 l 87 121 q 167 64 118 83 q 247 45 204 47 l 307 423 q 137 503 186 447 q 99 619 100 547 q 104 678 99 648 q 225 861 123 787 q 389 932 300 916 l 402 1018 l 446 1018 m 379 873 q 267 830 313 866 q 197 707 211 786 q 223 576 182 619 q 324 525 253 544 l 379 872 l 379 873 m 294 44 q 425 93 374 48 q 496 240 479 142 q 473 362 511 321 q 351 415 439 398 l 294 43 l 294 44 z "},"%":{"ha":1235,"x_min":103,"x_max":1124,"o":"m 294 540 q 160 596 216 540 q 103 730 103 652 q 177 903 103 830 q 353 975 251 975 q 485 922 432 975 q 537 790 537 869 q 468 610 537 680 q 294 540 400 540 l 294 540 m 354 943 q 245 874 288 943 q 202 699 203 806 q 228 605 202 639 q 298 570 253 570 q 403 640 361 570 q 445 818 445 709 q 422 911 445 880 q 354 943 399 943 l 354 943 m 285 -11 l 874 989 l 934 989 l 345 -11 l 285 -11 m 882 1 q 748 57 804 1 q 691 191 691 113 q 765 363 690 291 q 941 436 839 436 q 1072 383 1020 436 q 1124 251 1124 330 q 1056 71 1124 141 q 882 1 988 1 l 882 1 m 941 404 q 833 335 876 404 q 790 160 790 267 q 815 65 789 100 q 886 31 841 31 q 991 101 949 31 q 1032 279 1032 170 q 1009 372 1032 340 q 941 404 986 404 l 941 404 z "},"&":{"ha":1080,"x_min":65,"x_max":1067,"o":"m 248 692 q 380 872 269 783 q 586 961 492 961 q 658 951 620 961 q 719 926 696 941 q 699 843 707 878 q 686 760 693 808 l 648 760 l 648 760 l 653 844 q 595 881 623 869 q 538 892 567 892 q 426 863 480 892 q 365 799 372 834 q 359 766 361 783 q 357 734 357 749 q 402 624 357 664 q 525 583 447 583 l 545 583 l 517 510 q 291 474 383 525 q 200 334 199 422 q 272 152 200 216 q 477 88 344 88 q 679 133 587 88 q 783 236 770 177 q 708 393 810 351 q 669 400 692 399 q 628 395 646 401 l 623 394 l 623 394 q 588 371 603 389 q 566 326 573 354 l 556 285 l 524 288 q 531 356 529 328 q 533 424 532 385 l 533 424 q 621 475 562 457 q 819 513 680 494 q 961 550 913 526 q 1017 612 1009 574 q 1013 667 1025 644 q 968 705 1000 690 q 982 720 975 715 q 999 728 988 724 q 1059 669 1041 705 q 1067 588 1077 632 l 1067 588 q 1004 487 1052 519 q 850 439 956 454 l 778 428 l 778 428 q 864 382 830 427 q 883 275 897 338 q 713 66 857 158 q 412 -25 570 -25 q 156 40 248 -25 q 65 222 64 104 q 197 488 65 384 q 320 555 253 531 l 320 555 l 298 570 q 245 665 245 608 q 245 678 244 670 q 248 692 246 686 z "},"'":{"ha":463,"x_min":195,"x_max":399,"o":"m 195 705 l 195 705 l 282 965 q 288 977 283 972 q 325 1013 300 1003 q 371 1012 349 1023 q 400 975 393 1000 q 393 924 406 949 l 387 913 l 237 705 l 237 705 l 195 705 z "},"(":{"ha":463,"x_min":75,"x_max":444,"o":"m 75 500 q 183 756 109 642 q 412 1018 258 870 l 444 990 q 284 781 349 889 q 197 576 220 673 q 166 194 149 378 q 263 -130 183 11 l 233 -147 q 80 182 121 13 q 75 500 39 350 z "},")":{"ha":463,"x_min":3,"x_max":371,"o":"m 371 370 q 262 115 336 229 q 35 -147 189 1 l 3 -119 q 161 90 98 -18 q 249 295 225 197 q 279 676 296 493 q 184 1000 262 860 l 214 1018 q 366 689 325 858 q 371 370 407 521 z "},"*":{"ha":541,"x_min":106,"x_max":557,"o":"m 435 947 l 350 764 l 350 764 l 546 803 l 554 797 l 557 708 l 549 701 l 350 726 l 350 726 l 448 552 l 444 542 l 359 511 l 351 517 l 314 715 l 314 715 l 178 567 l 168 567 l 113 638 l 115 649 l 291 745 l 291 745 l 109 829 l 106 839 l 157 913 l 167 913 l 313 777 l 313 777 l 336 976 l 345 981 l 431 956 l 435 947 z "},"+":{"ha":842,"x_min":71,"x_max":772,"o":"m 382 311 l 71 311 l 71 388 l 382 388 l 382 700 l 460 700 l 460 388 l 772 388 l 772 311 l 460 311 l 460 -1 l 382 -1 l 382 311 z "},",":{"ha":347,"x_min":11,"x_max":280,"o":"m 11 -184 q 95 -32 66 -98 q 141 131 123 35 l 267 170 l 280 152 q 200 1 239 63 q 58 -189 146 -82 l 18 -201 l 11 -184 z "},"-":{"ha":463,"x_min":26,"x_max":422,"o":"m 52 390 l 422 390 l 397 310 l 26 310 l 52 390 z "},".":{"ha":347,"x_min":74,"x_max":218,"o":"m 156 155 q 203 131 185 155 q 218 74 222 107 q 190 17 214 41 q 136 -7 165 -7 q 89 17 107 -7 q 74 74 70 41 q 102 131 78 107 q 156 155 127 155 z "},"/":{"ha":411,"x_min":-55,"x_max":544,"o":"m 544 1015 l 28 -163 l -55 -163 l 461 1015 l 544 1015 z "},":":{"ha":347,"x_min":61,"x_max":289,"o":"m 146 155 q 193 131 176 155 q 205 74 210 107 q 173 17 199 41 q 119 -7 149 -7 q 73 17 90 -7 q 61 74 55 41 q 92 131 66 107 q 146 155 117 155 m 231 637 q 277 613 260 637 q 289 556 294 589 q 257 499 283 523 q 203 475 232 475 q 156 499 174 475 q 145 556 139 523 q 176 613 151 589 q 231 637 202 637 z "},";":{"ha":347,"x_min":-12,"x_max":302,"o":"m -12 -186 q 75 -32 45 -100 q 122 129 102 33 l 250 168 l 260 151 q 180 1 220 62 q 37 -189 127 -82 l -4 -201 l -12 -186 m 248 631 q 293 607 277 631 q 302 550 309 583 q 268 493 294 517 q 212 469 241 469 q 166 493 182 469 q 158 550 151 517 q 192 607 165 583 q 248 631 219 631 z "},"<":{"ha":842,"x_min":74,"x_max":768,"o":"m 74 315 l 74 353 l 74 390 l 768 715 l 768 633 l 168 353 l 168 353 l 768 74 l 768 -10 l 74 315 z "},"=":{"ha":842,"x_min":71,"x_max":772,"o":"m 71 253 l 772 253 l 772 175 l 71 175 l 71 253 m 71 524 l 772 524 l 772 446 l 71 446 l 71 524 z "},">":{"ha":842,"x_min":74,"x_max":768,"o":"m 768 315 l 74 -10 l 74 74 l 675 353 l 675 353 l 74 633 l 74 715 l 768 390 l 768 353 l 768 315 z "},"?":{"ha":694,"x_min":158,"x_max":594,"o":"m 353 897 q 298 891 321 897 q 253 872 275 885 l 189 785 l 189 785 l 158 791 l 214 928 l 214 928 q 301 968 262 955 q 372 981 340 981 q 545 919 481 981 q 594 768 610 857 q 556 673 585 712 q 425 534 528 635 q 325 428 368 478 q 279 366 281 378 q 282 318 275 338 q 313 280 290 298 l 317 277 l 286 267 q 237 312 253 281 q 229 381 222 342 q 261 458 235 418 q 341 557 287 498 q 444 678 414 636 q 479 754 473 720 q 453 855 490 814 q 353 897 416 897 m 246 151 q 293 126 275 151 q 304 69 310 102 q 273 12 298 36 q 219 -12 248 -12 q 172 12 190 -12 q 160 69 155 36 q 192 126 166 102 q 246 151 217 151 z "},"@":{"ha":1038,"x_min":37,"x_max":998,"o":"m 708 228 q 863 345 785 228 q 941 578 941 463 q 824 816 941 714 q 551 918 707 918 q 230 793 358 918 q 102 478 102 667 q 231 161 102 284 q 562 38 359 38 q 767 91 673 38 q 924 242 861 144 l 988 242 q 813 51 935 125 q 551 -24 690 -24 q 186 119 335 -24 q 37 468 37 261 q 185 831 37 683 q 546 980 332 980 q 867 864 736 980 q 998 578 998 747 q 899 310 998 431 q 678 190 800 190 q 593 236 623 190 q 575 317 570 272 l 575 317 q 543 272 560 293 q 408 199 481 199 q 275 259 326 199 q 224 416 224 319 q 316 625 225 531 q 519 719 407 719 q 629 649 597 719 q 645 596 641 625 l 645 596 l 673 709 l 781 709 q 727 526 748 602 l 715 484 q 665 270 666 312 q 708 228 663 228 m 536 685 q 394 583 460 685 q 327 364 328 481 q 353 267 328 301 q 426 233 378 233 q 528 297 481 233 q 608 481 574 360 q 611 627 631 569 q 536 685 591 685 z "},"A":{"ha":1003,"x_min":-26,"x_max":941,"o":"m 131 161 l 645 979 l 677 979 l 709 979 l 822 119 q 843 58 828 74 q 896 39 857 42 l 941 35 l 935 -4 q 765 0 837 0 q 593 -4 693 0 l 599 35 l 641 37 q 701 61 688 40 q 707 140 714 81 l 677 385 l 677 385 l 349 385 l 349 385 l 208 155 q 179 65 169 92 q 252 36 189 38 l 290 35 l 284 -4 q 130 0 195 0 q -26 -4 65 0 l -20 35 l 7 38 q 60 65 37 41 q 131 161 84 88 m 623 836 l 379 436 l 379 436 l 672 436 l 672 436 l 623 836 l 623 836 l 623 836 z "},"B":{"ha":848,"x_min":36,"x_max":780,"o":"m 136 138 l 255 817 q 258 901 267 884 q 198 920 249 918 l 144 922 l 151 961 l 334 957 l 334 957 l 532 961 q 715 916 651 961 q 780 789 779 871 l 780 787 q 657 570 780 657 q 526 507 599 529 l 526 507 q 685 459 625 500 q 758 317 758 410 q 642 87 758 180 q 357 -4 528 -4 l 168 0 l 168 0 l 36 -4 l 42 33 l 75 40 q 117 62 106 47 q 136 138 126 78 m 380 903 l 313 522 l 313 522 l 399 522 q 588 586 517 522 q 659 760 659 651 q 615 871 659 834 q 484 909 571 909 q 380 903 430 910 l 380 903 m 304 472 l 233 60 l 233 60 q 391 48 304 49 q 567 116 502 48 q 633 298 633 184 q 581 429 633 385 q 422 472 528 472 l 304 472 l 304 472 z "},"C":{"ha":926,"x_min":62,"x_max":903,"o":"m 847 143 l 834 93 q 655 2 738 28 q 473 -25 573 -25 q 169 84 276 -25 q 62 393 62 193 l 62 395 q 225 813 63 646 q 631 981 388 981 q 761 967 693 981 q 903 924 828 953 q 882 821 890 864 q 867 719 875 779 l 829 719 l 829 719 l 830 836 q 720 889 784 871 q 569 906 656 906 q 291 774 395 906 q 186 418 186 642 q 274 144 186 241 q 524 48 361 48 q 679 72 608 48 q 833 153 750 96 l 847 143 z "},"D":{"ha":1080,"x_min":39,"x_max":1031,"o":"m 132 138 l 250 817 q 253 901 262 884 q 193 920 243 917 l 140 922 l 146 961 l 330 957 l 330 957 l 595 961 q 923 874 816 961 q 1031 609 1031 787 l 1031 607 q 854 174 1031 351 q 427 -4 680 -4 l 163 0 l 163 0 l 39 -4 l 45 33 l 75 40 q 113 62 103 47 q 132 138 121 78 m 231 76 l 231 76 q 477 54 335 54 q 783 204 660 54 q 906 578 906 354 q 816 826 907 743 q 545 909 725 909 q 374 899 453 909 l 374 899 l 231 76 z "},"E":{"ha":848,"x_min":41,"x_max":795,"o":"m 41 -4 l 47 33 l 82 40 q 125 62 115 47 q 145 138 135 78 l 264 817 q 267 901 275 884 q 207 920 258 918 l 153 922 l 160 961 l 398 957 l 398 957 l 795 961 l 795 961 q 774 853 781 899 q 762 744 767 807 l 729 744 l 723 841 q 707 886 720 876 q 642 899 694 895 q 557 902 597 902 q 387 895 483 902 l 387 895 l 322 522 l 322 522 l 391 522 q 568 525 483 522 q 673 532 652 528 q 680 522 681 525 q 651 458 671 494 q 569 463 631 461 q 425 465 507 465 l 312 465 l 312 465 l 242 62 l 242 62 q 427 54 345 54 q 564 58 489 54 q 657 75 635 62 q 692 140 678 88 l 715 225 l 753 225 q 730 111 739 159 q 716 -4 722 63 l 716 -4 l 231 0 l 231 0 l 41 -4 z "},"F":{"ha":772,"x_min":0,"x_max":765,"o":"m 130 140 l 249 817 q 252 901 260 884 q 192 920 243 918 l 138 922 l 145 961 l 383 957 l 383 957 l 765 961 l 765 961 q 744 853 751 899 q 732 744 737 807 l 699 744 l 693 841 q 677 887 690 878 q 612 899 664 897 l 534 901 q 372 895 464 902 l 372 895 l 299 476 l 299 476 l 375 476 q 552 479 467 476 q 658 486 637 481 q 664 475 665 479 q 635 412 656 448 q 552 417 614 415 q 410 418 490 418 l 289 418 l 289 418 l 240 140 q 240 56 229 72 q 311 37 252 39 l 374 35 l 368 -4 q 184 0 262 0 q 0 -4 107 0 l 6 35 l 52 37 q 106 56 94 39 q 130 140 119 72 z "},"G":{"ha":1003,"x_min":69,"x_max":970,"o":"m 493 -25 q 179 78 289 -25 q 69 370 69 180 q 235 806 69 631 q 648 981 400 981 q 784 967 713 981 q 935 924 854 953 q 913 821 921 864 q 899 719 906 779 l 861 719 l 861 719 l 862 836 q 742 888 813 869 q 589 906 670 906 q 300 770 408 906 q 191 405 192 634 q 281 132 191 226 q 543 37 372 37 q 732 81 635 38 l 732 81 l 751 175 l 761 237 q 760 318 772 302 q 684 337 747 334 l 605 342 l 612 380 q 791 376 715 376 q 970 380 866 376 l 964 342 l 932 338 q 889 317 900 334 q 867 237 879 301 l 856 176 q 838 52 846 121 q 801 43 828 52 q 723 18 774 35 q 601 -15 655 -5 q 493 -25 547 -25 z "},"H":{"ha":1080,"x_min":-3,"x_max":1107,"o":"m 127 140 l 245 817 q 248 901 257 884 q 189 920 239 918 l 135 922 l 142 961 q 313 957 241 957 q 486 961 385 957 l 479 922 l 434 920 q 379 901 393 918 q 355 817 367 884 l 306 533 l 306 533 l 817 533 l 817 533 l 866 817 q 868 901 878 884 q 809 920 859 917 l 755 922 l 762 961 q 933 957 861 957 q 1107 961 1006 957 l 1100 922 l 1055 920 q 1000 901 1013 918 q 976 817 987 885 l 857 140 q 855 56 846 73 q 914 37 864 39 l 968 35 l 962 -4 q 791 0 863 0 q 617 -4 718 0 l 623 35 l 669 37 q 723 56 711 39 q 747 140 736 73 l 806 471 l 806 471 l 551 473 l 295 471 l 295 471 l 237 140 q 234 56 225 73 q 294 37 243 40 l 347 35 l 341 -4 q 170 0 242 0 q -3 -4 98 0 l 3 35 l 48 37 q 103 56 90 39 q 127 140 115 72 z "},"I":{"ha":463,"x_min":9,"x_max":499,"o":"m 140 140 l 258 817 q 261 901 270 884 q 201 920 252 918 l 148 922 l 155 961 q 326 957 254 957 q 499 961 398 957 l 492 922 l 447 920 q 392 901 406 918 q 368 817 380 885 l 250 140 q 247 56 238 73 q 307 37 256 39 l 360 35 l 354 -4 q 183 0 255 0 q 9 -4 111 0 l 16 35 l 61 37 q 116 56 103 39 q 140 140 128 72 z "},"J":{"ha":463,"x_min":-48,"x_max":490,"o":"m 238 817 q 238 901 248 884 q 178 920 229 918 l 124 922 l 130 961 q 309 957 233 957 q 490 961 385 957 l 485 922 l 434 920 q 373 901 387 918 q 350 817 359 885 l 242 62 q 154 -187 222 -88 q 4 -286 85 -286 q -43 -274 -20 -286 l -48 -236 q -1 -241 -31 -241 q 72 -188 41 -241 q 117 -37 103 -135 l 238 817 z "},"K":{"ha":926,"x_min":18,"x_max":958,"o":"m 258 140 q 256 56 247 73 q 315 37 265 39 l 369 35 l 363 -4 q 192 0 264 0 q 18 -4 119 0 l 24 35 l 70 37 q 124 56 112 39 q 149 140 137 72 l 267 817 q 270 901 279 884 q 210 920 261 918 l 157 922 l 163 961 q 334 957 262 957 q 508 961 407 957 l 501 922 l 456 920 q 401 901 414 918 q 377 817 389 885 l 319 486 l 319 486 q 566 710 465 612 q 723 869 637 778 q 756 914 750 898 q 760 961 763 930 q 858 957 817 957 q 958 961 899 957 l 951 922 l 922 921 q 858 896 892 920 q 741 796 824 872 l 433 509 l 433 509 l 757 119 q 816 58 794 74 q 867 39 838 42 l 901 35 l 895 -4 q 802 0 842 0 q 707 -4 762 0 q 628 101 653 68 q 560 182 602 134 l 317 473 l 317 473 l 258 140 z "},"L":{"ha":772,"x_min":22,"x_max":734,"o":"m 22 -4 l 28 33 l 63 40 q 106 62 96 47 q 126 138 116 78 l 245 817 q 247 901 256 884 q 188 920 238 917 l 134 922 l 141 961 q 312 957 240 957 q 486 961 385 957 l 479 922 l 433 920 q 378 901 392 918 q 355 817 366 885 l 223 62 l 223 62 q 408 54 326 54 q 545 58 469 54 q 638 75 616 62 q 673 140 659 89 l 696 225 l 734 225 q 711 111 720 159 q 697 -4 703 63 l 697 -4 l 212 0 l 212 0 l 22 -4 z "},"M":{"ha":1311,"x_min":-26,"x_max":1305,"o":"m 171 140 q 165 61 155 82 q 220 37 176 39 l 275 35 l 269 -4 q 122 0 184 0 q -26 -4 60 0 l -20 35 l 20 37 q 66 60 50 39 q 100 140 83 81 l 293 817 q 290 894 309 873 q 207 920 272 916 l 167 922 l 174 961 q 289 956 241 958 q 407 957 339 956 l 407 957 l 612 155 l 612 155 l 612 155 l 794 465 l 1003 827 q 1049 909 1038 886 q 1072 961 1061 932 q 1187 957 1139 957 q 1305 961 1237 957 l 1299 922 l 1250 920 q 1193 901 1204 918 q 1177 817 1181 884 l 1128 140 q 1135 56 1124 73 q 1196 37 1146 40 l 1250 35 l 1244 -4 q 1072 0 1145 0 q 899 -4 1000 0 l 905 35 l 950 37 q 1004 56 993 39 q 1019 140 1015 72 l 1066 808 l 1066 808 q 865 467 951 618 q 583 -25 745 261 l 567 -25 l 551 -25 l 347 773 l 347 773 l 171 140 z "},"N":{"ha":1080,"x_min":3,"x_max":1115,"o":"m 193 140 q 196 61 183 83 q 253 37 208 39 l 308 35 l 302 -4 q 153 0 216 0 q 3 -4 90 0 l 9 35 l 52 37 q 103 60 87 39 q 130 140 119 81 l 260 852 l 230 886 q 153 918 198 916 l 98 922 l 105 961 q 219 957 171 957 q 335 961 267 957 q 353 922 345 938 q 384 869 361 905 l 617 471 l 811 145 l 811 145 l 811 145 l 924 817 q 921 896 934 875 q 864 920 909 918 l 809 922 l 816 961 q 965 957 902 957 q 1115 961 1027 957 l 1108 922 l 1065 920 q 1014 897 1029 918 q 987 817 998 876 l 844 -11 l 810 -11 l 776 -11 l 307 783 l 307 783 l 307 783 l 193 140 z "},"O":{"ha":1080,"x_min":74,"x_max":1037,"o":"m 468 -25 q 176 76 279 -25 q 74 363 74 176 q 237 804 74 627 q 643 981 399 981 q 935 880 833 981 q 1037 592 1037 779 q 873 151 1037 328 q 468 -25 711 -25 l 468 -25 m 517 33 q 805 182 697 33 q 913 583 913 332 q 833 837 913 752 q 593 922 753 922 q 306 773 413 922 q 197 372 198 624 q 277 118 197 203 q 517 33 357 33 l 517 33 z "},"P":{"ha":848,"x_min":12,"x_max":825,"o":"m 151 140 l 269 817 q 272 901 281 884 q 212 920 263 918 l 159 922 l 165 961 l 349 957 l 349 957 l 581 961 q 762 907 699 961 q 825 754 825 853 l 825 752 q 728 505 825 609 q 498 401 631 401 q 374 431 431 401 l 373 477 q 490 449 425 449 q 640 531 576 449 q 703 725 703 612 q 651 865 703 819 q 490 910 600 910 q 393 901 441 909 l 393 901 l 260 140 q 260 56 249 72 q 331 37 272 39 l 394 35 l 388 -4 q 201 0 279 0 q 12 -4 122 0 l 18 35 l 67 37 q 126 56 113 39 q 151 140 139 73 z "},"Q":{"ha":1080,"x_min":74,"x_max":1037,"o":"m 986 -83 q 934 -232 975 -183 q 821 -280 894 -280 q 720 -260 772 -280 q 562 -181 669 -241 q 408 -103 460 -125 q 317 -82 355 -82 q 237 -121 264 -82 q 209 -237 210 -159 l 179 -220 q 227 -68 181 -116 q 370 -20 273 -20 l 378 -20 l 378 -20 q 176 76 252 1 q 74 363 74 176 q 237 804 74 627 q 643 981 399 981 q 935 880 833 981 q 1037 592 1037 779 q 873 151 1037 328 q 468 -25 711 -25 q 398 -22 431 -26 q 391 -22 391 -21 q 397 -24 391 -22 l 444 -40 q 605 -108 498 -60 q 766 -174 707 -154 q 857 -195 825 -195 q 919 -170 898 -195 q 951 -83 940 -144 l 986 -83 m 593 922 q 306 773 413 922 q 197 372 198 624 q 277 118 197 203 q 517 33 357 33 q 805 182 697 33 q 913 583 913 332 q 833 837 913 752 q 593 922 753 922 l 593 922 z "},"R":{"ha":926,"x_min":12,"x_max":895,"o":"m 151 140 l 269 817 q 272 901 281 884 q 212 920 263 918 l 159 922 l 165 961 l 349 957 l 349 957 l 568 961 q 749 913 686 961 q 812 776 812 865 q 702 567 812 650 q 521 491 625 509 l 521 491 l 678 262 l 772 119 q 822 58 803 74 q 865 39 840 42 l 895 35 l 888 -4 q 800 0 837 0 q 709 -4 762 0 l 709 -4 q 538 262 610 151 q 374 505 470 366 l 380 526 l 416 524 q 614 587 540 524 q 688 756 688 650 q 642 871 688 833 q 501 910 595 910 q 393 899 446 910 l 393 899 l 260 140 q 258 56 249 73 q 317 37 267 40 l 371 35 l 365 -4 q 189 0 263 0 q 12 -4 115 0 l 18 35 l 67 37 q 126 56 113 39 q 151 140 139 73 z "},"S":{"ha":772,"x_min":58,"x_max":701,"o":"m 626 743 l 626 743 l 626 848 q 558 896 600 878 q 469 913 515 913 q 323 867 381 913 q 251 738 266 821 q 277 600 235 646 q 439 530 319 553 q 635 444 581 502 q 675 331 675 400 q 670 280 675 307 q 531 63 648 152 q 269 -25 415 -25 q 156 -9 221 -25 q 58 28 92 7 l 58 28 l 93 242 l 135 242 l 135 242 l 134 104 q 224 60 170 77 q 329 42 279 42 q 487 92 429 42 q 564 241 546 142 q 536 363 577 321 q 380 427 496 404 q 186 519 239 454 q 149 640 149 566 q 155 705 149 670 q 280 901 175 821 q 517 981 385 981 q 615 967 562 981 q 701 933 669 954 q 681 838 688 878 q 668 743 674 798 l 626 743 z "},"T":{"ha":848,"x_min":74,"x_max":881,"o":"m 300 140 l 433 898 l 433 898 l 271 898 q 167 889 189 898 q 137 842 145 880 l 115 732 l 74 732 l 87 846 l 100 961 l 100 961 l 498 957 l 498 957 l 881 961 l 881 961 l 863 846 l 845 732 l 804 732 l 814 808 q 801 883 822 868 q 689 898 781 898 l 543 898 l 543 898 l 410 140 q 408 55 398 71 q 475 37 418 39 l 535 35 l 529 -4 q 344 0 422 0 q 157 -4 266 0 l 163 35 l 214 37 q 275 56 261 39 q 300 140 288 72 z "},"U":{"ha":1080,"x_min":122,"x_max":1101,"o":"m 338 790 l 252 300 q 280 124 232 184 q 441 64 328 64 q 713 184 581 64 q 770 246 747 216 l 770 246 l 861 817 q 863 900 872 884 q 803 919 853 917 l 749 922 l 756 960 q 927 956 855 956 q 1101 960 1000 956 l 1094 922 l 1048 919 q 993 901 1005 917 q 971 817 981 884 l 863 140 q 864 56 854 73 q 926 37 874 39 l 983 35 l 977 -4 q 853 -1 905 -1 q 728 -5 801 -1 l 748 86 l 768 175 q 764 177 768 175 q 760 178 760 178 l 760 178 l 733 151 q 392 -16 564 -16 q 177 68 238 -16 q 136 218 136 123 q 146 319 136 264 l 233 817 q 235 901 244 884 q 176 920 227 918 l 122 922 l 129 961 q 250 957 199 957 q 374 961 302 957 q 357 894 363 924 q 338 790 351 864 z "},"V":{"ha":1003,"x_min":104,"x_max":1057,"o":"m 224 838 q 203 899 218 883 q 150 918 188 915 l 104 922 l 111 961 q 281 957 210 957 q 454 961 354 957 l 448 922 l 406 920 q 346 896 359 916 q 340 817 333 876 l 431 130 l 431 130 l 431 130 l 826 802 q 854 892 865 865 q 779 921 844 919 l 741 922 l 747 961 q 901 957 836 957 q 1057 961 966 957 l 1050 922 l 1023 919 q 971 892 994 915 q 903 796 948 869 l 414 -11 l 380 -11 l 346 -11 l 224 838 z "},"W":{"ha":1311,"x_min":98,"x_max":1366,"o":"m 254 -11 l 197 838 q 182 900 194 884 q 138 918 170 916 l 98 922 l 105 961 q 267 957 199 957 q 431 961 336 957 l 425 922 l 382 920 q 321 896 335 917 q 310 817 307 876 l 345 167 l 345 167 l 345 167 l 730 968 l 745 968 l 761 968 l 975 165 l 975 165 l 975 165 l 1173 802 q 1175 892 1193 865 q 1094 921 1158 919 l 1056 922 l 1063 961 q 1213 957 1149 957 q 1366 961 1277 957 l 1359 922 l 1333 919 q 1286 892 1303 915 q 1246 796 1270 869 l 983 -11 l 949 -11 l 915 -11 l 701 751 l 701 751 l 701 751 l 321 -11 l 288 -11 l 254 -11 z "},"X":{"ha":1003,"x_min":28,"x_max":1024,"o":"m 212 161 l 484 476 l 484 476 l 290 838 q 244 899 267 883 q 181 918 222 915 l 131 922 l 138 961 q 315 957 240 957 q 492 961 389 957 l 486 922 l 444 920 q 391 896 395 917 q 420 817 386 876 l 557 565 l 557 565 l 557 565 l 749 802 q 797 892 802 865 q 727 921 792 919 l 689 922 l 696 961 q 859 957 790 957 q 1024 961 928 957 l 1017 922 l 988 919 q 925 892 955 915 q 831 796 895 869 l 587 512 l 587 512 l 802 119 q 847 57 826 73 q 905 39 868 41 l 951 35 l 945 -4 q 768 0 842 0 q 589 -4 693 0 l 595 35 l 637 37 q 690 61 685 40 q 662 140 694 81 l 511 423 l 511 423 l 511 423 l 293 155 q 245 65 240 92 q 315 36 250 38 l 353 35 l 347 -4 q 189 0 256 0 q 28 -4 121 0 l 34 35 l 60 38 q 120 65 91 42 q 212 161 149 88 z "},"Y":{"ha":926,"x_min":72,"x_max":937,"o":"m 395 347 q 397 368 397 358 q 393 391 397 378 q 328 620 362 522 q 286 728 309 672 q 198 862 241 830 q 93 871 155 893 l 76 865 l 72 897 l 127 938 l 182 979 q 284 941 241 979 q 361 820 327 903 q 412 684 391 747 q 480 434 448 579 l 480 434 q 593 646 535 555 l 621 689 q 783 884 703 812 q 937 968 864 955 l 928 870 q 815 823 868 863 q 687 685 762 782 q 644 623 664 654 q 528 418 586 535 q 514 385 518 398 q 506 352 509 372 l 469 140 q 466 56 457 73 q 526 37 475 39 l 579 35 l 573 -4 q 402 0 474 0 q 229 -4 330 0 l 235 35 l 280 37 q 335 56 322 39 q 359 140 347 72 l 395 347 z "},"Z":{"ha":926,"x_min":28,"x_max":883,"o":"m 33 28 l 730 903 l 730 903 l 465 903 q 334 899 390 903 q 225 884 277 894 l 190 741 l 149 741 q 163 850 159 804 q 168 961 167 897 l 168 961 l 667 957 l 667 957 l 883 961 l 880 945 l 877 928 l 182 54 l 182 54 l 545 54 q 640 60 591 54 q 755 80 689 66 l 806 228 l 844 228 q 822 113 829 161 q 810 -4 815 64 l 810 -4 l 244 0 l 244 0 l 28 -4 l 31 12 l 33 28 z "},"[":{"ha":463,"x_min":25,"x_max":455,"o":"m 25 -134 q 127 444 90 201 q 208 1020 166 686 l 208 1020 l 455 1020 l 449 983 l 342 973 q 320 962 330 972 q 308 938 311 951 q 220 443 253 655 q 151 -51 188 233 q 156 -75 148 -65 q 175 -87 163 -85 l 279 -97 l 273 -134 l 25 -134 l 25 -134 z "},"\\":{"ha":842,"x_min":113,"x_max":712,"o":"m 627 0 l 113 1017 l 197 1017 l 712 0 l 627 0 z "},"]":{"ha":463,"x_min":9,"x_max":439,"o":"m 257 -134 l 257 -134 l 9 -134 l 16 -97 l 122 -87 q 145 -75 135 -85 q 159 -51 156 -65 q 243 443 210 233 q 313 938 277 655 q 308 962 315 951 q 290 973 300 972 l 186 983 l 192 1020 l 439 1020 l 439 1020 q 336 444 375 686 q 257 -134 298 201 z "},"^":{"ha":842,"x_min":71,"x_max":772,"o":"m 467 956 l 772 390 l 686 390 l 421 873 l 421 873 l 156 390 l 71 390 l 375 956 l 421 956 l 467 956 z "},"_":{"ha":694,"x_min":0,"x_max":694,"o":"m 0 -172 l 0 -103 l 694 -103 l 694 -172 l 0 -172 z "},"`":{"ha":463,"x_min":119,"x_max":429,"o":"m 383 749 l 383 749 l 149 892 l 142 897 q 120 930 123 912 l 119 937 q 132 965 119 953 q 166 982 146 981 q 205 968 186 983 l 212 962 l 429 749 l 429 749 l 383 749 z "},"a":{"ha":616,"x_min":5,"x_max":567,"o":"m 54 -15 q 17 10 31 -15 q 5 77 5 34 l 5 82 q 14 179 5 121 q 39 307 23 237 q 172 566 77 463 q 374 669 267 669 q 445 661 407 669 q 504 643 475 655 l 504 643 l 552 667 l 552 667 l 567 653 l 566 653 q 508 438 530 528 l 449 185 q 436 102 435 125 q 452 79 437 79 q 485 95 460 79 q 553 144 510 111 l 566 119 q 439 22 491 56 q 367 -12 388 -12 q 333 25 338 -12 q 347 139 328 63 l 384 296 l 384 296 q 282 159 342 231 q 54 -15 136 -15 m 132 82 q 294 221 188 82 q 366 326 336 276 q 409 427 387 360 q 444 556 431 494 l 448 575 l 448 575 q 391 593 416 587 q 326 603 354 603 q 212 541 252 603 q 127 293 172 479 q 110 204 116 243 q 104 138 104 165 q 111 96 104 111 q 132 82 118 82 z "},"b":{"ha":643,"x_min":52,"x_max":604,"o":"m 189 825 q 192 913 201 896 q 133 930 182 930 l 80 930 l 85 957 q 195 977 149 966 q 305 1015 241 990 l 326 997 l 216 464 l 216 464 q 286 543 248 505 q 532 669 414 669 q 585 636 567 669 q 604 541 604 602 l 604 536 q 599 460 604 503 q 585 371 594 418 q 433 106 558 228 q 193 -15 311 -15 q 84 23 127 -15 q 52 109 41 60 q 132 507 99 334 q 189 825 159 648 m 245 50 q 399 129 339 50 q 490 373 459 208 q 500 437 497 408 q 504 490 504 467 q 490 563 505 538 q 446 588 475 588 q 280 493 363 588 q 174 275 197 397 l 174 275 l 163 211 l 163 211 q 166 88 146 127 q 245 50 186 50 z "},"c":{"ha":566,"x_min":35,"x_max":538,"o":"m 491 132 q 337 18 402 51 q 199 -15 272 -15 q 78 38 121 -15 q 35 186 35 91 q 40 262 34 220 q 56 347 45 304 q 111 484 75 426 q 197 574 146 542 q 253 608 206 580 q 317 646 300 636 q 359 663 336 657 q 406 669 382 669 q 468 662 435 669 q 538 637 500 654 q 519 547 526 585 q 506 457 512 509 l 473 457 l 473 457 l 477 519 q 475 551 479 541 q 456 572 471 562 q 427 589 442 583 q 363 602 397 602 q 239 554 287 602 q 168 410 191 507 q 147 304 154 353 q 140 218 140 255 q 171 97 140 138 q 262 56 201 56 q 353 81 301 56 q 479 160 404 106 l 491 132 z "},"d":{"ha":694,"x_min":24,"x_max":682,"o":"m 87 -15 q 39 17 57 -15 q 24 103 24 47 l 24 108 q 32 211 24 151 q 56 341 41 271 q 107 470 71 406 q 187 571 144 534 q 231 604 195 578 q 277 636 266 629 q 332 662 307 654 q 387 669 356 669 q 475 659 435 669 l 500 651 l 500 651 l 533 825 q 538 913 547 896 q 477 930 529 930 l 425 930 l 431 957 q 546 977 498 966 q 662 1015 595 989 l 682 997 q 601 663 633 805 l 498 186 q 487 102 485 125 q 508 79 489 79 q 549 95 520 79 q 623 145 577 112 l 635 119 q 501 22 556 56 q 423 -12 446 -12 q 384 25 391 -12 q 395 139 377 63 l 431 283 l 428 284 q 425 285 425 285 q 307 126 375 202 q 87 -15 180 -15 m 338 603 q 225 549 264 603 q 153 347 186 495 q 131 232 138 282 q 123 150 123 182 q 131 99 123 117 q 155 82 139 82 q 330 204 223 82 l 373 258 q 425 348 404 296 q 466 491 446 400 l 484 571 l 484 571 q 422 591 462 581 q 338 603 374 603 z "},"e":{"ha":541,"x_min":21,"x_max":518,"o":"m 178 -15 q 62 34 104 -15 q 21 170 21 82 q 25 230 20 197 q 37 298 29 263 q 96 461 58 392 q 181 566 133 531 q 248 611 220 593 q 294 638 276 629 q 352 662 326 654 q 401 669 379 669 q 487 640 456 669 q 518 559 518 610 q 433 406 518 468 q 165 303 349 345 l 136 296 l 136 296 l 130 258 q 126 197 125 224 q 157 87 126 125 q 248 50 188 50 q 336 75 286 50 q 456 155 386 100 l 467 130 q 307 20 376 54 q 178 -15 239 -15 m 347 611 q 224 545 272 611 q 143 330 176 479 l 143 329 l 173 335 q 348 415 279 357 q 416 539 416 472 q 398 593 416 575 q 347 611 381 611 z "},"f":{"ha":386,"x_min":-224,"x_max":572,"o":"m 250 532 l 250 532 l 205 318 l 153 58 q 23 -254 119 -127 q -176 -381 -73 -381 q -200 -378 -186 -381 q -224 -372 -213 -376 q -203 -317 -210 -340 q -187 -263 -195 -294 l -168 -258 q -137 -286 -157 -276 q -92 -296 -117 -296 q -7 -226 -45 -296 q 56 -26 32 -156 l 80 108 l 153 532 l 153 532 l 39 532 l 45 562 l 165 606 l 165 606 l 190 753 q 307 923 204 827 q 475 1018 409 1018 q 522 1014 500 1018 q 572 998 544 1009 q 551 941 559 965 q 536 884 544 918 l 519 878 q 477 920 503 904 q 422 935 450 935 q 350 903 380 935 q 309 810 321 870 l 266 607 l 266 607 l 294 607 q 361 610 332 607 q 410 620 390 613 l 415 610 l 393 532 l 317 532 l 250 532 z "},"g":{"ha":694,"x_min":-51,"x_max":693,"o":"m 298 143 q 312 99 295 126 q 356 50 329 72 l 444 -19 q 517 -103 496 -60 q 531 -192 539 -146 q 420 -328 517 -272 q 196 -383 323 -383 q 7 -330 79 -383 q -51 -199 -64 -276 q 31 -65 -37 -121 q 220 26 98 -9 l 220 26 l 208 39 q 193 72 191 59 q 217 120 197 96 q 290 191 237 144 l 290 191 q 245 189 268 189 q 121 232 165 189 q 78 355 77 275 q 79 386 78 370 q 83 418 81 403 q 189 595 101 520 q 378 669 276 669 q 516 625 467 669 q 546 587 534 608 l 546 587 l 693 597 l 680 529 l 564 527 l 564 527 l 566 498 q 564 470 565 485 q 560 439 562 454 q 452 259 541 330 q 328 198 396 215 l 328 198 q 309 172 318 188 q 298 143 300 156 m 340 623 q 239 580 284 623 q 183 473 195 538 q 177 427 179 449 q 175 385 175 404 q 207 273 174 311 q 302 235 239 235 q 404 278 359 235 q 460 384 449 320 q 467 431 465 408 q 469 473 469 453 q 436 585 469 547 q 340 623 404 623 m 40 -178 q 83 -297 27 -249 q 233 -346 140 -346 q 373 -309 312 -346 q 443 -218 434 -272 q 427 -157 448 -190 q 358 -85 406 -123 l 271 -16 l 248 3 l 248 3 q 103 -65 154 -20 q 40 -178 52 -109 z "},"h":{"ha":694,"x_min":14,"x_max":653,"o":"m 14 0 q 96 342 66 198 q 189 824 140 553 q 193 912 202 895 q 133 929 184 929 l 80 929 l 86 956 q 193 977 149 965 q 302 1014 239 989 l 323 996 l 195 378 l 197 377 q 199 376 199 376 l 199 376 q 258 452 225 413 q 573 669 435 669 q 614 637 608 669 q 601 520 620 605 l 551 330 l 516 189 q 502 103 500 127 q 526 79 505 79 q 566 95 538 79 q 640 145 595 112 l 653 119 q 517 22 574 56 q 436 -12 460 -12 q 393 25 401 -12 q 406 139 386 63 l 426 215 q 486 452 454 323 q 498 547 500 519 q 476 574 496 574 q 259 408 387 574 l 241 385 q 188 287 212 345 q 151 168 164 229 l 117 9 l 117 9 q 69 1 90 5 q 22 -14 50 -4 l 14 0 z "},"i":{"ha":386,"x_min":47,"x_max":368,"o":"m 86 140 l 109 220 l 171 446 q 191 544 191 515 q 168 574 190 574 q 130 559 157 574 q 58 513 102 544 l 47 540 q 193 636 133 602 q 276 670 252 670 q 306 637 302 670 q 291 540 309 605 l 237 340 l 197 189 q 182 103 182 127 q 201 79 183 79 q 245 96 216 79 q 319 145 275 112 l 331 120 q 198 23 252 57 q 121 -12 143 -12 q 73 26 82 -12 l 70 51 q 86 140 70 85 m 323 989 q 363 967 350 989 q 368 915 376 945 q 334 862 359 884 q 282 840 309 840 q 243 862 256 840 q 239 915 230 884 q 272 967 247 945 q 323 989 297 989 z "},"j":{"ha":386,"x_min":-96,"x_max":368,"o":"m 186 444 q 202 553 203 532 q 184 574 202 574 q 142 558 171 574 q 67 513 113 543 l 56 540 q 203 636 142 602 q 290 670 264 670 q 314 637 311 670 q 302 540 317 605 q 216 148 252 319 l 194 38 q 92 -265 157 -147 q -37 -383 26 -383 q -68 -380 -52 -383 q -96 -373 -85 -378 l -96 -373 l -86 -294 q -47 -314 -65 -307 q -10 -321 -28 -321 q 26 -286 8 -321 q 56 -193 44 -252 l 92 -27 q 186 444 135 182 m 319 988 q 360 966 345 988 q 368 913 374 944 q 338 861 361 883 q 288 839 315 839 q 247 861 262 839 q 239 913 233 883 q 269 966 245 944 q 319 988 292 988 z "},"k":{"ha":616,"x_min":11,"x_max":625,"o":"m 11 0 q 96 342 66 198 q 186 825 139 553 q 189 913 198 896 q 130 930 180 930 l 77 930 l 83 957 q 190 977 144 966 q 298 1015 235 989 l 319 997 l 181 333 l 181 333 l 208 370 q 372 559 275 459 q 508 659 448 635 q 625 656 568 682 l 602 567 q 496 571 555 588 q 380 502 437 553 q 313 438 345 470 l 313 438 q 371 279 344 351 q 432 131 397 212 q 457 87 446 99 q 483 75 469 75 q 527 86 502 75 q 582 120 551 97 l 595 95 q 492 16 537 44 q 425 -12 448 -12 q 387 14 407 -12 q 345 91 367 39 l 303 192 q 243 363 275 264 l 243 363 q 202 313 222 340 q 175 268 187 294 q 158 221 162 241 l 114 9 l 114 9 q 66 1 86 5 q 18 -14 46 -4 l 11 0 z "},"l":{"ha":386,"x_min":50,"x_max":351,"o":"m 61 139 l 109 342 l 213 825 q 220 913 229 896 q 160 930 211 930 l 107 930 l 113 957 q 222 977 176 966 q 331 1015 268 989 l 351 997 l 170 188 q 159 103 157 127 q 180 79 161 79 q 221 95 193 79 q 295 145 250 112 l 308 119 q 172 22 229 56 q 91 -12 116 -12 q 50 26 58 -12 q 61 139 43 63 z "},"m":{"ha":1080,"x_min":33,"x_max":1027,"o":"m 66 0 l 120 222 l 170 452 q 180 546 183 518 q 157 574 178 574 q 116 559 144 574 q 45 513 88 544 l 33 540 q 173 636 115 602 q 255 670 231 670 q 287 637 281 670 q 277 540 293 605 l 241 389 l 242 388 q 245 387 245 387 l 245 387 q 298 459 269 422 q 593 669 462 669 q 633 640 627 669 q 622 534 640 611 l 589 390 q 591 389 589 390 l 593 388 q 642 452 615 420 q 956 669 817 669 q 995 637 989 669 l 996 623 q 981 522 996 589 l 930 338 l 890 189 q 875 103 873 127 q 900 79 877 79 q 939 95 911 79 q 1015 145 968 112 l 1027 119 q 889 22 946 56 q 809 -12 832 -12 q 765 25 772 -12 q 779 139 758 63 l 802 221 l 867 463 q 879 549 880 524 q 862 574 878 574 q 647 408 774 574 l 631 387 q 577 292 602 348 q 542 177 553 235 l 507 9 l 507 9 q 459 1 479 5 q 412 -14 439 -5 l 404 -1 q 456 221 436 127 l 512 475 q 521 552 524 530 q 498 574 518 574 q 302 414 418 574 l 299 410 q 243 304 267 361 q 209 200 219 248 l 170 9 l 170 9 q 122 1 142 5 q 75 -14 102 -4 l 66 0 z "},"n":{"ha":772,"x_min":33,"x_max":713,"o":"m 66 0 q 120 222 99 128 l 170 452 q 180 546 183 518 q 157 574 178 574 q 116 559 144 574 q 45 513 88 544 l 33 540 q 174 636 116 602 q 255 670 231 670 q 287 637 281 670 q 277 540 293 605 l 235 362 l 237 361 q 239 360 239 360 l 239 360 q 308 452 269 405 q 626 669 486 669 q 669 637 663 669 q 656 519 675 605 l 609 330 l 575 188 q 563 103 561 127 q 585 79 565 79 q 626 95 597 79 q 700 145 654 112 l 713 119 q 577 22 633 56 q 497 -12 522 -12 q 456 25 463 -12 q 468 139 448 63 l 487 214 l 545 460 q 556 549 559 524 q 532 574 553 574 q 313 408 442 574 l 294 383 q 240 288 264 345 q 204 174 216 232 l 170 9 l 170 9 q 122 1 142 5 q 75 -14 102 -4 l 66 0 z "},"o":{"ha":616,"x_min":24,"x_max":572,"o":"m 210 -15 q 72 41 121 -15 q 24 193 24 95 l 24 196 q 29 267 24 227 q 44 347 35 307 q 174 579 78 488 q 385 669 269 669 q 522 614 473 669 q 572 458 571 558 q 566 387 572 427 q 551 307 560 347 q 420 75 517 165 q 210 -15 326 -15 l 210 -15 m 260 37 q 370 90 330 37 q 441 270 411 142 q 461 368 454 322 q 467 450 467 414 q 434 575 467 532 q 334 617 400 617 q 224 564 266 617 q 153 384 184 512 q 134 286 141 332 q 128 204 127 240 q 162 80 128 122 q 260 37 195 37 l 260 37 z "},"p":{"ha":694,"x_min":-9,"x_max":646,"o":"m 139 448 q 149 550 151 526 q 129 574 147 574 q 88 559 116 574 q 18 513 60 544 l 5 540 q 146 636 87 602 q 234 670 206 670 q 255 637 252 670 q 247 540 258 605 l 222 400 l 222 400 q 317 528 260 466 q 566 669 447 669 q 625 629 603 669 q 646 519 646 589 q 643 465 646 496 q 635 405 640 434 q 577 236 621 323 q 487 113 534 150 q 403 50 441 75 q 335 12 366 25 q 281 -8 304 -1 q 241 -15 258 -15 q 182 -2 218 -15 q 160 5 171 3 l 160 5 l 97 -359 l 97 -359 q 49 -370 69 -365 q 2 -389 28 -377 l -9 -376 q 88 140 51 -77 l 139 448 m 296 50 q 443 142 378 50 q 534 391 507 234 q 543 451 541 424 q 546 500 546 478 q 534 566 546 543 q 499 588 523 588 q 313 471 413 588 q 275 420 292 446 q 225 323 243 376 q 191 184 206 270 l 174 83 l 174 83 q 229 59 199 68 q 296 50 259 50 z "},"q":{"ha":643,"x_min":33,"x_max":606,"o":"m 81 -15 q 46 13 58 -15 q 33 92 34 40 q 40 178 34 128 q 56 286 45 228 q 99 438 73 373 q 154 530 125 503 q 228 596 199 572 q 284 636 258 620 q 337 662 315 654 q 386 669 359 669 q 465 659 426 669 q 529 637 498 651 l 529 637 l 590 667 l 590 667 l 606 660 l 606 660 q 591 606 603 656 q 561 469 579 556 l 527 300 q 439 -186 486 87 q 422 -290 426 -260 q 418 -357 418 -320 q 351 -367 379 -361 q 286 -383 324 -372 l 277 -362 l 285 -355 q 315 -307 306 -334 q 342 -186 324 -280 l 431 287 l 431 287 q 319 142 391 219 q 81 -15 174 -15 m 349 603 q 229 538 273 603 q 156 321 185 473 q 140 221 145 264 q 134 146 134 177 q 141 98 134 115 q 161 82 148 82 q 332 205 224 82 q 397 287 370 248 q 440 374 423 324 q 473 508 458 424 l 484 563 l 484 563 q 419 590 463 577 q 349 603 376 603 z "},"r":{"ha":541,"x_min":36,"x_max":533,"o":"m 69 0 q 123 222 102 128 l 173 452 q 183 546 186 518 q 160 574 180 574 q 119 559 147 574 q 47 513 91 544 l 36 540 q 176 636 119 602 q 258 670 234 670 q 290 637 284 670 q 279 540 296 605 l 240 374 l 241 372 q 245 374 243 372 l 245 374 l 290 451 q 503 669 425 669 q 518 667 511 669 q 533 661 526 665 q 519 584 524 616 q 510 507 514 551 l 491 507 q 470 527 484 519 q 440 534 457 534 q 357 483 406 534 q 265 345 306 430 q 205 165 224 259 l 173 9 l 173 9 q 125 1 145 5 q 77 -14 105 -4 l 69 0 z "},"s":{"ha":541,"x_min":12,"x_max":479,"o":"m 421 475 l 421 475 l 421 552 q 369 598 401 582 q 294 614 336 614 q 195 583 233 614 q 149 496 156 551 q 172 419 141 445 q 284 383 203 393 q 429 331 385 370 q 465 248 466 299 q 464 224 466 237 q 357 59 451 134 q 164 -15 265 -15 q 83 -4 129 -15 q 12 20 37 6 q 31 113 24 74 q 44 206 39 153 l 77 206 l 77 206 l 77 91 q 133 55 95 69 q 210 41 170 41 q 321 76 281 41 q 372 182 362 111 q 345 258 379 233 q 222 296 311 284 q 95 351 133 307 q 66 439 66 385 l 69 474 q 166 604 78 538 q 333 669 255 669 q 409 660 371 669 q 479 634 447 651 q 463 555 468 589 q 454 475 458 522 l 421 475 z "},"t":{"ha":463,"x_min":57,"x_max":434,"o":"m 96 139 l 130 302 l 174 541 l 174 541 l 57 541 l 60 560 l 184 604 l 184 604 l 191 642 q 208 749 200 690 q 218 845 216 808 l 325 896 l 344 875 q 329 830 338 865 q 310 754 319 795 l 279 604 l 279 604 l 345 604 q 398 606 372 604 q 434 610 424 608 l 418 541 l 356 541 l 265 541 l 265 541 l 246 441 l 200 187 q 191 100 189 124 q 209 75 193 75 q 259 98 222 75 q 355 165 295 120 l 369 140 q 220 22 277 58 q 125 -12 164 -12 q 87 26 95 -12 q 96 139 80 63 z "},"u":{"ha":772,"x_min":45,"x_max":710,"o":"m 289 540 l 242 339 l 210 193 q 200 106 197 132 q 227 81 203 81 q 436 261 299 81 l 453 285 q 508 383 482 324 q 551 505 534 442 l 587 647 l 587 647 l 635 659 l 684 671 l 690 658 q 604 342 633 475 l 573 189 q 562 103 561 127 q 576 79 562 79 q 622 95 592 79 q 697 145 652 112 l 710 119 q 574 22 631 56 q 493 -12 518 -12 q 450 25 458 -12 q 463 139 443 63 l 506 309 q 505 310 506 309 l 505 310 l 503 311 q 433 215 473 266 q 141 -16 254 -16 q 95 31 100 -16 l 94 46 q 118 201 94 96 l 123 222 l 172 444 q 185 544 186 514 q 170 574 185 574 q 128 559 156 574 q 56 513 100 544 l 45 540 q 185 636 127 602 q 267 670 243 670 q 300 637 294 670 q 289 540 305 605 z "},"v":{"ha":694,"x_min":29,"x_max":661,"o":"m 104 172 q 165 386 104 281 q 321 591 212 469 q 262 585 295 585 l 229 585 l 178 586 q 113 577 135 587 q 81 543 92 568 l 59 489 l 29 489 l 55 570 l 81 652 l 81 652 q 104 659 87 656 q 137 661 120 661 q 173 659 144 661 q 235 654 201 657 q 263 653 240 653 q 303 652 286 652 q 351 657 328 652 q 382 670 374 663 l 395 645 q 250 411 296 517 q 204 205 204 305 q 234 95 204 134 q 318 55 264 55 q 491 195 410 55 q 573 491 573 334 l 573 494 q 494 570 573 587 l 473 564 l 462 583 l 543 664 q 627 645 593 682 q 661 537 661 608 q 525 173 661 361 q 260 -15 389 -15 q 147 37 190 -15 q 104 172 104 88 z "},"w":{"ha":1003,"x_min":29,"x_max":970,"o":"m 102 185 q 159 386 102 286 q 318 593 207 468 q 269 585 294 585 l 218 585 l 169 586 q 114 577 134 587 q 84 547 94 568 l 60 490 l 29 490 l 55 571 l 81 652 l 81 652 q 105 659 88 656 q 140 661 122 661 q 172 659 148 661 q 225 654 197 657 q 254 653 231 653 q 306 652 277 652 q 351 657 329 652 q 380 669 372 662 l 393 646 q 245 415 288 519 q 203 184 203 312 q 223 91 203 126 q 276 55 243 55 q 452 252 365 55 q 471 298 471 292 q 489 353 482 332 q 499 393 495 374 l 528 525 q 542 594 536 562 q 547 636 547 627 l 648 665 l 662 652 q 634 570 652 635 q 598 427 616 505 l 581 347 q 565 263 569 296 q 560 197 560 229 q 579 92 560 131 q 632 54 599 54 q 800 192 719 54 q 880 479 880 330 l 880 475 q 842 570 880 557 q 783 564 820 578 l 769 583 l 831 645 q 925 656 881 692 q 970 534 970 621 q 834 174 970 363 q 577 -15 699 -15 q 495 35 523 -15 q 467 181 467 85 l 468 216 l 468 216 l 457 195 q 214 -15 346 -15 q 132 39 163 -15 q 102 185 102 93 z "},"x":{"ha":694,"x_min":12,"x_max":671,"o":"m 113 75 q 165 98 134 75 q 218 154 195 121 l 311 294 l 311 294 l 281 463 q 251 548 271 519 q 202 578 231 578 q 154 559 180 578 q 100 509 127 541 l 78 525 l 161 642 l 161 642 q 193 662 170 654 q 241 669 215 669 q 332 622 300 669 q 376 463 363 574 l 381 409 l 381 409 l 381 409 l 416 463 q 539 625 493 581 q 631 669 586 669 q 652 666 642 669 q 671 655 662 662 l 671 655 l 650 535 l 629 529 q 612 555 624 546 q 582 564 601 564 q 520 540 551 564 q 454 463 491 516 l 390 368 l 390 368 l 430 178 q 458 96 443 119 q 502 73 473 73 q 545 87 521 73 q 608 137 569 102 l 621 111 q 514 19 562 52 q 436 -14 466 -14 q 380 23 404 -14 q 340 137 356 61 l 319 248 l 319 248 l 319 248 l 257 154 q 152 18 187 50 q 71 -14 117 -14 q 43 -9 57 -14 q 12 3 28 -5 q 24 64 20 39 q 30 123 28 89 l 58 129 q 75 86 63 98 q 113 75 87 75 z "},"y":{"ha":694,"x_min":-10,"x_max":687,"o":"m 71 -206 q 83 -292 60 -259 q 154 -326 106 -326 q 277 -252 222 -326 q 377 -26 332 -178 l 422 130 l 456 245 q 454 246 456 245 l 452 247 l 410 191 q 190 -16 256 -16 q 130 37 148 -16 q 127 163 120 65 l 143 334 l 150 417 q 153 533 157 498 q 135 568 150 568 q 89 553 117 568 q 20 508 60 538 l 7 534 q 144 634 87 599 q 224 670 201 670 q 253 628 245 670 q 253 501 260 586 l 247 435 q 229 183 237 321 q 232 117 225 141 q 256 92 239 92 q 386 201 296 92 q 461 319 427 250 q 514 457 495 388 l 564 644 l 687 676 q 566 307 612 462 l 491 56 q 323 -256 436 -128 q 103 -383 211 -383 q 14 -341 49 -383 q -10 -249 -21 -300 l 58 -201 l 71 -206 z "},"z":{"ha":616,"x_min":-1,"x_max":578,"o":"m -1 28 l 488 584 l 488 584 l 458 571 q 349 553 410 553 q 307 556 333 553 q 260 564 281 559 q 219 571 241 568 q 185 574 197 574 l 181 574 q 153 571 168 574 q 129 564 138 568 l 88 486 l 59 486 q 82 570 73 534 q 101 654 91 606 l 101 654 q 143 665 119 661 q 186 669 168 669 q 233 664 206 669 q 301 646 259 659 q 394 626 341 634 q 482 618 447 618 q 522 629 504 618 q 564 669 539 640 l 578 656 l 570 614 l 102 83 l 102 83 l 109 85 q 232 112 176 112 q 271 109 250 112 q 332 98 291 106 q 416 82 392 86 l 432 79 q 475 85 458 75 q 500 119 492 94 l 528 198 l 559 198 q 536 98 546 140 q 518 -3 527 56 l 518 -3 q 483 -12 502 -8 q 452 -16 463 -16 q 391 -11 422 -16 q 296 9 359 -5 q 192 32 224 26 q 138 37 160 37 q 68 24 105 37 q 12 -7 31 12 l -1 28 z "},"{":{"ha":463,"x_min":21,"x_max":445,"o":"m 243 -141 q 82 -100 123 -137 q 54 26 41 -64 l 99 281 q 95 392 111 359 q 21 439 79 425 l 22 440 q 111 487 83 454 q 154 598 139 520 l 199 853 q 270 979 216 943 q 445 1020 324 1016 l 444 1014 q 349 967 387 1012 q 295 838 311 922 l 251 583 q 193 475 236 506 q 113 439 168 456 l 113 439 q 180 404 161 423 q 201 296 212 373 l 156 41 q 165 -88 143 -43 q 244 -135 188 -133 l 243 -141 z "},"|":{"ha":842,"x_min":382,"x_max":462,"o":"m 382 -347 l 382 1042 l 462 1042 l 462 -347 l 382 -347 z "},"}":{"ha":463,"x_min":20,"x_max":443,"o":"m 20 -141 l 21 -135 q 115 -88 77 -133 q 169 41 153 -43 l 214 296 q 272 404 228 373 q 352 439 297 423 l 352 439 q 284 475 302 456 q 264 583 252 506 l 308 838 q 299 967 321 922 q 220 1014 277 1012 l 222 1020 q 382 979 341 1016 q 410 853 424 943 l 365 598 q 369 487 353 520 q 443 440 385 454 l 442 439 q 352 392 380 425 q 310 281 325 359 l 265 26 q 195 -100 249 -64 q 20 -141 140 -137 z "},"~":{"ha":842,"x_min":71,"x_max":770,"o":"m 71 290 q 164 411 115 372 q 269 450 212 450 q 346 435 295 450 q 446 395 396 419 q 522 363 487 376 q 574 351 557 351 q 654 380 617 351 q 723 471 690 410 l 770 414 q 680 301 728 338 q 574 264 631 264 q 503 280 553 264 q 398 322 452 297 q 322 351 359 340 q 266 361 286 361 q 191 332 225 361 q 118 234 157 303 l 71 290 z "}," ":{"ha":347,"x_min":0,"x_max":0,"o":""},"¡":{"ha":463,"x_min":21,"x_max":322,"o":"m 246 369 l 151 -350 l 40 -380 l 21 -380 l 203 352 l 228 369 l 246 369 m 240 488 q 193 512 211 488 q 178 570 174 536 q 207 627 182 603 q 260 650 231 650 q 308 627 290 650 q 322 570 326 603 q 293 512 318 536 q 240 488 269 488 z "},"¢":{"ha":694,"x_min":78,"x_max":583,"o":"m 475 765 l 524 765 l 486 666 l 527 660 q 583 637 561 652 q 564 549 570 586 q 552 460 558 511 l 519 460 l 519 460 l 520 549 q 480 587 507 574 l 459 595 l 258 60 q 288 55 273 55 q 393 76 345 55 q 528 157 441 96 l 537 133 q 381 16 444 47 q 245 -15 320 -15 l 231 -15 l 186 -133 l 138 -133 l 186 -7 q 121 36 147 7 q 78 178 78 86 q 80 217 78 196 q 85 257 81 237 q 146 471 107 399 q 271 595 185 542 q 305 616 275 599 q 338 634 335 633 q 402 661 382 654 q 438 667 422 667 l 475 765 m 220 87 l 412 600 q 265 532 312 600 q 189 279 218 465 l 189 279 l 184 244 q 182 212 182 226 q 212 98 183 142 l 220 87 l 220 87 z "},"£":{"ha":694,"x_min":3,"x_max":663,"o":"m 612 3 q 578 -13 603 -6 q 529 -19 554 -19 q 470 -13 508 -19 q 341 14 431 -6 q 235 34 271 28 q 165 39 199 39 q 136 36 151 39 q 52 -69 94 -39 l 3 37 q 58 64 28 52 q 100 115 83 87 q 151 269 133 168 l 182 448 l 50 448 l 58 496 l 190 496 l 210 609 q 333 869 235 754 q 530 983 431 983 q 601 973 565 983 q 663 945 636 962 q 641 838 648 882 q 632 729 634 791 l 600 729 l 600 729 l 600 791 q 596 820 600 808 q 581 839 591 831 q 547 861 567 852 q 469 876 513 876 q 392 851 422 876 q 352 782 361 827 l 291 496 l 486 496 l 478 448 l 281 448 q 176 120 239 262 l 168 100 q 238 110 209 110 q 298 106 271 110 q 372 94 326 103 q 452 80 418 83 l 494 77 q 567 84 550 75 q 600 136 585 94 l 627 213 l 661 213 l 637 108 l 612 3 l 612 3 z "},"¤":{"ha":694,"x_min":20,"x_max":679,"o":"m 602 482 q 529 659 602 587 q 349 731 456 731 q 170 659 243 731 q 96 482 96 587 q 170 306 96 378 q 349 233 243 233 q 529 306 456 233 q 602 482 602 378 m 349 163 q 140 236 227 164 l 140 236 l 64 164 l 20 209 l 96 282 l 96 282 q 26 482 26 366 q 95 683 27 597 l 95 683 l 20 755 l 64 800 l 139 728 l 139 728 q 349 802 228 801 q 558 727 471 802 l 558 727 l 634 800 l 679 755 l 603 682 l 603 682 q 672 482 672 598 q 603 282 673 368 l 603 282 l 679 209 l 634 164 l 559 236 l 559 236 q 349 163 471 163 z "},"¥":{"ha":694,"x_min":49,"x_max":707,"o":"m 160 428 l 168 475 l 278 475 l 278 475 l 256 580 q 217 720 240 646 q 152 854 185 821 q 66 868 119 886 l 54 863 l 49 895 l 83 930 l 119 966 q 215 927 176 966 q 280 806 254 889 q 323 648 307 721 q 363 425 345 551 l 363 425 q 422 580 392 509 l 469 680 q 586 877 525 806 q 707 959 646 948 l 699 861 q 618 815 657 856 q 522 675 579 774 q 459 551 486 610 l 427 475 l 427 475 l 565 475 l 557 428 l 409 428 l 409 428 l 401 406 q 395 376 398 394 l 387 327 l 387 327 l 539 327 l 530 279 l 378 279 l 378 279 l 353 140 q 350 56 342 73 q 403 37 358 39 l 451 35 l 445 -4 q 294 0 358 0 q 142 -4 231 0 l 148 35 l 189 37 q 238 56 227 39 q 261 140 250 73 l 286 279 l 286 279 l 134 279 l 142 327 l 294 327 l 294 327 l 296 336 q 298 356 298 347 q 296 374 298 364 l 287 428 l 287 428 l 160 428 z "},"¦":{"ha":842,"x_min":382,"x_max":462,"o":"m 382 -232 l 382 231 l 462 231 l 462 -232 l 382 -232 m 382 463 l 382 926 l 462 926 l 462 463 l 382 463 z "},"§":{"ha":694,"x_min":20,"x_max":648,"o":"m 465 981 q 555 967 508 981 q 648 926 602 953 q 623 836 631 873 q 607 744 614 797 l 569 744 l 569 744 l 574 861 q 510 904 551 889 q 416 918 469 918 q 304 881 351 918 q 243 780 258 844 q 272 670 229 716 q 454 550 314 623 q 595 442 557 496 q 618 319 633 389 q 524 170 599 234 q 468 132 496 146 q 511 85 495 109 q 537 -55 555 24 q 419 -230 515 -155 q 217 -304 323 -304 q 117 -287 168 -304 q 20 -237 66 -269 q 46 -141 37 -181 q 63 -44 55 -100 l 101 -44 l 101 -44 l 95 -161 q 166 -221 122 -200 q 265 -242 210 -242 q 392 -202 339 -242 q 460 -93 444 -161 q 435 20 475 -26 q 262 136 395 66 q 100 257 144 198 q 73 389 56 315 q 165 534 92 472 q 225 573 195 558 q 192 610 205 593 q 168 738 151 666 q 279 908 189 835 q 465 981 368 981 m 529 278 q 505 386 543 342 q 342 496 467 430 q 254 550 291 524 q 213 525 233 541 q 159 429 172 490 q 183 321 144 366 q 352 208 222 276 q 439 154 402 180 q 474 178 458 164 q 529 278 515 215 z "},"¨":{"ha":463,"x_min":109,"x_max":525,"o":"m 178 913 q 227 892 206 913 q 247 844 247 872 q 227 795 247 816 q 178 775 206 775 q 129 795 149 775 q 109 844 109 816 q 129 892 109 872 q 178 913 149 913 m 456 913 q 505 892 484 913 q 525 844 525 872 q 505 795 525 816 q 456 775 484 775 q 407 795 427 775 q 387 844 387 816 q 407 892 387 872 q 456 913 427 913 z "},"©":{"ha":1038,"x_min":16,"x_max":1023,"o":"m 519 981 q 874 833 726 981 q 1023 478 1023 684 q 875 123 1023 272 q 519 -25 726 -25 q 164 123 313 -25 q 16 478 16 272 q 164 833 16 684 q 519 981 313 981 l 519 981 m 961 478 q 831 789 961 659 q 519 919 701 919 q 208 789 338 919 q 78 478 78 659 q 208 167 78 297 q 519 37 338 37 q 831 167 701 37 q 961 478 961 297 l 961 478 m 747 324 q 656 223 716 259 q 516 188 595 188 q 322 269 396 188 q 248 481 248 349 q 329 680 248 600 q 532 760 410 760 q 621 752 573 760 q 732 726 669 743 l 732 726 l 732 576 l 698 576 l 698 576 l 693 614 q 641 701 675 677 q 537 725 607 725 q 397 657 452 725 q 342 483 342 589 q 401 304 342 378 q 543 231 459 231 q 644 254 606 231 q 718 336 682 277 l 747 324 z "},"ª":{"ha":463,"x_min":83,"x_max":447,"o":"m 113 560 q 92 579 100 560 q 83 628 83 598 q 89 682 83 649 q 101 745 94 714 q 137 851 119 814 q 181 909 155 888 q 215 935 197 923 q 244 951 232 946 q 286 967 268 963 q 325 971 303 971 q 366 966 342 971 q 401 956 385 962 l 401 956 l 433 971 l 433 971 l 444 964 l 395 783 l 373 697 q 362 636 361 651 q 378 621 363 621 q 402 630 387 621 q 439 659 418 640 l 447 644 q 366 583 402 605 q 313 562 332 562 q 292 582 296 562 q 296 642 288 602 l 316 730 q 313 732 316 730 q 311 733 311 733 q 262 671 291 705 q 113 560 168 560 m 165 621 q 269 705 197 621 l 270 706 q 312 773 290 730 q 345 857 334 817 l 362 916 l 362 916 l 332 925 q 288 930 309 930 q 218 898 245 930 q 172 787 192 865 q 154 707 160 740 q 148 654 148 675 q 153 629 149 637 q 165 621 156 621 z "},"«":{"ha":694,"x_min":79,"x_max":608,"o":"m 377 588 l 184 357 l 184 357 l 320 113 l 292 96 l 79 350 l 79 359 l 79 370 l 353 610 l 377 588 m 608 588 l 415 357 l 415 357 l 551 113 l 523 96 l 310 350 l 310 359 l 310 370 l 583 610 l 608 588 z "},"¬":{"ha":842,"x_min":71,"x_max":772,"o":"m 694 446 l 71 446 l 71 524 l 772 524 l 772 161 l 694 161 l 694 446 z "},"­":{"ha":463,"x_min":26,"x_max":422,"o":"m 52 390 l 422 390 l 397 310 l 26 310 l 52 390 z "},"®":{"ha":1038,"x_min":16,"x_max":1023,"o":"m 519 981 q 874 833 726 981 q 1023 478 1023 684 q 875 123 1023 272 q 519 -25 726 -25 q 164 123 313 -25 q 16 478 16 272 q 164 833 16 684 q 519 981 313 981 l 519 981 m 961 478 q 831 789 961 659 q 519 919 701 919 q 208 789 338 919 q 78 478 78 659 q 208 167 78 297 q 519 37 338 37 q 831 167 701 37 q 961 478 961 297 l 961 478 m 338 300 l 338 687 q 332 736 338 726 q 299 746 326 745 l 271 747 l 271 769 l 376 769 l 376 769 l 501 769 q 651 735 601 769 q 702 633 702 701 q 642 519 702 559 q 544 484 606 495 l 544 484 q 597 460 570 484 q 644 393 623 436 l 691 292 q 716 255 703 267 q 745 241 729 243 l 768 239 l 768 218 l 722 218 q 650 232 674 218 q 609 285 626 247 l 562 393 q 523 456 542 439 q 467 472 503 472 l 414 472 l 414 472 l 414 300 q 421 251 414 260 q 457 241 428 241 l 488 239 l 488 218 l 380 218 l 273 218 l 273 239 l 300 241 q 332 251 326 241 q 338 300 338 260 m 414 500 l 414 500 l 461 500 q 583 531 542 500 q 624 624 624 562 q 589 713 624 683 q 484 743 553 743 l 460 743 q 424 733 433 743 q 414 697 414 724 l 414 500 z "},"¯":{"ha":694,"x_min":0,"x_max":694,"o":"m 0 1060 l 0 1129 l 694 1129 l 694 1060 l 0 1060 z "},"°":{"ha":555,"x_min":125,"x_max":543,"o":"m 334 958 q 483 898 422 958 q 543 749 543 837 q 483 601 543 661 q 334 540 422 540 q 185 601 246 540 q 125 749 125 661 q 185 898 125 837 q 334 958 246 958 m 487 749 q 443 857 487 813 q 334 901 398 901 q 225 857 269 901 q 181 749 181 813 q 225 641 181 685 q 334 597 269 597 q 443 641 398 597 q 487 749 487 685 z "},"±":{"ha":842,"x_min":71,"x_max":772,"o":"m 382 387 l 71 387 l 71 465 l 382 465 l 382 703 l 460 703 l 460 465 l 772 465 l 772 387 l 460 387 l 460 149 l 382 149 l 382 387 m 71 75 l 772 75 l 772 -3 l 71 -3 l 71 75 z "},"²":{"ha":416,"x_min":18,"x_max":403,"o":"m 403 830 l 403 826 q 368 722 403 770 q 185 530 332 672 l 98 446 l 98 446 l 251 446 q 339 449 297 446 q 395 456 380 452 l 399 450 l 383 385 q 362 388 378 387 q 326 389 346 389 l 18 389 l 21 404 l 24 419 l 157 555 q 276 703 236 637 q 315 819 315 768 q 291 883 316 859 q 223 906 266 906 q 155 884 186 906 q 101 820 123 861 l 77 835 l 130 932 q 188 962 161 954 q 249 970 215 970 q 362 933 321 970 q 403 830 403 896 z "},"³":{"ha":416,"x_min":39,"x_max":420,"o":"m 335 844 q 312 895 335 876 q 252 913 290 913 q 191 898 215 913 q 141 841 168 882 l 119 857 l 172 945 l 172 945 q 224 964 195 957 q 278 970 253 970 q 378 940 341 970 q 414 859 414 909 l 414 857 q 351 754 414 805 q 283 715 317 727 l 283 715 q 372 681 338 707 q 420 585 420 646 q 347 440 419 500 q 174 379 274 379 q 104 388 138 379 q 39 414 71 397 l 39 414 l 64 536 l 94 532 q 107 444 81 473 q 201 416 134 416 q 296 464 256 416 q 336 578 336 512 q 305 655 336 628 q 247 680 283 675 q 201 680 228 683 q 153 669 174 677 l 148 686 l 164 728 q 193 726 174 726 q 232 728 213 726 q 299 762 269 733 q 335 844 335 798 z "},"´":{"ha":463,"x_min":170,"x_max":481,"o":"m 170 749 l 170 749 l 389 963 l 395 969 q 435 983 414 984 q 469 967 455 983 q 481 938 481 954 l 480 932 q 458 899 477 913 l 450 894 l 216 749 l 216 749 l 170 749 z "},"µ":{"ha":772,"x_min":21,"x_max":715,"o":"m 290 539 l 208 146 q 204 97 201 113 q 222 81 208 81 q 361 174 275 81 q 529 412 447 267 l 529 412 l 581 644 l 581 644 l 627 656 l 673 667 l 682 654 l 568 149 q 562 94 559 109 q 580 78 565 78 q 626 95 596 78 q 702 144 656 111 l 715 119 q 578 21 635 56 q 498 -13 522 -13 q 456 15 466 -13 q 459 99 447 43 l 507 310 q 505 310 507 310 l 505 310 l 502 311 q 345 112 431 203 q 159 -16 225 -16 q 133 -11 144 -16 l 133 -11 q 126 -132 130 -43 q 117 -271 121 -257 l 35 -315 l 35 -315 l 21 -303 l 92 40 l 177 446 q 189 544 191 515 q 167 573 186 573 q 129 558 156 573 q 59 513 103 543 l 48 539 q 188 635 130 602 q 269 669 245 669 q 298 637 293 669 q 290 539 304 604 z "},"¶":{"ha":694,"x_min":46,"x_max":848,"o":"m 338 350 l 338 350 q 133 466 220 352 q 46 736 46 581 q 110 900 46 842 q 290 957 174 957 l 848 957 l 841 920 l 778 920 q 736 903 755 920 q 713 864 717 887 l 526 -211 q 535 -251 522 -235 q 572 -267 549 -267 l 635 -267 l 628 -306 l 106 -306 l 113 -267 l 175 -267 q 218 -251 199 -267 q 241 -211 237 -235 l 338 350 m 627 916 l 627 916 l 532 916 l 532 916 l 328 -264 l 328 -264 l 422 -264 l 422 -264 l 627 916 m 202 728 q 240 486 201 570 q 347 401 279 401 l 347 401 l 437 916 l 437 916 q 254 875 305 916 q 202 728 202 833 z "},"·":{"ha":347,"x_min":74,"x_max":218,"o":"m 165 559 q 210 535 195 559 q 218 478 226 511 q 182 421 210 445 q 126 397 155 397 q 81 421 97 397 q 74 478 66 445 q 109 535 82 511 q 165 559 136 559 z "},"¸":{"ha":463,"x_min":-12,"x_max":279,"o":"m 195 1 l 134 -89 l 134 -89 q 164 -86 149 -86 q 257 -119 227 -86 q 279 -208 288 -152 q 224 -275 271 -250 q 103 -300 176 -300 q 57 -294 81 -300 q -12 -272 33 -288 l 11 -231 q 68 -246 43 -241 q 109 -251 93 -251 q 157 -236 139 -251 q 180 -195 176 -222 q 167 -153 185 -170 q 119 -136 149 -136 q 93 -138 106 -136 q 69 -144 79 -140 l 58 -133 l 143 1 l 195 1 z "},"¹":{"ha":416,"x_min":85,"x_max":395,"o":"m 205 489 l 277 899 l 277 899 l 239 885 q 113 834 186 865 l 125 899 q 241 933 192 917 q 357 975 290 949 l 361 975 l 372 960 l 372 960 l 289 489 q 291 437 282 448 q 347 424 300 427 l 395 420 l 389 386 q 237 389 301 389 q 85 386 173 389 l 91 420 l 135 425 q 187 437 176 427 q 205 489 199 448 z "},"º":{"ha":463,"x_min":92,"x_max":447,"o":"m 216 560 q 124 594 157 560 q 92 690 92 629 l 92 692 q 95 732 92 710 q 103 779 98 755 q 184 917 123 863 q 321 971 245 971 q 415 940 384 971 q 447 847 447 909 q 444 803 447 827 q 434 751 440 779 q 349 618 416 675 q 216 560 284 560 l 216 560 m 246 593 q 319 627 288 593 q 365 727 349 661 q 376 784 372 758 q 380 832 379 810 q 357 911 380 884 q 290 939 334 939 q 217 906 245 939 q 172 803 189 873 q 162 751 165 777 q 159 705 159 725 q 181 622 159 651 q 246 593 204 593 l 246 593 z "},"»":{"ha":694,"x_min":87,"x_max":616,"o":"m 87 114 l 280 345 l 280 345 l 144 589 l 172 606 l 385 352 l 385 342 l 385 332 l 112 92 l 87 114 m 318 114 l 511 345 l 511 345 l 375 589 l 403 606 l 616 352 l 616 342 l 616 332 l 342 92 l 318 114 z "},"∕":{"ha":232,"x_min":-235,"x_max":469,"o":"m 469 971 l -155 1 l -235 1 l 389 971 l 469 971 z "},"¼":{"ha":1042,"x_min":43,"x_max":1002,"o":"m 915 971 l 291 1 l 211 1 l 835 971 l 915 971 m 163 489 l 235 899 l 235 899 l 197 885 q 71 834 144 865 l 83 899 q 199 933 150 917 q 315 975 248 949 l 319 975 l 330 960 l 330 960 l 247 489 q 249 437 240 448 q 304 424 258 427 l 353 420 l 347 386 q 195 389 259 389 q 43 386 131 389 l 49 420 l 93 425 q 145 437 134 427 q 163 489 157 448 m 804 160 l 573 160 l 577 180 l 582 201 q 726 390 664 312 q 878 575 788 469 l 953 590 l 964 583 l 888 210 l 888 210 l 949 210 l 999 210 l 1002 206 l 985 155 q 949 158 978 157 q 886 160 920 160 l 877 160 l 877 160 l 865 103 q 865 51 857 62 q 916 38 873 41 l 961 35 l 954 0 q 812 3 872 3 q 671 0 753 3 l 678 35 l 721 38 q 772 52 761 41 q 792 103 783 62 l 804 160 l 804 160 m 814 210 l 814 210 l 881 532 l 881 532 l 881 532 l 767 391 q 628 210 707 315 l 628 210 l 814 210 z "},"½":{"ha":1042,"x_min":43,"x_max":1002,"o":"m 887 971 l 263 1 l 183 1 l 807 971 l 887 971 m 163 489 l 235 899 l 235 899 l 197 885 q 71 834 144 865 l 83 899 q 199 933 150 917 q 315 975 248 949 l 319 975 l 330 960 l 330 960 l 247 489 q 249 437 240 448 q 304 424 258 427 l 353 420 l 347 386 q 195 389 259 389 q 43 386 131 389 l 49 420 l 93 425 q 145 437 134 427 q 163 489 157 448 m 1002 445 l 1002 441 q 966 336 1002 385 q 784 144 930 287 l 697 60 l 697 60 l 850 60 q 938 63 896 60 q 994 71 979 66 l 998 64 l 982 0 q 961 2 977 1 q 925 3 945 3 l 617 3 l 620 18 l 623 34 l 755 170 q 875 317 835 252 q 914 434 914 383 q 890 497 915 474 q 822 521 865 521 q 754 498 785 521 q 700 435 722 476 l 675 450 l 728 547 q 787 577 760 568 q 848 585 814 585 q 961 548 920 585 q 1002 445 1002 511 z "},"¾":{"ha":1042,"x_min":49,"x_max":1002,"o":"m 917 971 l 293 1 l 213 1 l 837 971 l 917 971 m 345 844 q 322 895 345 876 q 262 913 300 913 q 201 898 225 913 q 151 841 178 882 l 130 857 l 182 945 l 182 945 q 234 964 205 957 q 288 970 263 970 q 388 940 351 970 q 425 859 425 909 l 425 857 q 361 754 425 805 q 293 715 328 727 l 293 715 q 382 681 348 707 q 430 585 430 646 q 357 440 429 500 q 184 379 284 379 q 114 388 148 379 q 49 414 81 397 l 49 414 l 74 536 l 104 532 q 118 444 92 473 q 211 416 144 416 q 306 464 266 416 q 346 578 346 512 q 315 655 346 628 q 257 680 293 675 q 211 680 238 683 q 163 669 184 677 l 158 686 l 174 728 q 203 726 184 726 q 242 728 223 726 q 309 762 279 733 q 345 844 345 798 m 804 160 l 573 160 l 577 180 l 582 201 q 726 390 664 312 q 878 575 788 469 l 953 590 l 964 583 l 888 210 l 888 210 l 949 210 l 999 210 l 1002 206 l 985 155 q 949 158 978 157 q 886 160 920 160 l 877 160 l 877 160 l 865 103 q 865 51 857 62 q 916 38 873 41 l 961 35 l 954 0 q 812 3 872 3 q 671 0 753 3 l 678 35 l 721 38 q 772 52 761 41 q 792 103 783 62 l 804 160 l 804 160 m 814 210 l 814 210 l 881 532 l 881 532 l 881 532 l 767 391 q 628 210 707 315 l 628 210 l 814 210 z "},"¿":{"ha":694,"x_min":79,"x_max":515,"o":"m 321 -258 q 375 -252 352 -258 q 420 -233 399 -246 l 484 -146 l 484 -146 l 515 -153 l 459 -290 l 459 -290 q 373 -329 412 -316 q 302 -342 334 -342 q 129 -280 193 -342 q 79 -129 64 -218 q 117 -35 90 -73 q 248 104 145 4 q 349 211 306 161 q 394 273 392 260 q 391 321 399 300 q 361 359 382 341 l 356 362 l 387 372 q 435 327 420 357 q 444 258 451 297 q 412 181 437 221 q 332 82 387 140 q 230 -39 258 3 q 195 -115 201 -81 q 221 -216 184 -175 q 321 -258 257 -258 m 427 488 q 380 512 397 488 q 369 570 363 536 q 400 627 375 603 q 455 650 426 650 q 502 627 484 650 q 513 570 519 603 q 481 512 507 536 q 427 488 456 488 z "},"À":{"ha":1003,"x_min":-26,"x_max":941,"o":"m 131 161 l 645 979 l 677 979 l 709 979 l 822 119 q 843 58 828 74 q 896 39 857 42 l 941 35 l 935 -4 q 765 0 837 0 q 593 -4 693 0 l 599 35 l 641 37 q 701 61 688 40 q 707 140 714 81 l 677 385 l 677 385 l 349 385 l 349 385 l 208 155 q 179 65 169 92 q 252 36 189 38 l 290 35 l 284 -4 q 130 0 195 0 q -26 -4 65 0 l -20 35 l 7 38 q 60 65 37 41 q 131 161 84 88 m 623 836 l 379 436 l 379 436 l 672 436 l 672 436 l 623 836 l 623 836 l 623 836 m 765 1012 l 765 1012 l 531 1155 l 524 1160 q 502 1194 505 1175 l 501 1200 q 513 1228 502 1215 q 548 1245 528 1244 q 587 1231 568 1246 l 594 1225 l 811 1012 l 811 1012 l 765 1012 z "},"Á":{"ha":1003,"x_min":-26,"x_max":941,"o":"m 131 161 l 645 979 l 677 979 l 709 979 l 822 119 q 843 58 828 74 q 896 39 857 42 l 941 35 l 935 -4 q 765 0 837 0 q 593 -4 693 0 l 599 35 l 641 37 q 701 61 688 40 q 707 140 714 81 l 677 385 l 677 385 l 349 385 l 349 385 l 208 155 q 179 65 169 92 q 252 36 189 38 l 290 35 l 284 -4 q 130 0 195 0 q -26 -4 65 0 l -20 35 l 7 38 q 60 65 37 41 q 131 161 84 88 m 623 836 l 379 436 l 379 436 l 672 436 l 672 436 l 623 836 l 623 836 l 623 836 m 587 1012 l 587 1012 l 806 1226 l 812 1232 q 852 1246 832 1247 q 886 1230 872 1246 q 899 1201 899 1217 l 898 1196 q 876 1162 895 1177 l 868 1157 l 634 1012 l 634 1012 l 587 1012 z "},"Â":{"ha":1003,"x_min":-26,"x_max":941,"o":"m 131 161 l 645 979 l 677 979 l 709 979 l 822 119 q 843 58 828 74 q 896 39 857 42 l 941 35 l 935 -4 q 765 0 837 0 q 593 -4 693 0 l 599 35 l 641 37 q 701 61 688 40 q 707 140 714 81 l 677 385 l 677 385 l 349 385 l 349 385 l 208 155 q 179 65 169 92 q 252 36 189 38 l 290 35 l 284 -4 q 130 0 195 0 q -26 -4 65 0 l -20 35 l 7 38 q 60 65 37 41 q 131 161 84 88 m 623 836 l 379 436 l 379 436 l 672 436 l 672 436 l 623 836 l 623 836 l 623 836 m 763 1234 l 886 1000 l 837 1000 l 721 1144 l 721 1144 l 531 1000 l 476 1000 l 695 1234 l 729 1234 l 763 1234 z "},"Ã":{"ha":1003,"x_min":-26,"x_max":941,"o":"m 131 161 l 645 979 l 677 979 l 709 979 l 822 119 q 843 58 828 74 q 896 39 857 42 l 941 35 l 935 -4 q 765 0 837 0 q 593 -4 693 0 l 599 35 l 641 37 q 701 61 688 40 q 707 140 714 81 l 677 385 l 677 385 l 349 385 l 349 385 l 208 155 q 179 65 169 92 q 252 36 189 38 l 290 35 l 284 -4 q 130 0 195 0 q -26 -4 65 0 l -20 35 l 7 38 q 60 65 37 41 q 131 161 84 88 m 623 836 l 379 436 l 379 436 l 672 436 l 672 436 l 623 836 l 623 836 l 623 836 m 471 1058 q 522 1163 485 1124 q 607 1202 558 1202 q 662 1193 633 1202 q 723 1167 691 1185 q 774 1145 747 1154 q 824 1137 802 1137 q 858 1155 842 1137 q 884 1203 873 1173 l 925 1203 q 881 1101 921 1143 q 788 1059 842 1059 q 739 1068 768 1059 q 673 1097 711 1078 q 623 1118 647 1110 q 586 1126 599 1126 q 538 1106 560 1126 q 511 1058 517 1086 l 471 1058 z "},"Ä":{"ha":1003,"x_min":-26,"x_max":941,"o":"m 131 161 l 645 979 l 677 979 l 709 979 l 822 119 q 843 58 828 74 q 896 39 857 42 l 941 35 l 935 -4 q 765 0 837 0 q 593 -4 693 0 l 599 35 l 641 37 q 701 61 688 40 q 707 140 714 81 l 677 385 l 677 385 l 349 385 l 349 385 l 208 155 q 179 65 169 92 q 252 36 189 38 l 290 35 l 284 -4 q 130 0 195 0 q -26 -4 65 0 l -20 35 l 7 38 q 60 65 37 41 q 131 161 84 88 m 623 836 l 379 436 l 379 436 l 672 436 l 672 436 l 623 836 l 623 836 l 623 836 m 542 1176 q 591 1156 570 1176 q 611 1107 611 1135 q 591 1059 611 1079 q 542 1038 570 1038 q 493 1059 513 1038 q 473 1107 473 1079 q 493 1156 473 1135 q 542 1176 513 1176 m 820 1176 q 869 1156 848 1176 q 889 1107 889 1135 q 869 1059 889 1079 q 820 1038 848 1038 q 771 1059 791 1038 q 751 1107 751 1079 q 771 1156 751 1135 q 820 1176 791 1176 z "},"Å":{"ha":1003,"x_min":-26,"x_max":941,"o":"m 131 161 l 645 979 l 677 979 l 709 979 l 822 119 q 843 58 828 74 q 896 39 857 42 l 941 35 l 935 -4 q 765 0 837 0 q 593 -4 693 0 l 599 35 l 641 37 q 701 61 688 40 q 707 140 714 81 l 677 385 l 677 385 l 349 385 l 349 385 l 208 155 q 179 65 169 92 q 252 36 189 38 l 290 35 l 284 -4 q 130 0 195 0 q -26 -4 65 0 l -20 35 l 7 38 q 60 65 37 41 q 131 161 84 88 m 623 836 l 379 436 l 379 436 l 672 436 l 672 436 l 623 836 l 623 836 l 623 836 m 686 997 q 588 1037 628 997 q 547 1136 547 1078 q 588 1235 547 1195 q 686 1276 628 1276 q 786 1235 745 1276 q 826 1136 826 1195 q 786 1037 826 1078 q 686 997 745 997 l 686 997 m 686 1047 q 747 1073 722 1047 q 772 1136 772 1099 q 747 1199 772 1173 q 686 1225 722 1225 q 626 1199 650 1225 q 601 1136 601 1173 q 626 1073 601 1099 q 686 1047 650 1047 l 686 1047 z "},"Æ":{"ha":1307,"x_min":-5,"x_max":1251,"o":"m 532 -4 l 538 35 l 570 37 q 610 56 600 39 q 631 140 619 73 l 674 386 l 674 386 l 369 386 l 369 386 l 220 157 q 188 66 177 93 q 264 37 198 39 l 304 36 l 297 -4 q 147 0 210 0 q -5 -4 83 0 l 2 38 l 24 41 q 73 68 50 45 q 146 164 96 92 l 587 817 q 616 897 627 876 q 536 920 606 917 l 473 922 l 480 961 l 884 957 l 884 957 l 1251 961 l 1251 961 q 1232 854 1238 899 q 1224 747 1227 809 l 1192 745 l 1183 840 q 1165 886 1179 877 q 1098 899 1151 896 q 985 904 1037 904 l 873 901 l 873 901 l 808 522 l 808 522 l 846 522 q 1024 525 939 522 q 1129 532 1109 528 q 1137 522 1138 526 q 1116 458 1133 495 q 1035 463 1097 461 q 890 465 972 465 l 798 465 l 798 465 l 728 63 l 728 63 q 900 55 823 55 l 1021 59 q 1114 74 1093 61 q 1149 138 1135 87 l 1173 223 l 1211 223 q 1187 110 1196 157 q 1173 -4 1179 62 l 1173 -4 l 717 0 l 717 0 l 532 -4 m 703 888 q 430 481 547 659 l 406 444 l 406 444 l 684 444 l 684 444 l 763 894 l 703 888 l 703 888 z "},"Ç":{"ha":926,"x_min":62,"x_max":903,"o":"m 847 143 l 834 93 q 655 2 738 28 q 473 -25 573 -25 q 169 84 276 -25 q 62 393 62 193 l 62 395 q 225 813 63 646 q 631 981 388 981 q 761 967 693 981 q 903 924 828 953 q 882 821 890 864 q 867 719 875 779 l 829 719 l 829 719 l 830 836 q 720 889 784 871 q 569 906 656 906 q 291 774 395 906 q 186 418 186 642 q 274 144 186 241 q 524 48 361 48 q 679 72 608 48 q 833 153 750 96 l 847 143 m 485 1 l 423 -89 l 423 -89 q 454 -86 439 -86 q 547 -119 516 -86 q 568 -208 578 -152 q 513 -275 561 -250 q 393 -300 466 -300 q 347 -294 371 -300 q 278 -272 322 -288 l 300 -231 q 358 -246 333 -241 q 399 -251 382 -251 q 447 -236 429 -251 q 470 -195 465 -222 q 456 -153 475 -170 q 408 -136 438 -136 q 382 -138 396 -136 q 359 -144 369 -140 l 347 -133 l 433 1 l 485 1 z "},"È":{"ha":848,"x_min":41,"x_max":795,"o":"m 41 -4 l 47 33 l 82 40 q 125 62 115 47 q 145 138 135 78 l 264 817 q 267 901 275 884 q 207 920 258 918 l 153 922 l 160 961 l 398 957 l 398 957 l 795 961 l 795 961 q 774 853 781 899 q 762 744 767 807 l 729 744 l 723 841 q 707 886 720 876 q 642 899 694 895 q 557 902 597 902 q 387 895 483 902 l 387 895 l 322 522 l 322 522 l 391 522 q 568 525 483 522 q 673 532 652 528 q 680 522 681 525 q 651 458 671 494 q 569 463 631 461 q 425 465 507 465 l 312 465 l 312 465 l 242 62 l 242 62 q 427 54 345 54 q 564 58 489 54 q 657 75 635 62 q 692 140 678 88 l 715 225 l 753 225 q 730 111 739 159 q 716 -4 722 63 l 716 -4 l 231 0 l 231 0 l 41 -4 m 608 1012 l 608 1012 l 374 1155 l 366 1160 q 345 1194 348 1175 l 344 1200 q 356 1228 345 1215 q 391 1245 370 1244 q 430 1231 411 1246 l 437 1225 l 654 1012 l 654 1012 l 608 1012 z "},"É":{"ha":848,"x_min":41,"x_max":795,"o":"m 41 -4 l 47 33 l 82 40 q 125 62 115 47 q 145 138 135 78 l 264 817 q 267 901 275 884 q 207 920 258 918 l 153 922 l 160 961 l 398 957 l 398 957 l 795 961 l 795 961 q 774 853 781 899 q 762 744 767 807 l 729 744 l 723 841 q 707 886 720 876 q 642 899 694 895 q 557 902 597 902 q 387 895 483 902 l 387 895 l 322 522 l 322 522 l 391 522 q 568 525 483 522 q 673 532 652 528 q 680 522 681 525 q 651 458 671 494 q 569 463 631 461 q 425 465 507 465 l 312 465 l 312 465 l 242 62 l 242 62 q 427 54 345 54 q 564 58 489 54 q 657 75 635 62 q 692 140 678 88 l 715 225 l 753 225 q 730 111 739 159 q 716 -4 722 63 l 716 -4 l 231 0 l 231 0 l 41 -4 m 430 1012 l 430 1012 l 648 1226 l 655 1232 q 695 1246 675 1247 q 729 1230 715 1246 q 741 1201 741 1217 l 741 1196 q 718 1162 738 1177 l 711 1157 l 477 1012 l 477 1012 l 430 1012 z "},"Ê":{"ha":848,"x_min":41,"x_max":795,"o":"m 41 -4 l 47 33 l 82 40 q 125 62 115 47 q 145 138 135 78 l 264 817 q 267 901 275 884 q 207 920 258 918 l 153 922 l 160 961 l 398 957 l 398 957 l 795 961 l 795 961 q 774 853 781 899 q 762 744 767 807 l 729 744 l 723 841 q 707 886 720 876 q 642 899 694 895 q 557 902 597 902 q 387 895 483 902 l 387 895 l 322 522 l 322 522 l 391 522 q 568 525 483 522 q 673 532 652 528 q 680 522 681 525 q 651 458 671 494 q 569 463 631 461 q 425 465 507 465 l 312 465 l 312 465 l 242 62 l 242 62 q 427 54 345 54 q 564 58 489 54 q 657 75 635 62 q 692 140 678 88 l 715 225 l 753 225 q 730 111 739 159 q 716 -4 722 63 l 716 -4 l 231 0 l 231 0 l 41 -4 m 606 1234 l 728 1000 l 680 1000 l 564 1144 l 564 1144 l 374 1000 l 319 1000 l 538 1234 l 572 1234 l 606 1234 z "},"Ë":{"ha":848,"x_min":41,"x_max":795,"o":"m 41 -4 l 47 33 l 82 40 q 125 62 115 47 q 145 138 135 78 l 264 817 q 267 901 275 884 q 207 920 258 918 l 153 922 l 160 961 l 398 957 l 398 957 l 795 961 l 795 961 q 774 853 781 899 q 762 744 767 807 l 729 744 l 723 841 q 707 886 720 876 q 642 899 694 895 q 557 902 597 902 q 387 895 483 902 l 387 895 l 322 522 l 322 522 l 391 522 q 568 525 483 522 q 673 532 652 528 q 680 522 681 525 q 651 458 671 494 q 569 463 631 461 q 425 465 507 465 l 312 465 l 312 465 l 242 62 l 242 62 q 427 54 345 54 q 564 58 489 54 q 657 75 635 62 q 692 140 678 88 l 715 225 l 753 225 q 730 111 739 159 q 716 -4 722 63 l 716 -4 l 231 0 l 231 0 l 41 -4 m 385 1176 q 433 1156 413 1176 q 454 1107 454 1135 q 433 1059 454 1079 q 385 1038 413 1038 q 336 1059 356 1038 q 315 1107 315 1079 q 336 1156 315 1135 q 385 1176 356 1176 m 663 1176 q 711 1156 691 1176 q 732 1107 732 1135 q 711 1059 732 1079 q 663 1038 691 1038 q 614 1059 634 1038 q 593 1107 593 1079 q 614 1156 593 1135 q 663 1176 634 1176 z "},"Ì":{"ha":463,"x_min":9,"x_max":499,"o":"m 140 140 l 258 817 q 261 901 270 884 q 201 920 252 918 l 148 922 l 155 961 q 326 957 254 957 q 499 961 398 957 l 492 922 l 447 920 q 392 901 406 918 q 368 817 380 885 l 250 140 q 247 56 238 73 q 307 37 256 39 l 360 35 l 354 -4 q 183 0 255 0 q 9 -4 111 0 l 16 35 l 61 37 q 116 56 103 39 q 140 140 128 72 m 429 1012 l 429 1012 l 195 1155 l 188 1160 q 166 1194 170 1175 l 165 1200 q 178 1228 166 1215 q 212 1245 192 1244 q 252 1231 233 1246 l 258 1225 l 475 1012 l 475 1012 l 429 1012 z "},"Í":{"ha":463,"x_min":9,"x_max":563,"o":"m 140 140 l 258 817 q 261 901 270 884 q 201 920 252 918 l 148 922 l 155 961 q 326 957 254 957 q 499 961 398 957 l 492 922 l 447 920 q 392 901 406 918 q 368 817 380 885 l 250 140 q 247 56 238 73 q 307 37 256 39 l 360 35 l 354 -4 q 183 0 255 0 q 9 -4 111 0 l 16 35 l 61 37 q 116 56 103 39 q 140 140 128 72 m 252 1012 l 252 1012 l 470 1226 l 477 1232 q 516 1246 496 1247 q 551 1230 536 1246 q 563 1201 563 1217 l 562 1196 q 540 1162 559 1177 l 532 1157 l 298 1012 l 298 1012 l 252 1012 z "},"Î":{"ha":463,"x_min":9,"x_max":550,"o":"m 140 140 l 258 817 q 261 901 270 884 q 201 920 252 918 l 148 922 l 155 961 q 326 957 254 957 q 499 961 398 957 l 492 922 l 447 920 q 392 901 406 918 q 368 817 380 885 l 250 140 q 247 56 238 73 q 307 37 256 39 l 360 35 l 354 -4 q 183 0 255 0 q 9 -4 111 0 l 16 35 l 61 37 q 116 56 103 39 q 140 140 128 72 m 427 1234 l 550 1000 l 501 1000 l 385 1144 l 385 1144 l 195 1000 l 140 1000 l 359 1234 l 393 1234 l 427 1234 z "},"Ï":{"ha":463,"x_min":9,"x_max":553,"o":"m 140 140 l 258 817 q 261 901 270 884 q 201 920 252 918 l 148 922 l 155 961 q 326 957 254 957 q 499 961 398 957 l 492 922 l 447 920 q 392 901 406 918 q 368 817 380 885 l 250 140 q 247 56 238 73 q 307 37 256 39 l 360 35 l 354 -4 q 183 0 255 0 q 9 -4 111 0 l 16 35 l 61 37 q 116 56 103 39 q 140 140 128 72 m 206 1176 q 255 1156 235 1176 q 275 1107 275 1135 q 255 1059 275 1079 q 206 1038 235 1038 q 157 1059 178 1038 q 137 1107 137 1079 q 157 1156 137 1135 q 206 1176 178 1176 m 484 1176 q 533 1156 513 1176 q 553 1107 553 1135 q 533 1059 553 1079 q 484 1038 513 1038 q 435 1059 456 1038 q 415 1107 415 1079 q 435 1156 415 1135 q 484 1176 456 1176 z "},"Ð":{"ha":1080,"x_min":26,"x_max":1028,"o":"m 38 -4 l 44 33 l 74 40 q 112 62 102 47 q 131 138 121 78 l 191 480 l 191 480 l 26 480 l 35 525 l 199 525 l 199 525 l 250 817 q 252 901 261 884 q 193 920 243 917 l 139 922 l 146 961 l 329 957 l 329 957 l 593 961 q 921 874 813 961 q 1028 610 1028 787 l 1028 608 q 852 174 1027 352 q 425 -4 677 -4 l 162 0 l 162 0 l 38 -4 m 374 899 l 374 899 l 309 525 l 309 525 l 571 525 l 563 480 l 300 480 l 300 480 l 230 76 l 230 76 q 475 54 334 54 q 780 204 657 54 q 903 578 903 355 q 813 826 903 743 q 543 909 722 909 q 374 899 452 909 z "},"Ñ":{"ha":1080,"x_min":3,"x_max":1115,"o":"m 193 140 q 196 61 183 83 q 253 37 208 39 l 308 35 l 302 -4 q 153 0 216 0 q 3 -4 90 0 l 9 35 l 52 37 q 103 60 87 39 q 130 140 119 81 l 260 852 l 230 886 q 153 918 198 916 l 98 922 l 105 961 q 219 957 171 957 q 335 961 267 957 q 353 922 345 938 q 384 869 361 905 l 617 471 l 811 145 l 811 145 l 811 145 l 924 817 q 921 896 934 875 q 864 920 909 918 l 809 922 l 816 961 q 965 957 902 957 q 1115 961 1027 957 l 1108 922 l 1065 920 q 1014 897 1029 918 q 987 817 998 876 l 844 -11 l 810 -11 l 776 -11 l 307 783 l 307 783 l 307 783 l 193 140 m 439 1058 q 490 1163 454 1124 q 576 1202 527 1202 q 631 1193 602 1202 q 692 1167 660 1185 q 743 1145 715 1154 q 793 1137 771 1137 q 826 1155 810 1137 q 853 1203 842 1173 l 894 1203 q 850 1101 890 1143 q 757 1059 810 1059 q 708 1068 736 1059 q 642 1097 680 1078 q 592 1118 616 1110 q 555 1126 568 1126 q 507 1106 529 1126 q 480 1058 486 1086 l 439 1058 z "},"Ò":{"ha":1080,"x_min":74,"x_max":1037,"o":"m 468 -25 q 176 76 279 -25 q 74 363 74 176 q 237 804 74 627 q 643 981 399 981 q 935 880 833 981 q 1037 592 1037 779 q 873 151 1037 328 q 468 -25 711 -25 l 468 -25 m 517 33 q 805 182 697 33 q 913 583 913 332 q 833 837 913 752 q 593 922 753 922 q 306 773 413 922 q 197 372 198 624 q 277 118 197 203 q 517 33 357 33 l 517 33 m 730 1012 l 730 1012 l 496 1155 l 489 1160 q 467 1194 471 1175 l 467 1200 q 479 1228 467 1215 q 513 1245 493 1244 q 553 1231 534 1246 l 559 1225 l 777 1012 l 777 1012 l 730 1012 z "},"Ó":{"ha":1080,"x_min":74,"x_max":1037,"o":"m 468 -25 q 176 76 279 -25 q 74 363 74 176 q 237 804 74 627 q 643 981 399 981 q 935 880 833 981 q 1037 592 1037 779 q 873 151 1037 328 q 468 -25 711 -25 l 468 -25 m 517 33 q 805 182 697 33 q 913 583 913 332 q 833 837 913 752 q 593 922 753 922 q 306 773 413 922 q 197 372 198 624 q 277 118 197 203 q 517 33 357 33 l 517 33 m 553 1012 l 553 1012 l 771 1226 l 778 1232 q 818 1246 798 1247 q 852 1230 838 1246 q 864 1201 864 1217 l 863 1196 q 841 1162 861 1177 l 833 1157 l 600 1012 l 600 1012 l 553 1012 z "},"Ô":{"ha":1080,"x_min":74,"x_max":1037,"o":"m 468 -25 q 176 76 279 -25 q 74 363 74 176 q 237 804 74 627 q 643 981 399 981 q 935 880 833 981 q 1037 592 1037 779 q 873 151 1037 328 q 468 -25 711 -25 l 468 -25 m 517 33 q 805 182 697 33 q 913 583 913 332 q 833 837 913 752 q 593 922 753 922 q 306 773 413 922 q 197 372 198 624 q 277 118 197 203 q 517 33 357 33 l 517 33 m 728 1234 l 851 1000 l 802 1000 l 686 1144 l 686 1144 l 496 1000 l 441 1000 l 661 1234 l 694 1234 l 728 1234 z "},"Õ":{"ha":1080,"x_min":74,"x_max":1037,"o":"m 468 -25 q 176 76 279 -25 q 74 363 74 176 q 237 804 74 627 q 643 981 399 981 q 935 880 833 981 q 1037 592 1037 779 q 873 151 1037 328 q 468 -25 711 -25 l 468 -25 m 517 33 q 805 182 697 33 q 913 583 913 332 q 833 837 913 752 q 593 922 753 922 q 306 773 413 922 q 197 372 198 624 q 277 118 197 203 q 517 33 357 33 l 517 33 m 436 1058 q 487 1163 450 1124 q 572 1202 524 1202 q 628 1193 599 1202 q 688 1167 656 1185 q 740 1145 712 1154 q 789 1137 768 1137 q 823 1155 807 1137 q 850 1203 839 1173 l 890 1203 q 847 1101 886 1143 q 753 1059 807 1059 q 705 1068 733 1059 q 638 1097 676 1078 q 588 1118 612 1110 q 551 1126 564 1126 q 504 1106 526 1126 q 477 1058 482 1086 l 436 1058 z "},"Ö":{"ha":1080,"x_min":74,"x_max":1037,"o":"m 468 -25 q 176 76 279 -25 q 74 363 74 176 q 237 804 74 627 q 643 981 399 981 q 935 880 833 981 q 1037 592 1037 779 q 873 151 1037 328 q 468 -25 711 -25 l 468 -25 m 517 33 q 805 182 697 33 q 913 583 913 332 q 833 837 913 752 q 593 922 753 922 q 306 773 413 922 q 197 372 198 624 q 277 118 197 203 q 517 33 357 33 l 517 33 m 507 1176 q 556 1156 536 1176 q 576 1107 576 1135 q 556 1059 576 1079 q 507 1038 536 1038 q 458 1059 479 1038 q 438 1107 438 1079 q 458 1156 438 1135 q 507 1176 479 1176 m 785 1176 q 834 1156 814 1176 q 854 1107 854 1135 q 834 1059 854 1079 q 785 1038 814 1038 q 736 1059 757 1038 q 716 1107 716 1079 q 736 1156 716 1135 q 785 1176 757 1176 z "},"×":{"ha":842,"x_min":115,"x_max":727,"o":"m 421 300 l 170 49 l 115 103 l 367 355 l 115 606 l 170 661 l 421 409 l 673 661 l 727 606 l 475 355 l 727 103 l 673 49 l 421 300 z "},"Ø":{"ha":1080,"x_min":45,"x_max":1065,"o":"m 547 432 l 260 136 l 277 118 q 516 33 357 33 l 516 33 q 804 182 696 33 q 913 583 912 332 q 876 774 912 699 l 547 432 m 467 -25 q 190 62 291 -24 l 85 -48 l 45 -14 l 152 98 q 73 363 74 198 q 236 804 73 627 q 642 981 399 981 q 918 894 818 981 l 1025 1005 l 1065 970 l 956 857 q 1036 592 1037 759 q 873 151 1036 328 q 467 -25 711 -25 l 467 -25 m 593 922 q 305 773 412 922 q 197 372 197 624 q 232 182 197 259 l 563 525 l 846 820 q 832 838 840 830 q 593 922 752 922 z "},"Ù":{"ha":1080,"x_min":122,"x_max":1101,"o":"m 338 790 l 252 300 q 280 124 232 184 q 441 64 328 64 q 713 184 581 64 q 770 246 747 216 l 770 246 l 861 817 q 863 900 872 884 q 803 919 853 917 l 749 922 l 756 960 q 927 956 855 956 q 1101 960 1000 956 l 1094 922 l 1048 919 q 993 901 1005 917 q 971 817 981 884 l 863 140 q 864 56 854 73 q 926 37 874 39 l 983 35 l 977 -4 q 853 -1 905 -1 q 728 -5 801 -1 l 748 86 l 768 175 q 764 177 768 175 q 760 178 760 178 l 760 178 l 733 151 q 392 -16 564 -16 q 177 68 238 -16 q 136 218 136 123 q 146 319 136 264 l 233 817 q 235 901 244 884 q 176 920 227 918 l 122 922 l 129 961 q 250 957 199 957 q 374 961 302 957 q 357 894 363 924 q 338 790 351 864 m 724 1012 l 724 1012 l 490 1155 l 483 1160 q 461 1194 465 1175 l 460 1200 q 473 1228 461 1215 q 507 1245 487 1244 q 547 1231 528 1246 l 553 1225 l 770 1012 l 770 1012 l 724 1012 z "},"Ú":{"ha":1080,"x_min":122,"x_max":1101,"o":"m 338 790 l 252 300 q 280 124 232 184 q 441 64 328 64 q 713 184 581 64 q 770 246 747 216 l 770 246 l 861 817 q 863 900 872 884 q 803 919 853 917 l 749 922 l 756 960 q 927 956 855 956 q 1101 960 1000 956 l 1094 922 l 1048 919 q 993 901 1005 917 q 971 817 981 884 l 863 140 q 864 56 854 73 q 926 37 874 39 l 983 35 l 977 -4 q 853 -1 905 -1 q 728 -5 801 -1 l 748 86 l 768 175 q 764 177 768 175 q 760 178 760 178 l 760 178 l 733 151 q 392 -16 564 -16 q 177 68 238 -16 q 136 218 136 123 q 146 319 136 264 l 233 817 q 235 901 244 884 q 176 920 227 918 l 122 922 l 129 961 q 250 957 199 957 q 374 961 302 957 q 357 894 363 924 q 338 790 351 864 m 547 1012 l 547 1012 l 765 1226 l 772 1232 q 811 1246 791 1247 q 846 1230 831 1246 q 858 1201 858 1217 l 857 1196 q 835 1162 854 1177 l 827 1157 l 593 1012 l 593 1012 l 547 1012 z "},"Û":{"ha":1080,"x_min":122,"x_max":1101,"o":"m 338 790 l 252 300 q 280 124 232 184 q 441 64 328 64 q 713 184 581 64 q 770 246 747 216 l 770 246 l 861 817 q 863 900 872 884 q 803 919 853 917 l 749 922 l 756 960 q 927 956 855 956 q 1101 960 1000 956 l 1094 922 l 1048 919 q 993 901 1005 917 q 971 817 981 884 l 863 140 q 864 56 854 73 q 926 37 874 39 l 983 35 l 977 -4 q 853 -1 905 -1 q 728 -5 801 -1 l 748 86 l 768 175 q 764 177 768 175 q 760 178 760 178 l 760 178 l 733 151 q 392 -16 564 -16 q 177 68 238 -16 q 136 218 136 123 q 146 319 136 264 l 233 817 q 235 901 244 884 q 176 920 227 918 l 122 922 l 129 961 q 250 957 199 957 q 374 961 302 957 q 357 894 363 924 q 338 790 351 864 m 722 1234 l 845 1000 l 796 1000 l 680 1144 l 680 1144 l 490 1000 l 435 1000 l 654 1234 l 688 1234 l 722 1234 z "},"Ü":{"ha":1080,"x_min":122,"x_max":1101,"o":"m 338 790 l 252 300 q 280 124 232 184 q 441 64 328 64 q 713 184 581 64 q 770 246 747 216 l 770 246 l 861 817 q 863 900 872 884 q 803 919 853 917 l 749 922 l 756 960 q 927 956 855 956 q 1101 960 1000 956 l 1094 922 l 1048 919 q 993 901 1005 917 q 971 817 981 884 l 863 140 q 864 56 854 73 q 926 37 874 39 l 983 35 l 977 -4 q 853 -1 905 -1 q 728 -5 801 -1 l 748 86 l 768 175 q 764 177 768 175 q 760 178 760 178 l 760 178 l 733 151 q 392 -16 564 -16 q 177 68 238 -16 q 136 218 136 123 q 146 319 136 264 l 233 817 q 235 901 244 884 q 176 920 227 918 l 122 922 l 129 961 q 250 957 199 957 q 374 961 302 957 q 357 894 363 924 q 338 790 351 864 m 501 1176 q 550 1156 530 1176 q 570 1107 570 1135 q 550 1059 570 1079 q 501 1038 530 1038 q 452 1059 473 1038 q 432 1107 432 1079 q 452 1156 432 1135 q 501 1176 473 1176 m 779 1176 q 828 1156 808 1176 q 848 1107 848 1135 q 828 1059 848 1079 q 779 1038 808 1038 q 730 1059 751 1038 q 710 1107 710 1079 q 730 1156 710 1135 q 779 1176 751 1176 z "},"Ý":{"ha":926,"x_min":72,"x_max":937,"o":"m 395 347 q 397 368 397 358 q 393 391 397 378 q 328 620 362 522 q 286 728 309 672 q 198 862 241 830 q 93 871 155 893 l 76 865 l 72 897 l 127 938 l 182 979 q 284 941 241 979 q 361 820 327 903 q 412 684 391 747 q 480 434 448 579 l 480 434 q 593 646 535 555 l 621 689 q 783 884 703 812 q 937 968 864 955 l 928 870 q 815 823 868 863 q 687 685 762 782 q 644 623 664 654 q 528 418 586 535 q 514 385 518 398 q 506 352 509 372 l 469 140 q 466 56 457 73 q 526 37 475 39 l 579 35 l 573 -4 q 402 0 474 0 q 229 -4 330 0 l 235 35 l 280 37 q 335 56 322 39 q 359 140 347 72 l 395 347 m 463 1012 l 463 1012 l 682 1226 l 688 1232 q 728 1246 708 1247 q 762 1230 748 1246 q 774 1201 774 1217 l 774 1196 q 751 1162 771 1177 l 744 1157 l 510 1012 l 510 1012 l 463 1012 z "},"Þ":{"ha":848,"x_min":12,"x_max":792,"o":"m 151 140 l 269 817 q 272 901 281 884 q 210 920 262 918 l 155 922 l 162 961 q 339 957 264 957 q 517 961 414 957 l 510 922 l 462 920 q 404 901 418 918 q 379 817 391 885 l 368 754 l 368 754 l 536 755 q 726 697 660 755 q 792 534 792 640 q 697 307 791 403 q 474 212 604 212 q 345 238 402 212 l 339 285 q 454 261 391 261 q 612 327 553 261 q 671 505 671 393 q 618 654 671 604 q 458 705 564 705 q 357 695 403 705 l 357 695 l 260 140 q 260 56 249 72 q 330 37 271 39 l 393 35 l 387 -4 q 200 0 279 0 q 12 -4 121 0 l 18 35 l 67 37 q 126 56 113 39 q 151 140 139 72 z "},"ß":{"ha":694,"x_min":-222,"x_max":668,"o":"m 311 810 q 206 318 251 534 l 155 58 q 26 -254 120 -127 q -168 -381 -68 -381 q -199 -380 -182 -381 q -222 -378 -217 -379 q -203 -320 -209 -345 q -191 -262 -196 -296 l -175 -260 q -143 -290 -163 -279 q -97 -301 -123 -301 q -8 -230 -48 -301 q 58 -26 33 -158 l 81 108 l 154 532 l 154 532 l 41 532 l 46 561 l 168 614 l 168 614 l 191 753 q 206 802 196 775 q 223 837 216 829 q 307 911 256 873 q 396 967 357 949 q 491 1008 461 998 q 546 1018 522 1018 q 653 959 619 1018 q 668 805 686 901 q 634 738 665 787 q 562 635 604 689 q 512 564 527 589 q 494 517 498 538 q 504 473 491 502 q 555 377 516 445 q 610 275 597 306 q 619 227 623 245 q 592 146 613 193 q 554 81 572 100 q 493 28 532 56 q 428 -14 456 -1 q 404 -20 420 -17 q 373 -22 387 -22 q 322 -14 348 -22 q 267 10 296 -6 q 285 83 279 52 q 294 155 290 113 l 320 155 l 320 155 l 323 79 q 358 49 336 59 q 408 39 380 39 q 487 66 460 39 q 526 162 513 93 q 519 222 531 190 q 470 320 508 254 q 418 419 430 388 q 410 471 406 450 q 456 556 412 483 q 522 659 500 629 q 565 725 555 703 q 585 797 576 747 q 567 907 598 864 q 475 950 536 950 q 368 910 416 950 q 311 810 322 870 z "},"à":{"ha":616,"x_min":5,"x_max":567,"o":"m 54 -15 q 17 10 31 -15 q 5 77 5 34 l 5 82 q 14 179 5 121 q 39 307 23 237 q 172 566 77 463 q 374 669 267 669 q 445 661 407 669 q 504 643 475 655 l 504 643 l 552 667 l 552 667 l 567 653 l 566 653 q 508 438 530 528 l 449 185 q 436 102 435 125 q 452 79 437 79 q 485 95 460 79 q 553 144 510 111 l 566 119 q 439 22 491 56 q 367 -12 388 -12 q 333 25 338 -12 q 347 139 328 63 l 384 296 l 384 296 q 282 159 342 231 q 54 -15 136 -15 m 132 82 q 294 221 188 82 q 366 326 336 276 q 409 427 387 360 q 444 556 431 494 l 448 575 l 448 575 q 391 593 416 587 q 326 603 354 603 q 212 541 252 603 q 127 293 172 479 q 110 204 116 243 q 104 138 104 165 q 111 96 104 111 q 132 82 118 82 m 426 749 l 426 749 l 192 892 l 184 897 q 163 930 166 912 l 162 937 q 174 965 162 952 q 209 982 189 981 q 248 968 229 983 l 255 962 l 472 749 l 472 749 l 426 749 z "},"á":{"ha":616,"x_min":5,"x_max":573,"o":"m 54 -15 q 17 10 31 -15 q 5 77 5 34 l 5 82 q 14 179 5 121 q 39 307 23 237 q 172 566 77 463 q 374 669 267 669 q 445 661 407 669 q 504 643 475 655 l 504 643 l 552 667 l 552 667 l 567 653 l 566 653 q 508 438 530 528 l 449 185 q 436 102 435 125 q 452 79 437 79 q 485 95 460 79 q 553 144 510 111 l 566 119 q 439 22 491 56 q 367 -12 388 -12 q 333 25 338 -12 q 347 139 328 63 l 384 296 l 384 296 q 282 159 342 231 q 54 -15 136 -15 m 132 82 q 294 221 188 82 q 366 326 336 276 q 409 427 387 360 q 444 556 431 494 l 448 575 l 448 575 q 391 593 416 587 q 326 603 354 603 q 212 541 252 603 q 127 293 172 479 q 110 204 116 243 q 104 138 104 165 q 111 96 104 111 q 132 82 118 82 m 262 749 l 262 749 l 480 963 l 487 969 q 527 983 507 984 q 561 967 547 983 q 573 938 573 954 l 572 932 q 550 899 570 913 l 543 894 l 309 749 l 309 749 l 262 749 z "},"â":{"ha":616,"x_min":5,"x_max":583,"o":"m 54 -15 q 17 10 31 -15 q 5 77 5 34 l 5 82 q 14 179 5 121 q 39 307 23 237 q 172 566 77 463 q 374 669 267 669 q 445 661 407 669 q 504 643 475 655 l 504 643 l 552 667 l 552 667 l 567 653 l 566 653 q 508 438 530 528 l 449 185 q 436 102 435 125 q 452 79 437 79 q 485 95 460 79 q 553 144 510 111 l 566 119 q 439 22 491 56 q 367 -12 388 -12 q 333 25 338 -12 q 347 139 328 63 l 384 296 l 384 296 q 282 159 342 231 q 54 -15 136 -15 m 132 82 q 294 221 188 82 q 366 326 336 276 q 409 427 387 360 q 444 556 431 494 l 448 575 l 448 575 q 391 593 416 587 q 326 603 354 603 q 212 541 252 603 q 127 293 172 479 q 110 204 116 243 q 104 138 104 165 q 111 96 104 111 q 132 82 118 82 m 460 971 l 583 736 l 534 736 l 418 881 l 418 881 l 229 736 l 174 736 l 393 971 l 427 971 l 460 971 z "},"ã":{"ha":616,"x_min":5,"x_max":623,"o":"m 54 -15 q 17 10 31 -15 q 5 77 5 34 l 5 82 q 14 179 5 121 q 39 307 23 237 q 172 566 77 463 q 374 669 267 669 q 445 661 407 669 q 504 643 475 655 l 504 643 l 552 667 l 552 667 l 567 653 l 566 653 q 508 438 530 528 l 449 185 q 436 102 435 125 q 452 79 437 79 q 485 95 460 79 q 553 144 510 111 l 566 119 q 439 22 491 56 q 367 -12 388 -12 q 333 25 338 -12 q 347 139 328 63 l 384 296 l 384 296 q 282 159 342 231 q 54 -15 136 -15 m 132 82 q 294 221 188 82 q 366 326 336 276 q 409 427 387 360 q 444 556 431 494 l 448 575 l 448 575 q 391 593 416 587 q 326 603 354 603 q 212 541 252 603 q 127 293 172 479 q 110 204 116 243 q 104 138 104 165 q 111 96 104 111 q 132 82 118 82 m 168 795 q 219 900 182 861 q 304 939 256 939 q 360 930 331 939 q 420 904 389 922 q 472 882 444 890 q 522 874 500 874 q 555 892 539 874 q 582 940 571 909 l 623 940 q 579 838 618 880 q 486 796 539 796 q 437 805 465 796 q 370 833 408 814 q 320 855 345 847 q 283 863 296 863 q 236 843 258 863 q 209 795 214 823 l 168 795 z "},"ä":{"ha":616,"x_min":5,"x_max":587,"o":"m 54 -15 q 17 10 31 -15 q 5 77 5 34 l 5 82 q 14 179 5 121 q 39 307 23 237 q 172 566 77 463 q 374 669 267 669 q 445 661 407 669 q 504 643 475 655 l 504 643 l 552 667 l 552 667 l 567 653 l 566 653 q 508 438 530 528 l 449 185 q 436 102 435 125 q 452 79 437 79 q 485 95 460 79 q 553 144 510 111 l 566 119 q 439 22 491 56 q 367 -12 388 -12 q 333 25 338 -12 q 347 139 328 63 l 384 296 l 384 296 q 282 159 342 231 q 54 -15 136 -15 m 132 82 q 294 221 188 82 q 366 326 336 276 q 409 427 387 360 q 444 556 431 494 l 448 575 l 448 575 q 391 593 416 587 q 326 603 354 603 q 212 541 252 603 q 127 293 172 479 q 110 204 116 243 q 104 138 104 165 q 111 96 104 111 q 132 82 118 82 m 239 913 q 288 892 268 913 q 309 844 309 872 q 288 795 309 816 q 239 775 268 775 q 191 795 211 775 q 170 844 170 816 q 191 892 170 872 q 239 913 211 913 m 517 913 q 566 892 546 913 q 587 844 587 872 q 566 795 587 816 q 517 775 546 775 q 469 795 489 775 q 448 844 448 816 q 469 892 448 872 q 517 913 489 913 z "},"å":{"ha":616,"x_min":5,"x_max":567,"o":"m 54 -15 q 17 10 31 -15 q 5 77 5 34 l 5 82 q 14 179 5 121 q 39 307 23 237 q 172 566 77 463 q 374 669 267 669 q 445 661 407 669 q 504 643 475 655 l 504 643 l 552 667 l 552 667 l 567 653 l 566 653 q 508 438 530 528 l 449 185 q 436 102 435 125 q 452 79 437 79 q 485 95 460 79 q 553 144 510 111 l 566 119 q 439 22 491 56 q 367 -12 388 -12 q 333 25 338 -12 q 347 139 328 63 l 384 296 l 384 296 q 282 159 342 231 q 54 -15 136 -15 m 132 82 q 294 221 188 82 q 366 326 336 276 q 409 427 387 360 q 444 556 431 494 l 448 575 l 448 575 q 391 593 416 587 q 326 603 354 603 q 212 541 252 603 q 127 293 172 479 q 110 204 116 243 q 104 138 104 165 q 111 96 104 111 q 132 82 118 82 m 409 734 q 310 774 351 734 q 270 873 270 814 q 310 972 270 932 q 409 1013 351 1013 q 508 972 468 1013 q 549 873 549 932 q 508 774 549 814 q 409 734 468 734 l 409 734 m 409 784 q 470 810 445 784 q 495 873 495 836 q 470 936 495 910 q 409 962 445 962 q 348 936 373 962 q 323 873 323 910 q 348 810 323 836 q 409 784 373 784 l 409 784 z "},"æ":{"ha":886,"x_min":1,"x_max":870,"o":"m 295 669 q 490 536 436 669 l 490 536 q 534 574 511 556 q 747 669 650 669 q 837 640 804 669 q 870 558 870 610 q 769 400 871 468 q 513 321 667 333 l 483 319 l 483 319 l 476 275 q 470 200 471 234 q 500 87 470 124 q 594 50 531 50 q 679 76 628 50 q 809 158 730 102 l 817 127 q 658 14 713 42 q 541 -15 603 -15 q 412 36 456 -15 q 376 119 386 68 l 376 119 q 355 98 365 110 q 138 -15 256 -15 q 38 18 75 -15 q 1 110 1 52 q 7 161 1 132 q 24 219 13 190 q 120 312 44 275 q 290 349 196 349 l 399 349 l 399 349 q 399 481 412 426 q 248 603 373 603 q 200 597 221 603 q 179 590 189 595 q 170 583 173 587 q 164 571 167 578 l 136 490 l 136 490 l 111 496 l 102 589 l 102 589 q 195 651 151 633 q 295 669 239 669 m 311 316 q 188 288 238 313 q 123 224 137 263 q 110 179 115 201 q 106 140 106 157 q 130 74 105 98 q 196 50 154 50 q 326 120 273 50 q 396 316 379 191 l 387 316 l 311 316 m 682 611 q 567 549 616 611 q 493 368 519 487 l 490 353 l 490 353 l 520 355 q 694 413 623 361 q 765 536 765 466 q 744 592 765 574 q 682 611 724 611 z "},"ç":{"ha":566,"x_min":35,"x_max":538,"o":"m 491 132 q 337 18 402 51 q 199 -15 272 -15 q 78 38 121 -15 q 35 186 35 91 q 40 262 34 220 q 56 347 45 304 q 111 484 75 426 q 197 574 146 542 q 253 608 206 580 q 317 646 300 636 q 359 663 336 657 q 406 669 382 669 q 468 662 435 669 q 538 637 500 654 q 519 547 526 585 q 506 457 512 509 l 473 457 l 473 457 l 477 519 q 475 551 479 541 q 456 572 471 562 q 427 589 442 583 q 363 602 397 602 q 239 554 287 602 q 168 410 191 507 q 147 304 154 353 q 140 218 140 255 q 171 97 140 138 q 262 56 201 56 q 353 81 301 56 q 479 160 404 106 l 491 132 m 248 1 l 186 -89 l 186 -89 q 217 -86 202 -86 q 310 -119 279 -86 q 332 -208 341 -152 q 277 -275 324 -250 q 156 -300 229 -300 q 110 -294 134 -300 q 41 -272 85 -288 l 64 -231 q 121 -246 96 -241 q 162 -251 146 -251 q 210 -236 192 -251 q 233 -195 229 -222 q 220 -153 238 -170 q 172 -136 201 -136 q 146 -138 159 -136 q 122 -144 132 -140 l 111 -133 l 196 1 l 248 1 z "},"è":{"ha":541,"x_min":21,"x_max":518,"o":"m 178 -15 q 62 34 104 -15 q 21 170 21 82 q 25 230 20 197 q 37 298 29 263 q 96 461 58 392 q 181 566 133 531 q 248 611 220 593 q 294 638 276 629 q 352 662 326 654 q 401 669 379 669 q 487 640 456 669 q 518 559 518 610 q 433 406 518 468 q 165 303 349 345 l 136 296 l 136 296 l 130 258 q 126 197 125 224 q 157 87 126 125 q 248 50 188 50 q 336 75 286 50 q 456 155 386 100 l 467 130 q 307 20 376 54 q 178 -15 239 -15 m 347 611 q 224 545 272 611 q 143 330 176 479 l 143 329 l 173 335 q 348 415 279 357 q 416 539 416 472 q 398 593 416 575 q 347 611 381 611 m 405 749 l 405 749 l 171 892 l 163 897 q 142 930 145 912 l 141 937 q 153 965 141 952 q 188 982 168 981 q 227 968 208 983 l 234 962 l 451 749 l 451 749 l 405 749 z "},"é":{"ha":541,"x_min":21,"x_max":552,"o":"m 178 -15 q 62 34 104 -15 q 21 170 21 82 q 25 230 20 197 q 37 298 29 263 q 96 461 58 392 q 181 566 133 531 q 248 611 220 593 q 294 638 276 629 q 352 662 326 654 q 401 669 379 669 q 487 640 456 669 q 518 559 518 610 q 433 406 518 468 q 165 303 349 345 l 136 296 l 136 296 l 130 258 q 126 197 125 224 q 157 87 126 125 q 248 50 188 50 q 336 75 286 50 q 456 155 386 100 l 467 130 q 307 20 376 54 q 178 -15 239 -15 m 347 611 q 224 545 272 611 q 143 330 176 479 l 143 329 l 173 335 q 348 415 279 357 q 416 539 416 472 q 398 593 416 575 q 347 611 381 611 m 241 749 l 241 749 l 459 963 l 466 969 q 506 983 486 984 q 540 967 526 983 q 552 938 552 954 l 551 932 q 529 899 549 913 l 522 894 l 288 749 l 288 749 l 241 749 z "},"ê":{"ha":541,"x_min":21,"x_max":562,"o":"m 178 -15 q 62 34 104 -15 q 21 170 21 82 q 25 230 20 197 q 37 298 29 263 q 96 461 58 392 q 181 566 133 531 q 248 611 220 593 q 294 638 276 629 q 352 662 326 654 q 401 669 379 669 q 487 640 456 669 q 518 559 518 610 q 433 406 518 468 q 165 303 349 345 l 136 296 l 136 296 l 130 258 q 126 197 125 224 q 157 87 126 125 q 248 50 188 50 q 336 75 286 50 q 456 155 386 100 l 467 130 q 307 20 376 54 q 178 -15 239 -15 m 347 611 q 224 545 272 611 q 143 330 176 479 l 143 329 l 173 335 q 348 415 279 357 q 416 539 416 472 q 398 593 416 575 q 347 611 381 611 m 439 971 l 562 736 l 513 736 l 397 881 l 397 881 l 208 736 l 153 736 l 372 971 l 406 971 l 439 971 z "},"ë":{"ha":541,"x_min":21,"x_max":566,"o":"m 178 -15 q 62 34 104 -15 q 21 170 21 82 q 25 230 20 197 q 37 298 29 263 q 96 461 58 392 q 181 566 133 531 q 248 611 220 593 q 294 638 276 629 q 352 662 326 654 q 401 669 379 669 q 487 640 456 669 q 518 559 518 610 q 433 406 518 468 q 165 303 349 345 l 136 296 l 136 296 l 130 258 q 126 197 125 224 q 157 87 126 125 q 248 50 188 50 q 336 75 286 50 q 456 155 386 100 l 467 130 q 307 20 376 54 q 178 -15 239 -15 m 347 611 q 224 545 272 611 q 143 330 176 479 l 143 329 l 173 335 q 348 415 279 357 q 416 539 416 472 q 398 593 416 575 q 347 611 381 611 m 218 913 q 267 892 247 913 q 288 844 288 872 q 267 795 288 816 q 218 775 247 775 q 170 795 190 775 q 149 844 149 816 q 170 892 149 872 q 218 913 190 913 m 496 913 q 545 892 525 913 q 566 844 566 872 q 545 795 566 816 q 496 775 525 775 q 448 795 468 775 q 427 844 427 816 q 448 892 427 872 q 496 913 468 913 z "},"ı":{"ha":386,"x_min":47,"x_max":331,"o":"m 86 140 l 109 220 l 171 446 q 191 544 191 515 q 168 574 190 574 q 130 559 157 574 q 58 513 102 544 l 47 540 q 193 636 133 602 q 276 670 252 670 q 306 637 302 670 q 291 540 309 605 l 237 340 l 197 189 q 182 103 182 127 q 201 79 183 79 q 245 96 216 79 q 319 145 275 112 l 331 120 q 198 23 252 57 q 121 -12 143 -12 q 73 26 82 -12 l 70 51 q 86 140 70 85 z "},"ì":{"ha":386,"x_min":47,"x_max":391,"o":"m 86 140 l 109 220 l 171 446 q 191 544 191 515 q 168 574 190 574 q 130 559 157 574 q 58 513 102 544 l 47 540 q 193 636 133 602 q 276 670 252 670 q 306 637 302 670 q 291 540 309 605 l 237 340 l 197 189 q 182 103 182 127 q 201 79 183 79 q 245 96 216 79 q 319 145 275 112 l 331 120 q 198 23 252 57 q 121 -12 143 -12 q 73 26 82 -12 l 70 51 q 86 140 70 85 m 345 749 l 345 749 l 111 892 l 104 897 q 82 930 85 912 l 81 937 q 94 965 81 952 q 128 982 108 981 q 168 968 149 983 l 174 962 l 391 749 l 391 749 l 345 749 z "},"í":{"ha":386,"x_min":47,"x_max":492,"o":"m 86 140 l 109 220 l 171 446 q 191 544 191 515 q 168 574 190 574 q 130 559 157 574 q 58 513 102 544 l 47 540 q 193 636 133 602 q 276 670 252 670 q 306 637 302 670 q 291 540 309 605 l 237 340 l 197 189 q 182 103 182 127 q 201 79 183 79 q 245 96 216 79 q 319 145 275 112 l 331 120 q 198 23 252 57 q 121 -12 143 -12 q 73 26 82 -12 l 70 51 q 86 140 70 85 m 181 749 l 181 749 l 399 963 l 406 969 q 446 983 426 984 q 480 967 466 983 q 492 938 492 954 l 492 932 q 469 899 489 913 l 462 894 l 228 749 l 228 749 l 181 749 z "},"î":{"ha":386,"x_min":40,"x_max":495,"o":"m 79 140 l 101 220 l 163 446 q 183 544 184 515 q 161 574 182 574 q 122 559 150 574 q 50 513 95 544 l 40 540 q 185 636 125 602 q 269 670 245 670 q 298 637 294 670 q 283 540 302 605 l 229 340 l 190 189 q 175 103 174 127 q 193 79 176 79 q 238 96 208 79 q 311 145 267 112 l 323 120 q 190 23 245 57 q 113 -12 136 -12 q 65 26 75 -12 l 62 51 q 79 140 62 85 m 372 971 l 495 736 l 446 736 l 330 881 l 330 881 l 140 736 l 85 736 l 304 971 l 338 971 l 372 971 z "},"ï":{"ha":386,"x_min":47,"x_max":506,"o":"m 86 140 l 109 220 l 171 446 q 191 544 191 515 q 168 574 190 574 q 130 559 157 574 q 58 513 102 544 l 47 540 q 193 636 133 602 q 276 670 252 670 q 306 637 302 670 q 291 540 309 605 l 237 340 l 197 189 q 182 103 182 127 q 201 79 183 79 q 245 96 216 79 q 319 145 275 112 l 331 120 q 198 23 252 57 q 121 -12 143 -12 q 73 26 82 -12 l 70 51 q 86 140 70 85 m 159 913 q 208 892 187 913 q 228 844 228 872 q 208 795 228 816 q 159 775 187 775 q 110 795 130 775 q 90 844 90 816 q 110 892 90 872 q 159 913 130 913 m 437 913 q 486 892 465 913 q 506 844 506 872 q 486 795 506 816 q 437 775 465 775 q 388 795 408 775 q 368 844 368 816 q 388 892 368 872 q 437 913 408 913 z "},"ð":{"ha":616,"x_min":24,"x_max":665,"o":"m 208 -15 q 72 42 121 -15 q 24 201 24 98 q 28 270 24 231 q 42 348 33 308 q 168 581 74 490 q 376 672 262 672 q 471 639 431 672 l 471 639 q 448 747 464 697 q 422 808 437 780 l 233 716 l 217 760 l 398 848 q 250 958 343 923 l 280 1017 q 456 876 387 966 l 647 968 l 665 924 l 482 836 q 522 755 505 798 q 566 523 566 645 q 547 356 566 442 q 418 81 507 178 q 208 -15 332 -15 m 152 385 q 135 288 140 333 q 129 207 129 243 q 161 80 129 123 q 256 37 193 37 q 373 90 331 37 q 444 270 415 142 q 462 369 456 323 q 468 450 468 414 q 436 576 468 533 q 343 618 405 618 q 224 566 267 618 q 152 385 181 513 z "},"ñ":{"ha":772,"x_min":33,"x_max":713,"o":"m 66 0 q 120 222 99 128 l 170 452 q 180 546 183 518 q 157 574 178 574 q 116 559 144 574 q 45 513 88 544 l 33 540 q 174 636 116 602 q 255 670 231 670 q 287 637 281 670 q 277 540 293 605 l 235 362 l 237 361 q 239 360 239 360 l 239 360 q 308 452 269 405 q 626 669 486 669 q 669 637 663 669 q 656 519 675 605 l 609 330 l 575 188 q 563 103 561 127 q 585 79 565 79 q 626 95 597 79 q 700 145 654 112 l 713 119 q 577 22 633 56 q 497 -12 522 -12 q 456 25 463 -12 q 468 139 448 63 l 487 214 l 545 460 q 556 549 559 524 q 532 574 553 574 q 313 408 442 574 l 294 383 q 240 288 264 345 q 204 174 216 232 l 170 9 l 170 9 q 122 1 142 5 q 75 -14 102 -4 l 66 0 m 255 795 q 306 900 269 861 q 391 939 342 939 q 447 930 418 939 q 507 904 475 922 q 559 882 531 890 q 608 874 587 874 q 642 892 626 874 q 669 940 658 909 l 709 940 q 666 838 705 880 q 572 796 626 796 q 524 805 552 796 q 457 833 495 814 q 407 855 431 847 q 370 863 383 863 q 323 843 345 863 q 296 795 301 823 l 255 795 z "},"ò":{"ha":616,"x_min":24,"x_max":572,"o":"m 210 -15 q 72 41 121 -15 q 24 193 24 95 l 24 196 q 29 267 24 227 q 44 347 35 307 q 174 579 78 488 q 385 669 269 669 q 522 614 473 669 q 572 458 571 558 q 566 387 572 427 q 551 307 560 347 q 420 75 517 165 q 210 -15 326 -15 l 210 -15 m 260 37 q 370 90 330 37 q 441 270 411 142 q 461 368 454 322 q 467 450 467 414 q 434 575 467 532 q 334 617 400 617 q 224 564 266 617 q 153 384 184 512 q 134 286 141 332 q 128 204 127 240 q 162 80 128 122 q 260 37 195 37 l 260 37 m 431 749 l 431 749 l 197 892 l 190 897 q 168 930 172 912 l 168 937 q 180 965 168 952 q 214 982 194 981 q 254 968 235 983 l 260 962 l 477 749 l 477 749 l 431 749 z "},"ó":{"ha":616,"x_min":24,"x_max":578,"o":"m 210 -15 q 72 41 121 -15 q 24 193 24 95 l 24 196 q 29 267 24 227 q 44 347 35 307 q 174 579 78 488 q 385 669 269 669 q 522 614 473 669 q 572 458 571 558 q 566 387 572 427 q 551 307 560 347 q 420 75 517 165 q 210 -15 326 -15 l 210 -15 m 260 37 q 370 90 330 37 q 441 270 411 142 q 461 368 454 322 q 467 450 467 414 q 434 575 467 532 q 334 617 400 617 q 224 564 266 617 q 153 384 184 512 q 134 286 141 332 q 128 204 127 240 q 162 80 128 122 q 260 37 195 37 l 260 37 m 267 749 l 267 749 l 486 963 l 492 969 q 532 983 512 984 q 566 967 552 983 q 578 938 578 954 l 578 932 q 555 899 575 913 l 548 894 l 314 749 l 314 749 l 267 749 z "},"ô":{"ha":616,"x_min":24,"x_max":589,"o":"m 210 -15 q 72 41 121 -15 q 24 193 24 95 l 24 196 q 29 267 24 227 q 44 347 35 307 q 174 579 78 488 q 385 669 269 669 q 522 614 473 669 q 572 458 571 558 q 566 387 572 427 q 551 307 560 347 q 420 75 517 165 q 210 -15 326 -15 l 210 -15 m 260 37 q 370 90 330 37 q 441 270 411 142 q 461 368 454 322 q 467 450 467 414 q 434 575 467 532 q 334 617 400 617 q 224 564 266 617 q 153 384 184 512 q 134 286 141 332 q 128 204 127 240 q 162 80 128 122 q 260 37 195 37 l 260 37 m 466 971 l 589 736 l 540 736 l 424 881 l 424 881 l 234 736 l 179 736 l 398 971 l 432 971 l 466 971 z "},"õ":{"ha":616,"x_min":24,"x_max":628,"o":"m 210 -15 q 72 41 121 -15 q 24 193 24 95 l 24 196 q 29 267 24 227 q 44 347 35 307 q 174 579 78 488 q 385 669 269 669 q 522 614 473 669 q 572 458 571 558 q 566 387 572 427 q 551 307 560 347 q 420 75 517 165 q 210 -15 326 -15 l 210 -15 m 260 37 q 370 90 330 37 q 441 270 411 142 q 461 368 454 322 q 467 450 467 414 q 434 575 467 532 q 334 617 400 617 q 224 564 266 617 q 153 384 184 512 q 134 286 141 332 q 128 204 127 240 q 162 80 128 122 q 260 37 195 37 l 260 37 m 174 795 q 224 900 188 861 q 310 939 261 939 q 365 930 336 939 q 426 904 394 922 q 477 882 450 890 q 527 874 505 874 q 561 892 545 874 q 587 940 576 909 l 628 940 q 584 838 624 880 q 491 796 545 796 q 442 805 471 796 q 376 833 414 814 q 326 855 350 847 q 289 863 302 863 q 241 843 263 863 q 214 795 220 823 l 174 795 z "},"ö":{"ha":616,"x_min":24,"x_max":592,"o":"m 210 -15 q 72 41 121 -15 q 24 193 24 95 l 24 196 q 29 267 24 227 q 44 347 35 307 q 174 579 78 488 q 385 669 269 669 q 522 614 473 669 q 572 458 571 558 q 566 387 572 427 q 551 307 560 347 q 420 75 517 165 q 210 -15 326 -15 l 210 -15 m 260 37 q 370 90 330 37 q 441 270 411 142 q 461 368 454 322 q 467 450 467 414 q 434 575 467 532 q 334 617 400 617 q 224 564 266 617 q 153 384 184 512 q 134 286 141 332 q 128 204 127 240 q 162 80 128 122 q 260 37 195 37 l 260 37 m 245 913 q 294 892 273 913 q 314 844 314 872 q 294 795 314 816 q 245 775 273 775 q 196 795 216 775 q 176 844 176 816 q 196 892 176 872 q 245 913 216 913 m 523 913 q 572 892 551 913 q 592 844 592 872 q 572 795 592 816 q 523 775 551 775 q 474 795 494 775 q 454 844 454 816 q 474 892 454 872 q 523 913 494 913 z "},"÷":{"ha":842,"x_min":71,"x_max":772,"o":"m 421 138 q 470 118 450 138 q 490 69 490 98 q 470 20 490 41 q 421 0 450 0 q 372 20 393 0 q 352 69 352 41 q 372 118 352 98 q 421 138 393 138 m 71 389 l 772 389 l 772 311 l 71 311 l 71 389 m 421 699 q 470 679 450 699 q 490 630 490 659 q 470 581 490 602 q 421 561 450 561 q 372 581 393 561 q 352 630 352 602 q 372 679 352 659 q 421 699 393 699 z "},"ø":{"ha":616,"x_min":-24,"x_max":636,"o":"m 295 294 l 144 123 q 168 79 153 98 q 266 37 201 37 l 266 37 q 376 90 335 37 q 447 270 416 142 q 466 368 460 322 q 473 450 473 414 q 470 493 473 473 l 295 294 m 216 -15 q 77 41 127 -15 l 75 43 l 8 -33 l -24 -5 l 51 81 q 29 193 29 127 l 29 196 q 35 267 29 227 q 50 347 40 307 q 179 579 83 488 q 390 669 275 669 q 524 618 475 669 l 603 709 l 636 682 l 549 583 q 577 458 576 533 q 571 387 577 427 q 556 307 566 347 q 426 75 522 165 q 216 -15 331 -15 l 216 -15 m 340 617 q 230 564 271 617 q 159 384 190 512 q 140 286 146 332 q 134 204 133 240 l 134 176 l 316 382 l 457 543 q 439 575 450 562 q 340 617 406 617 z "},"ù":{"ha":772,"x_min":45,"x_max":710,"o":"m 289 540 l 242 339 l 210 193 q 200 106 197 132 q 227 81 203 81 q 436 261 299 81 l 453 285 q 508 383 482 324 q 551 505 534 442 l 587 647 l 587 647 l 635 659 l 684 671 l 690 658 q 604 342 633 475 l 573 189 q 562 103 561 127 q 576 79 562 79 q 622 95 592 79 q 697 145 652 112 l 710 119 q 574 22 631 56 q 493 -12 518 -12 q 450 25 458 -12 q 463 139 443 63 l 506 309 q 505 310 506 309 l 505 310 l 503 311 q 433 215 473 266 q 141 -16 254 -16 q 95 31 100 -16 l 94 46 q 118 201 94 96 l 123 222 l 172 444 q 185 544 186 514 q 170 574 185 574 q 128 559 156 574 q 56 513 100 544 l 45 540 q 185 636 127 602 q 267 670 243 670 q 300 637 294 670 q 289 540 305 605 m 519 749 l 519 749 l 286 892 l 278 897 q 256 930 260 912 l 256 937 q 268 965 256 952 q 302 982 282 981 q 342 968 323 983 l 349 962 l 566 749 l 566 749 l 519 749 z "},"ú":{"ha":772,"x_min":45,"x_max":710,"o":"m 289 540 l 242 339 l 210 193 q 200 106 197 132 q 227 81 203 81 q 436 261 299 81 l 453 285 q 508 383 482 324 q 551 505 534 442 l 587 647 l 587 647 l 635 659 l 684 671 l 690 658 q 604 342 633 475 l 573 189 q 562 103 561 127 q 576 79 562 79 q 622 95 592 79 q 697 145 652 112 l 710 119 q 574 22 631 56 q 493 -12 518 -12 q 450 25 458 -12 q 463 139 443 63 l 506 309 q 505 310 506 309 l 505 310 l 503 311 q 433 215 473 266 q 141 -16 254 -16 q 95 31 100 -16 l 94 46 q 118 201 94 96 l 123 222 l 172 444 q 185 544 186 514 q 170 574 185 574 q 128 559 156 574 q 56 513 100 544 l 45 540 q 185 636 127 602 q 267 670 243 670 q 300 637 294 670 q 289 540 305 605 m 355 749 l 355 749 l 574 963 l 581 969 q 620 983 600 984 q 654 967 640 983 q 667 938 667 954 l 666 932 q 644 899 663 913 l 636 894 l 402 749 l 402 749 l 355 749 z "},"û":{"ha":772,"x_min":45,"x_max":710,"o":"m 289 540 l 242 339 l 210 193 q 200 106 197 132 q 227 81 203 81 q 436 261 299 81 l 453 285 q 508 383 482 324 q 551 505 534 442 l 587 647 l 587 647 l 635 659 l 684 671 l 690 658 q 604 342 633 475 l 573 189 q 562 103 561 127 q 576 79 562 79 q 622 95 592 79 q 697 145 652 112 l 710 119 q 574 22 631 56 q 493 -12 518 -12 q 450 25 458 -12 q 463 139 443 63 l 506 309 q 505 310 506 309 l 505 310 l 503 311 q 433 215 473 266 q 141 -16 254 -16 q 95 31 100 -16 l 94 46 q 118 201 94 96 l 123 222 l 172 444 q 185 544 186 514 q 170 574 185 574 q 128 559 156 574 q 56 513 100 544 l 45 540 q 185 636 127 602 q 267 670 243 670 q 300 637 294 670 q 289 540 305 605 m 554 971 l 677 736 l 628 736 l 512 881 l 512 881 l 322 736 l 267 736 l 486 971 l 520 971 l 554 971 z "},"ü":{"ha":772,"x_min":45,"x_max":710,"o":"m 289 540 l 242 339 l 210 193 q 200 106 197 132 q 227 81 203 81 q 436 261 299 81 l 453 285 q 508 383 482 324 q 551 505 534 442 l 587 647 l 587 647 l 635 659 l 684 671 l 690 658 q 604 342 633 475 l 573 189 q 562 103 561 127 q 576 79 562 79 q 622 95 592 79 q 697 145 652 112 l 710 119 q 574 22 631 56 q 493 -12 518 -12 q 450 25 458 -12 q 463 139 443 63 l 506 309 q 505 310 506 309 l 505 310 l 503 311 q 433 215 473 266 q 141 -16 254 -16 q 95 31 100 -16 l 94 46 q 118 201 94 96 l 123 222 l 172 444 q 185 544 186 514 q 170 574 185 574 q 128 559 156 574 q 56 513 100 544 l 45 540 q 185 636 127 602 q 267 670 243 670 q 300 637 294 670 q 289 540 305 605 m 333 913 q 382 892 361 913 q 402 844 402 872 q 382 795 402 816 q 333 775 361 775 q 284 795 304 775 q 264 844 264 816 q 284 892 264 872 q 333 913 304 913 m 611 913 q 660 892 640 913 q 680 844 680 872 q 660 795 680 816 q 611 775 640 775 q 562 795 583 775 q 542 844 542 816 q 562 892 542 872 q 611 913 583 913 z "},"ý":{"ha":694,"x_min":-10,"x_max":687,"o":"m 71 -206 q 83 -292 60 -259 q 154 -326 106 -326 q 277 -252 222 -326 q 377 -26 332 -178 l 422 130 l 456 245 q 454 246 456 245 l 452 247 l 410 191 q 190 -16 256 -16 q 130 37 148 -16 q 127 163 120 65 l 143 334 l 150 417 q 153 533 157 498 q 135 568 150 568 q 89 553 117 568 q 20 508 60 538 l 7 534 q 144 634 87 599 q 224 670 201 670 q 253 628 245 670 q 253 501 260 586 l 247 435 q 229 183 237 321 q 232 117 225 141 q 256 92 239 92 q 386 201 296 92 q 461 319 427 250 q 514 457 495 388 l 564 644 l 687 676 q 566 307 612 462 l 491 56 q 323 -256 436 -128 q 103 -383 211 -383 q 14 -341 49 -383 q -10 -249 -21 -300 l 58 -201 l 71 -206 m 346 749 l 346 749 l 564 963 l 571 969 q 611 983 591 984 q 645 967 631 983 q 657 938 657 954 l 656 932 q 634 899 654 913 l 627 894 l 393 749 l 393 749 l 346 749 z "},"þ":{"ha":694,"x_min":-54,"x_max":600,"o":"m 176 825 q 182 913 191 896 q 124 930 174 930 l 71 930 l 77 957 q 186 977 140 966 q 297 1015 233 989 l 317 997 q 209 532 246 728 l 184 404 l 184 404 q 277 528 222 468 q 519 669 406 669 q 579 633 559 669 q 600 528 600 597 q 596 457 600 497 q 583 372 591 417 q 431 101 553 218 q 175 -15 309 -15 q 138 -2 163 -15 l 117 9 l 117 9 q 59 -366 88 -168 l 59 -366 q 2 -374 26 -370 q -54 -390 -21 -380 l -54 -390 q 77 312 21 17 q 176 825 119 536 m 248 52 q 395 141 332 52 q 489 395 457 231 q 497 452 494 426 q 500 500 500 478 q 487 566 500 543 q 448 588 474 588 q 271 471 367 588 q 221 404 243 437 q 175 305 193 359 q 143 165 157 252 l 130 85 l 130 85 q 182 60 154 69 q 248 52 213 52 z "},"ÿ":{"ha":694,"x_min":-10,"x_max":687,"o":"m 71 -206 q 83 -292 60 -259 q 154 -326 106 -326 q 277 -252 222 -326 q 377 -26 332 -178 l 422 130 l 456 245 q 454 246 456 245 l 452 247 l 410 191 q 190 -16 256 -16 q 130 37 148 -16 q 127 163 120 65 l 143 334 l 150 417 q 153 533 157 498 q 135 568 150 568 q 89 553 117 568 q 20 508 60 538 l 7 534 q 144 634 87 599 q 224 670 201 670 q 253 628 245 670 q 253 501 260 586 l 247 435 q 229 183 237 321 q 232 117 225 141 q 256 92 239 92 q 386 201 296 92 q 461 319 427 250 q 514 457 495 388 l 564 644 l 687 676 q 566 307 612 462 l 491 56 q 323 -256 436 -128 q 103 -383 211 -383 q 14 -341 49 -383 q -10 -249 -21 -300 l 58 -201 l 71 -206 m 323 913 q 372 892 352 913 q 393 844 393 872 q 372 795 393 816 q 323 775 352 775 q 275 795 295 775 q 254 844 254 816 q 275 892 254 872 q 323 913 295 913 m 602 913 q 650 892 630 913 q 671 844 671 872 q 650 795 671 816 q 602 775 630 775 q 553 795 573 775 q 532 844 532 816 q 553 892 532 872 q 602 913 573 913 z "},"Ā":{"ha":1003,"x_min":-26,"x_max":941,"o":"m 131 161 l 645 979 l 677 979 l 709 979 l 822 119 q 843 58 828 74 q 896 39 857 42 l 941 35 l 935 -4 q 765 0 837 0 q 593 -4 693 0 l 599 35 l 641 37 q 701 61 688 40 q 707 140 714 81 l 677 385 l 677 385 l 349 385 l 349 385 l 208 155 q 179 65 169 92 q 252 36 189 38 l 290 35 l 284 -4 q 130 0 195 0 q -26 -4 65 0 l -20 35 l 7 38 q 60 65 37 41 q 131 161 84 88 m 623 836 l 379 436 l 379 436 l 672 436 l 672 436 l 623 836 l 623 836 l 623 836 m 521 1120 l 894 1120 l 876 1040 l 503 1040 l 521 1120 z "},"ā":{"ha":616,"x_min":5,"x_max":583,"o":"m 54 -15 q 17 10 31 -15 q 5 77 5 34 l 5 82 q 14 179 5 121 q 39 307 23 237 q 172 566 77 463 q 374 669 267 669 q 445 661 407 669 q 504 643 475 655 l 504 643 l 552 667 l 552 667 l 567 653 l 566 653 q 508 438 530 528 l 449 185 q 436 102 435 125 q 452 79 437 79 q 485 95 460 79 q 553 144 510 111 l 566 119 q 439 22 491 56 q 367 -12 388 -12 q 333 25 338 -12 q 347 139 328 63 l 384 296 l 384 296 q 282 159 342 231 q 54 -15 136 -15 m 132 82 q 294 221 188 82 q 366 326 336 276 q 409 427 387 360 q 444 556 431 494 l 448 575 l 448 575 q 391 593 416 587 q 326 603 354 603 q 212 541 252 603 q 127 293 172 479 q 110 204 116 243 q 104 138 104 165 q 111 96 104 111 q 132 82 118 82 m 210 817 l 583 817 l 565 736 l 192 736 l 210 817 z "},"Ă":{"ha":1003,"x_min":-26,"x_max":941,"o":"m 131 161 l 645 979 l 677 979 l 709 979 l 822 119 q 843 58 828 74 q 896 39 857 42 l 941 35 l 935 -4 q 765 0 837 0 q 593 -4 693 0 l 599 35 l 641 37 q 701 61 688 40 q 707 140 714 81 l 677 385 l 677 385 l 349 385 l 349 385 l 208 155 q 179 65 169 92 q 252 36 189 38 l 290 35 l 284 -4 q 130 0 195 0 q -26 -4 65 0 l -20 35 l 7 38 q 60 65 37 41 q 131 161 84 88 m 623 836 l 379 436 l 379 436 l 672 436 l 672 436 l 623 836 l 623 836 l 623 836 m 682 1010 q 545 1067 591 1010 q 497 1232 498 1124 l 528 1232 q 575 1130 532 1166 q 691 1094 617 1094 q 805 1130 754 1094 q 885 1232 855 1166 l 916 1232 q 828 1065 886 1119 q 682 1010 771 1010 z "},"ă":{"ha":616,"x_min":5,"x_max":613,"o":"m 54 -15 q 17 10 31 -15 q 5 77 5 34 l 5 82 q 14 179 5 121 q 39 307 23 237 q 172 566 77 463 q 374 669 267 669 q 445 661 407 669 q 504 643 475 655 l 504 643 l 552 667 l 552 667 l 567 653 l 566 653 q 508 438 530 528 l 449 185 q 436 102 435 125 q 452 79 437 79 q 485 95 460 79 q 553 144 510 111 l 566 119 q 439 22 491 56 q 367 -12 388 -12 q 333 25 338 -12 q 347 139 328 63 l 384 296 l 384 296 q 282 159 342 231 q 54 -15 136 -15 m 132 82 q 294 221 188 82 q 366 326 336 276 q 409 427 387 360 q 444 556 431 494 l 448 575 l 448 575 q 391 593 416 587 q 326 603 354 603 q 212 541 252 603 q 127 293 172 479 q 110 204 116 243 q 104 138 104 165 q 111 96 104 111 q 132 82 118 82 m 379 747 q 242 804 289 747 q 195 969 195 861 l 225 969 q 272 867 230 903 q 389 831 315 831 q 502 867 452 831 q 583 969 553 903 l 613 969 q 526 802 583 856 q 379 747 469 747 z "},"Ą":{"ha":1003,"x_min":-26,"x_max":941,"o":"m 131 161 l 645 979 l 677 979 l 709 979 l 822 119 q 843 58 828 74 q 896 39 857 42 l 941 35 l 935 -4 q 765 0 837 0 q 593 -4 693 0 l 599 35 l 641 37 q 701 61 688 40 q 707 140 714 81 l 677 385 l 677 385 l 349 385 l 349 385 l 208 155 q 179 65 169 92 q 252 36 189 38 l 290 35 l 284 -4 q 130 0 195 0 q -26 -4 65 0 l -20 35 l 7 38 q 60 65 37 41 q 131 161 84 88 m 623 836 l 379 436 l 379 436 l 672 436 l 672 436 l 623 836 l 623 836 l 623 836 m 502 -145 q 529 -82 507 -114 q 597 -1 551 -50 l 645 -1 q 593 -67 606 -47 q 577 -111 581 -87 q 588 -163 572 -141 q 630 -185 604 -185 q 664 -173 646 -185 q 699 -138 682 -160 l 719 -144 q 651 -233 689 -201 q 572 -264 613 -264 q 514 -229 534 -264 q 502 -145 493 -195 z "},"ą":{"ha":616,"x_min":5,"x_max":567,"o":"m 54 -15 q 17 10 31 -15 q 5 77 5 34 l 5 82 q 14 179 5 121 q 39 307 23 237 q 172 566 77 463 q 374 669 267 669 q 445 661 407 669 q 504 643 475 655 l 504 643 l 552 667 l 552 667 l 567 653 l 566 653 q 508 438 530 528 l 449 185 q 436 102 435 125 q 452 79 437 79 q 485 95 460 79 q 553 144 510 111 l 566 119 q 439 22 491 56 q 367 -12 388 -12 q 333 25 338 -12 q 347 139 328 63 l 384 296 l 384 296 q 282 159 342 231 q 54 -15 136 -15 m 132 82 q 294 221 188 82 q 366 326 336 276 q 409 427 387 360 q 444 556 431 494 l 448 575 l 448 575 q 391 593 416 587 q 326 603 354 603 q 212 541 252 603 q 127 293 172 479 q 110 204 116 243 q 104 138 104 165 q 111 96 104 111 q 132 82 118 82 m 250 -145 q 277 -82 255 -114 q 345 -1 298 -50 l 393 -1 q 341 -67 353 -47 q 325 -111 329 -87 q 335 -163 319 -141 q 378 -185 351 -185 q 412 -173 393 -185 q 447 -138 430 -160 l 467 -144 q 399 -233 437 -201 q 320 -264 361 -264 q 262 -229 282 -264 q 250 -145 241 -195 z "},"Ć":{"ha":926,"x_min":62,"x_max":903,"o":"m 847 143 l 834 93 q 655 2 738 28 q 473 -25 573 -25 q 169 84 276 -25 q 62 393 62 193 l 62 395 q 225 813 63 646 q 631 981 388 981 q 761 967 693 981 q 903 924 828 953 q 882 821 890 864 q 867 719 875 779 l 829 719 l 829 719 l 830 836 q 720 889 784 871 q 569 906 656 906 q 291 774 395 906 q 186 418 186 642 q 274 144 186 241 q 524 48 361 48 q 679 72 608 48 q 833 153 750 96 l 847 143 m 541 1012 l 541 1012 l 759 1226 l 766 1232 q 805 1246 785 1247 q 840 1230 825 1246 q 852 1201 852 1217 l 851 1196 q 829 1162 848 1177 l 821 1157 l 587 1012 l 587 1012 l 541 1012 z "},"ć":{"ha":566,"x_min":35,"x_max":617,"o":"m 491 132 q 337 18 402 51 q 199 -15 272 -15 q 78 38 121 -15 q 35 186 35 91 q 40 262 34 220 q 56 347 45 304 q 111 484 75 426 q 197 574 146 542 q 253 608 206 580 q 317 646 300 636 q 359 663 336 657 q 406 669 382 669 q 468 662 435 669 q 538 637 500 654 q 519 547 526 585 q 506 457 512 509 l 473 457 l 473 457 l 477 519 q 475 551 479 541 q 456 572 471 562 q 427 589 442 583 q 363 602 397 602 q 239 554 287 602 q 168 410 191 507 q 147 304 154 353 q 140 218 140 255 q 171 97 140 138 q 262 56 201 56 q 353 81 301 56 q 479 160 404 106 l 491 132 m 306 749 l 306 749 l 524 963 l 531 969 q 571 983 551 984 q 605 967 591 983 q 617 938 617 954 l 616 932 q 594 899 614 913 l 587 894 l 353 749 l 353 749 l 306 749 z "},"Č":{"ha":926,"x_min":62,"x_max":903,"o":"m 847 143 l 834 93 q 655 2 738 28 q 473 -25 573 -25 q 169 84 276 -25 q 62 393 62 193 l 62 395 q 225 813 63 646 q 631 981 388 981 q 761 967 693 981 q 903 924 828 953 q 882 821 890 864 q 867 719 875 779 l 829 719 l 829 719 l 830 836 q 720 889 784 871 q 569 906 656 906 q 291 774 395 906 q 186 418 186 642 q 274 144 186 241 q 524 48 361 48 q 679 72 608 48 q 833 153 750 96 l 847 143 m 585 1025 l 463 1260 l 511 1260 l 627 1116 l 627 1116 l 817 1260 l 872 1260 l 652 1025 l 618 1025 l 585 1025 z "},"č":{"ha":566,"x_min":35,"x_max":664,"o":"m 491 132 q 337 18 402 51 q 199 -15 272 -15 q 78 38 121 -15 q 35 186 35 91 q 40 262 34 220 q 56 347 45 304 q 111 484 75 426 q 197 574 146 542 q 253 608 206 580 q 317 646 300 636 q 359 663 336 657 q 406 669 382 669 q 468 662 435 669 q 538 637 500 654 q 519 547 526 585 q 506 457 512 509 l 473 457 l 473 457 l 477 519 q 475 551 479 541 q 456 572 471 562 q 427 589 442 583 q 363 602 397 602 q 239 554 287 602 q 168 410 191 507 q 147 304 154 353 q 140 218 140 255 q 171 97 140 138 q 262 56 201 56 q 353 81 301 56 q 479 160 404 106 l 491 132 m 375 720 l 239 955 l 290 955 l 415 810 l 415 810 l 615 955 l 664 955 l 440 720 l 408 720 l 375 720 z "},"Ď":{"ha":1080,"x_min":39,"x_max":1031,"o":"m 132 138 l 250 817 q 253 901 262 884 q 193 920 243 917 l 140 922 l 146 961 l 330 957 l 330 957 l 595 961 q 923 874 816 961 q 1031 609 1031 787 l 1031 607 q 854 174 1031 351 q 427 -4 680 -4 l 163 0 l 163 0 l 39 -4 l 45 33 l 75 40 q 113 62 103 47 q 132 138 121 78 m 231 76 l 231 76 q 477 54 335 54 q 783 204 660 54 q 906 578 906 354 q 816 826 907 743 q 545 909 725 909 q 374 899 453 909 l 374 899 l 231 76 m 564 1025 l 442 1260 l 491 1260 l 607 1116 l 607 1116 l 797 1260 l 852 1260 l 632 1025 l 598 1025 l 564 1025 z "},"ď":{"ha":841,"x_min":26,"x_max":895,"o":"m 90 -15 q 42 17 60 -15 q 26 103 26 47 l 26 108 q 35 211 26 151 q 59 341 43 271 q 110 470 73 406 q 190 571 146 534 q 233 604 198 578 q 279 636 269 629 q 334 662 310 654 q 389 669 359 669 q 477 659 437 669 l 503 651 l 503 651 l 536 825 q 541 913 550 896 q 480 930 532 930 l 427 930 l 433 957 q 549 977 500 966 q 665 1015 597 989 l 684 997 q 604 663 636 805 l 500 186 q 490 102 488 125 q 511 79 492 79 q 551 95 523 79 q 625 145 580 112 l 638 119 q 504 22 559 56 q 426 -12 448 -12 q 387 25 394 -12 q 398 139 380 63 l 433 283 l 431 284 q 427 285 427 285 q 309 126 378 202 q 90 -15 182 -15 m 341 603 q 228 549 267 603 q 155 347 189 495 q 133 232 140 282 q 126 150 126 182 q 134 99 126 117 q 157 82 142 82 q 332 204 226 82 l 376 258 q 428 348 407 296 q 469 491 448 400 l 487 571 l 487 571 q 425 591 465 581 q 341 603 377 603 m 713 781 q 769 881 750 836 q 795 985 787 922 l 886 1015 l 895 1002 q 850 907 873 947 q 757 783 815 852 l 719 770 l 713 781 z "},"Đ":{"ha":1080,"x_min":26,"x_max":1028,"o":"m 38 -4 l 44 33 l 74 40 q 112 62 102 47 q 131 138 121 78 l 191 480 l 191 480 l 26 480 l 35 525 l 199 525 l 199 525 l 250 817 q 252 901 261 884 q 193 920 243 917 l 139 922 l 146 961 l 329 957 l 329 957 l 593 961 q 921 874 813 961 q 1028 610 1028 787 l 1028 608 q 852 174 1027 352 q 425 -4 677 -4 l 162 0 l 162 0 l 38 -4 m 374 899 l 374 899 l 309 525 l 309 525 l 571 525 l 563 480 l 300 480 l 300 480 l 230 76 l 230 76 q 475 54 334 54 q 780 204 657 54 q 903 578 903 355 q 813 826 903 743 q 543 909 722 909 q 374 899 452 909 z "},"đ":{"ha":694,"x_min":24,"x_max":808,"o":"m 102 -15 q 44 21 64 -15 q 24 123 24 56 q 32 221 24 165 q 54 343 39 278 q 110 483 71 420 q 196 576 148 545 q 261 612 209 585 q 331 646 314 639 q 376 663 356 657 q 406 669 395 669 q 507 659 463 669 l 538 649 l 538 649 l 570 791 l 438 791 l 446 825 l 577 825 q 585 913 593 896 q 528 930 577 930 l 475 930 l 481 957 q 589 977 544 966 q 699 1015 635 989 l 718 997 l 676 825 l 808 825 l 801 791 l 667 791 l 637 660 q 532 178 590 450 q 522 94 519 117 q 543 70 524 70 q 584 86 555 70 q 657 136 612 103 l 670 111 q 535 13 591 47 q 457 -21 480 -21 q 418 17 426 -21 q 428 130 411 54 l 465 296 l 465 296 q 336 126 414 207 q 102 -15 202 -15 m 346 603 q 227 551 271 603 q 157 377 184 499 q 133 255 141 309 q 125 167 125 202 q 137 103 126 125 q 168 82 147 82 q 358 204 243 82 q 408 262 385 233 q 463 357 441 304 q 503 493 484 409 l 521 571 l 521 571 q 450 591 497 581 q 346 603 393 603 z "},"Ē":{"ha":848,"x_min":41,"x_max":795,"o":"m 41 -4 l 47 33 l 82 40 q 125 62 115 47 q 145 138 135 78 l 264 817 q 267 901 275 884 q 207 920 258 918 l 153 922 l 160 961 l 398 957 l 398 957 l 795 961 l 795 961 q 774 853 781 899 q 762 744 767 807 l 729 744 l 723 841 q 707 886 720 876 q 642 899 694 895 q 557 902 597 902 q 387 895 483 902 l 387 895 l 322 522 l 322 522 l 391 522 q 568 525 483 522 q 673 532 652 528 q 680 522 681 525 q 651 458 671 494 q 569 463 631 461 q 425 465 507 465 l 312 465 l 312 465 l 242 62 l 242 62 q 427 54 345 54 q 564 58 489 54 q 657 75 635 62 q 692 140 678 88 l 715 225 l 753 225 q 730 111 739 159 q 716 -4 722 63 l 716 -4 l 231 0 l 231 0 l 41 -4 m 363 1120 l 736 1120 l 719 1040 l 346 1040 l 363 1120 z "},"ē":{"ha":541,"x_min":21,"x_max":562,"o":"m 178 -15 q 62 34 104 -15 q 21 170 21 82 q 25 230 20 197 q 37 298 29 263 q 96 461 58 392 q 181 566 133 531 q 248 611 220 593 q 294 638 276 629 q 352 662 326 654 q 401 669 379 669 q 487 640 456 669 q 518 559 518 610 q 433 406 518 468 q 165 303 349 345 l 136 296 l 136 296 l 130 258 q 126 197 125 224 q 157 87 126 125 q 248 50 188 50 q 336 75 286 50 q 456 155 386 100 l 467 130 q 307 20 376 54 q 178 -15 239 -15 m 347 611 q 224 545 272 611 q 143 330 176 479 l 143 329 l 173 335 q 348 415 279 357 q 416 539 416 472 q 398 593 416 575 q 347 611 381 611 m 189 817 l 562 817 l 544 736 l 171 736 l 189 817 z "},"Ė":{"ha":848,"x_min":41,"x_max":795,"o":"m 41 -4 l 47 33 l 82 40 q 125 62 115 47 q 145 138 135 78 l 264 817 q 267 901 275 884 q 207 920 258 918 l 153 922 l 160 961 l 398 957 l 398 957 l 795 961 l 795 961 q 774 853 781 899 q 762 744 767 807 l 729 744 l 723 841 q 707 886 720 876 q 642 899 694 895 q 557 902 597 902 q 387 895 483 902 l 387 895 l 322 522 l 322 522 l 391 522 q 568 525 483 522 q 673 532 652 528 q 680 522 681 525 q 651 458 671 494 q 569 463 631 461 q 425 465 507 465 l 312 465 l 312 465 l 242 62 l 242 62 q 427 54 345 54 q 564 58 489 54 q 657 75 635 62 q 692 140 678 88 l 715 225 l 753 225 q 730 111 739 159 q 716 -4 722 63 l 716 -4 l 231 0 l 231 0 l 41 -4 m 524 1187 q 577 1165 555 1187 q 599 1112 599 1143 q 577 1060 599 1082 q 524 1038 555 1038 q 470 1060 492 1038 q 448 1112 448 1082 q 470 1165 448 1143 q 524 1187 492 1187 z "},"ė":{"ha":541,"x_min":21,"x_max":518,"o":"m 178 -15 q 62 34 104 -15 q 21 170 21 82 q 25 230 20 197 q 37 298 29 263 q 96 461 58 392 q 181 566 133 531 q 248 611 220 593 q 294 638 276 629 q 352 662 326 654 q 401 669 379 669 q 487 640 456 669 q 518 559 518 610 q 433 406 518 468 q 165 303 349 345 l 136 296 l 136 296 l 130 258 q 126 197 125 224 q 157 87 126 125 q 248 50 188 50 q 336 75 286 50 q 456 155 386 100 l 467 130 q 307 20 376 54 q 178 -15 239 -15 m 347 611 q 224 545 272 611 q 143 330 176 479 l 143 329 l 173 335 q 348 415 279 357 q 416 539 416 472 q 398 593 416 575 q 347 611 381 611 m 357 924 q 411 902 389 924 q 433 849 433 880 q 411 797 433 819 q 357 774 389 774 q 304 797 326 774 q 282 849 282 819 q 304 902 282 880 q 357 924 326 924 z "},"Ę":{"ha":848,"x_min":41,"x_max":795,"o":"m 41 -4 l 47 33 l 82 40 q 125 62 115 47 q 145 138 135 78 l 264 817 q 267 901 275 884 q 207 920 258 918 l 153 922 l 160 961 l 398 957 l 398 957 l 795 961 l 795 961 q 774 853 781 899 q 762 744 767 807 l 729 744 l 723 841 q 707 886 720 876 q 642 899 694 895 q 557 902 597 902 q 387 895 483 902 l 387 895 l 322 522 l 322 522 l 391 522 q 568 525 483 522 q 673 532 652 528 q 680 522 681 525 q 651 458 671 494 q 569 463 631 461 q 425 465 507 465 l 312 465 l 312 465 l 242 62 l 242 62 q 427 54 345 54 q 564 58 489 54 q 657 75 635 62 q 692 140 678 88 l 715 225 l 753 225 q 730 111 739 159 q 716 -4 722 63 l 716 -4 l 231 0 l 231 0 l 41 -4 m 506 -145 q 533 -82 511 -114 q 602 -1 555 -50 l 649 -1 q 597 -67 610 -47 q 581 -111 585 -87 q 592 -163 576 -141 q 634 -185 608 -185 q 668 -173 650 -185 q 703 -138 686 -160 l 723 -144 q 655 -233 693 -201 q 576 -264 617 -264 q 518 -229 538 -264 q 506 -145 497 -195 z "},"ę":{"ha":541,"x_min":21,"x_max":518,"o":"m 178 -15 q 62 34 104 -15 q 21 170 21 82 q 25 230 20 197 q 37 298 29 263 q 96 461 58 392 q 181 566 133 531 q 248 611 220 593 q 294 638 276 629 q 352 662 326 654 q 401 669 379 669 q 487 640 456 669 q 518 559 518 610 q 433 406 518 468 q 165 303 349 345 l 136 296 l 136 296 l 130 258 q 126 197 125 224 q 157 87 126 125 q 248 50 188 50 q 336 75 286 50 q 456 155 386 100 l 467 130 q 307 20 376 54 q 178 -15 239 -15 m 347 611 q 224 545 272 611 q 143 330 176 479 l 143 329 l 173 335 q 348 415 279 357 q 416 539 416 472 q 398 593 416 575 q 347 611 381 611 m 122 -145 q 149 -82 127 -114 q 218 -1 171 -50 l 265 -1 q 214 -67 226 -47 q 197 -111 201 -87 q 208 -163 192 -141 q 250 -185 224 -185 q 284 -173 266 -185 q 319 -138 302 -160 l 339 -144 q 271 -233 309 -201 q 193 -264 233 -264 q 134 -229 155 -264 q 122 -145 113 -195 z "},"Ě":{"ha":848,"x_min":41,"x_max":795,"o":"m 41 -4 l 47 33 l 82 40 q 125 62 115 47 q 145 138 135 78 l 264 817 q 267 901 275 884 q 207 920 258 918 l 153 922 l 160 961 l 398 957 l 398 957 l 795 961 l 795 961 q 774 853 781 899 q 762 744 767 807 l 729 744 l 723 841 q 707 886 720 876 q 642 899 694 895 q 557 902 597 902 q 387 895 483 902 l 387 895 l 322 522 l 322 522 l 391 522 q 568 525 483 522 q 673 532 652 528 q 680 522 681 525 q 651 458 671 494 q 569 463 631 461 q 425 465 507 465 l 312 465 l 312 465 l 242 62 l 242 62 q 427 54 345 54 q 564 58 489 54 q 657 75 635 62 q 692 140 678 88 l 715 225 l 753 225 q 730 111 739 159 q 716 -4 722 63 l 716 -4 l 231 0 l 231 0 l 41 -4 m 474 1025 l 352 1260 l 401 1260 l 517 1116 l 517 1116 l 707 1260 l 762 1260 l 542 1025 l 508 1025 l 474 1025 z "},"ě":{"ha":541,"x_min":21,"x_max":599,"o":"m 178 -15 q 62 34 104 -15 q 21 170 21 82 q 25 230 20 197 q 37 298 29 263 q 96 461 58 392 q 181 566 133 531 q 248 611 220 593 q 294 638 276 629 q 352 662 326 654 q 401 669 379 669 q 487 640 456 669 q 518 559 518 610 q 433 406 518 468 q 165 303 349 345 l 136 296 l 136 296 l 130 258 q 126 197 125 224 q 157 87 126 125 q 248 50 188 50 q 336 75 286 50 q 456 155 386 100 l 467 130 q 307 20 376 54 q 178 -15 239 -15 m 347 611 q 224 545 272 611 q 143 330 176 479 l 143 329 l 173 335 q 348 415 279 357 q 416 539 416 472 q 398 593 416 575 q 347 611 381 611 m 310 720 l 174 955 l 225 955 l 350 810 l 350 810 l 550 955 l 599 955 l 375 720 l 342 720 l 310 720 z "},"Ğ":{"ha":1003,"x_min":69,"x_max":970,"o":"m 493 -25 q 179 78 289 -25 q 69 370 69 180 q 235 806 69 631 q 648 981 400 981 q 784 967 713 981 q 935 924 854 953 q 913 821 921 864 q 899 719 906 779 l 861 719 l 861 719 l 862 836 q 742 888 813 869 q 589 906 670 906 q 300 770 408 906 q 191 405 192 634 q 281 132 191 226 q 543 37 372 37 q 732 81 635 38 l 732 81 l 751 175 l 761 237 q 760 318 772 302 q 684 337 747 334 l 605 342 l 612 380 q 791 376 715 376 q 970 380 866 376 l 964 342 l 932 338 q 889 317 900 334 q 867 237 879 301 l 856 176 q 838 52 846 121 q 801 43 828 52 q 723 18 774 35 q 601 -15 655 -5 q 493 -25 547 -25 m 652 1010 q 515 1067 562 1010 q 467 1232 468 1124 l 498 1232 q 545 1130 503 1166 q 661 1094 587 1094 q 775 1130 724 1094 q 855 1232 825 1166 l 886 1232 q 799 1065 856 1119 q 652 1010 741 1010 z "},"ğ":{"ha":694,"x_min":-51,"x_max":693,"o":"m 298 143 q 312 99 295 126 q 356 50 329 72 l 444 -19 q 517 -103 496 -60 q 531 -192 539 -146 q 420 -328 517 -272 q 196 -383 323 -383 q 7 -330 79 -383 q -51 -199 -64 -276 q 31 -65 -37 -121 q 220 26 98 -9 l 220 26 l 208 39 q 193 72 191 59 q 217 120 197 96 q 290 191 237 144 l 290 191 q 245 189 268 189 q 121 232 165 189 q 78 355 77 275 q 79 386 78 370 q 83 418 81 403 q 189 595 101 520 q 378 669 276 669 q 516 625 467 669 q 546 587 534 608 l 546 587 l 693 597 l 680 529 l 564 527 l 564 527 l 566 498 q 564 470 565 485 q 560 439 562 454 q 452 259 541 330 q 328 198 396 215 l 328 198 q 309 172 318 188 q 298 143 300 156 m 340 623 q 239 580 284 623 q 183 473 195 538 q 177 427 179 449 q 175 385 175 404 q 207 273 174 311 q 302 235 239 235 q 404 278 359 235 q 460 384 449 320 q 467 431 465 408 q 469 473 469 453 q 436 585 469 547 q 340 623 404 623 m 40 -178 q 83 -297 27 -249 q 233 -346 140 -346 q 373 -309 312 -346 q 443 -218 434 -272 q 427 -157 448 -190 q 358 -85 406 -123 l 271 -16 l 248 3 l 248 3 q 103 -65 154 -20 q 40 -178 52 -109 m 391 747 q 254 804 301 747 q 207 969 208 861 l 237 969 q 284 867 242 903 q 401 831 327 831 q 514 867 464 831 q 595 969 565 903 l 625 969 q 538 802 595 856 q 391 747 481 747 z "},"Ģ":{"ha":1003,"x_min":69,"x_max":970,"o":"m 493 -25 q 179 78 289 -25 q 69 370 69 180 q 235 806 69 631 q 648 981 400 981 q 784 967 713 981 q 935 924 854 953 q 913 821 921 864 q 899 719 906 779 l 861 719 l 861 719 l 862 836 q 742 888 813 869 q 589 906 670 906 q 300 770 408 906 q 191 405 192 634 q 281 132 191 226 q 543 37 372 37 q 732 81 635 38 l 732 81 l 751 175 l 761 237 q 760 318 772 302 q 684 337 747 334 l 605 342 l 612 380 q 791 376 715 376 q 970 380 866 376 l 964 342 l 932 338 q 889 317 900 334 q 867 237 879 301 l 856 176 q 838 52 846 121 q 801 43 828 52 q 723 18 774 35 q 601 -15 655 -5 q 493 -25 547 -25 m 357 -295 q 412 -195 393 -240 q 439 -92 430 -155 l 530 -62 l 538 -75 q 493 -169 516 -130 q 400 -294 458 -224 l 362 -306 l 357 -295 z "},"ģ":{"ha":694,"x_min":-51,"x_max":693,"o":"m 298 143 q 312 99 295 126 q 356 50 329 72 l 444 -19 q 517 -103 496 -60 q 531 -192 539 -146 q 420 -328 517 -272 q 196 -383 323 -383 q 7 -330 79 -383 q -51 -199 -64 -276 q 31 -65 -37 -121 q 220 26 98 -9 l 220 26 l 208 39 q 193 72 191 59 q 217 120 197 96 q 290 191 237 144 l 290 191 q 245 189 268 189 q 121 232 165 189 q 78 355 77 275 q 79 386 78 370 q 83 418 81 403 q 189 595 101 520 q 378 669 276 669 q 516 625 467 669 q 546 587 534 608 l 546 587 l 693 597 l 680 529 l 564 527 l 564 527 l 566 498 q 564 470 565 485 q 560 439 562 454 q 452 259 541 330 q 328 198 396 215 l 328 198 q 309 172 318 188 q 298 143 300 156 m 340 623 q 239 580 284 623 q 183 473 195 538 q 177 427 179 449 q 175 385 175 404 q 207 273 174 311 q 302 235 239 235 q 404 278 359 235 q 460 384 449 320 q 467 431 465 408 q 469 473 469 453 q 436 585 469 547 q 340 623 404 623 m 40 -178 q 83 -297 27 -249 q 233 -346 140 -346 q 373 -309 312 -346 q 443 -218 434 -272 q 427 -157 448 -190 q 358 -85 406 -123 l 271 -16 l 248 3 l 248 3 q 103 -65 154 -20 q 40 -178 52 -109 m 500 970 q 444 870 463 915 q 418 766 427 829 l 327 736 l 318 749 q 363 844 340 804 q 456 968 398 899 l 494 981 l 500 970 z "},"Ī":{"ha":463,"x_min":9,"x_max":558,"o":"m 140 140 l 258 817 q 261 901 270 884 q 201 920 252 918 l 148 922 l 155 961 q 326 957 254 957 q 499 961 398 957 l 492 922 l 447 920 q 392 901 406 918 q 368 817 380 885 l 250 140 q 247 56 238 73 q 307 37 256 39 l 360 35 l 354 -4 q 183 0 255 0 q 9 -4 111 0 l 16 35 l 61 37 q 116 56 103 39 q 140 140 128 72 m 185 1120 l 558 1120 l 541 1040 l 168 1040 l 185 1120 z "},"ī":{"ha":386,"x_min":47,"x_max":502,"o":"m 86 140 l 109 220 l 171 446 q 191 544 191 515 q 168 574 190 574 q 130 559 157 574 q 58 513 102 544 l 47 540 q 193 636 133 602 q 276 670 252 670 q 306 637 302 670 q 291 540 309 605 l 237 340 l 197 189 q 182 103 182 127 q 201 79 183 79 q 245 96 216 79 q 319 145 275 112 l 331 120 q 198 23 252 57 q 121 -12 143 -12 q 73 26 82 -12 l 70 51 q 86 140 70 85 m 129 817 l 502 817 l 484 736 l 111 736 l 129 817 z "},"Į":{"ha":463,"x_min":9,"x_max":499,"o":"m 140 140 l 258 817 q 261 901 270 884 q 201 920 252 918 l 148 922 l 155 961 q 326 957 254 957 q 499 961 398 957 l 492 922 l 447 920 q 392 901 406 918 q 368 817 380 885 l 250 140 q 247 56 238 73 q 307 37 256 39 l 360 35 l 354 -4 q 183 0 255 0 q 9 -4 111 0 l 16 35 l 61 37 q 116 56 103 39 q 140 140 128 72 m 51 -145 q 78 -82 56 -114 q 146 -1 100 -50 l 194 -1 q 142 -67 155 -47 q 126 -111 130 -87 q 137 -163 121 -141 q 179 -185 153 -185 q 213 -173 195 -185 q 248 -138 231 -160 l 268 -144 q 200 -233 238 -201 q 121 -264 162 -264 q 63 -229 83 -264 q 51 -145 42 -195 z "},"į":{"ha":386,"x_min":7,"x_max":361,"o":"m 79 140 l 102 220 l 164 446 q 184 544 184 515 q 161 574 183 574 q 123 559 151 574 q 51 513 96 544 l 41 540 q 186 636 126 602 q 269 670 245 670 q 299 637 295 670 q 284 540 302 605 l 230 340 l 191 189 q 176 103 175 127 q 194 79 176 79 q 238 96 209 79 q 312 145 268 112 l 324 120 q 191 23 245 57 q 114 -12 136 -12 q 66 26 75 -12 l 63 51 q 79 140 63 85 m 317 989 q 356 967 343 989 q 361 915 369 945 q 327 862 352 884 q 275 840 302 840 q 236 862 249 840 q 232 915 223 884 q 265 967 240 945 q 317 989 290 989 m 7 -145 q 34 -82 12 -114 q 102 -1 56 -50 l 150 -1 q 98 -67 111 -47 q 82 -111 86 -87 q 93 -163 77 -141 q 135 -185 109 -185 q 169 -173 151 -185 q 204 -138 187 -160 l 224 -144 q 156 -233 194 -201 q 77 -264 118 -264 q 19 -229 39 -264 q 7 -145 -2 -195 z "},"İ":{"ha":463,"x_min":9,"x_max":499,"o":"m 140 140 l 258 817 q 261 901 270 884 q 201 920 252 918 l 148 922 l 155 961 q 326 957 254 957 q 499 961 398 957 l 492 922 l 447 920 q 392 901 406 918 q 368 817 380 885 l 250 140 q 247 56 238 73 q 307 37 256 39 l 360 35 l 354 -4 q 183 0 255 0 q 9 -4 111 0 l 16 35 l 61 37 q 116 56 103 39 q 140 140 128 72 m 364 1187 q 417 1165 395 1187 q 439 1112 439 1143 q 417 1060 439 1082 q 364 1038 395 1038 q 311 1060 333 1038 q 289 1112 289 1082 q 311 1165 289 1143 q 364 1187 333 1187 z "},"Ķ":{"ha":926,"x_min":18,"x_max":958,"o":"m 258 140 q 256 56 247 73 q 315 37 265 39 l 369 35 l 363 -4 q 192 0 264 0 q 18 -4 119 0 l 24 35 l 70 37 q 124 56 112 39 q 149 140 137 72 l 267 817 q 270 901 279 884 q 210 920 261 918 l 157 922 l 163 961 q 334 957 262 957 q 508 961 407 957 l 501 922 l 456 920 q 401 901 414 918 q 377 817 389 885 l 319 486 l 319 486 q 566 710 465 612 q 723 869 637 778 q 756 914 750 898 q 760 961 763 930 q 858 957 817 957 q 958 961 899 957 l 951 922 l 922 921 q 858 896 892 920 q 741 796 824 872 l 433 509 l 433 509 l 757 119 q 816 58 794 74 q 867 39 838 42 l 901 35 l 895 -4 q 802 0 842 0 q 707 -4 762 0 q 628 101 653 68 q 560 182 602 134 l 317 473 l 317 473 l 258 140 m 334 -295 q 389 -195 370 -240 q 416 -92 407 -155 l 507 -62 l 515 -75 q 470 -169 493 -130 q 377 -294 435 -224 l 339 -306 l 334 -295 z "},"ķ":{"ha":616,"x_min":11,"x_max":625,"o":"m 11 0 q 96 342 66 198 q 186 825 139 553 q 189 913 198 896 q 130 930 180 930 l 77 930 l 83 957 q 190 977 144 966 q 298 1015 235 989 l 319 997 l 181 333 l 181 333 l 208 370 q 372 559 275 459 q 508 659 448 635 q 625 656 568 682 l 602 567 q 496 571 555 588 q 380 502 437 553 q 313 438 345 470 l 313 438 q 371 279 344 351 q 432 131 397 212 q 457 87 446 99 q 483 75 469 75 q 527 86 502 75 q 582 120 551 97 l 595 95 q 492 16 537 44 q 425 -12 448 -12 q 387 14 407 -12 q 345 91 367 39 l 303 192 q 243 363 275 264 l 243 363 q 202 313 222 340 q 175 268 187 294 q 158 221 162 241 l 114 9 l 114 9 q 66 1 86 5 q 18 -14 46 -4 l 11 0 m 106 -295 q 161 -195 142 -240 q 188 -92 179 -155 l 279 -62 l 288 -75 q 242 -169 265 -130 q 149 -294 208 -224 l 111 -306 l 106 -295 z "},"Ĺ":{"ha":772,"x_min":22,"x_max":734,"o":"m 22 -4 l 28 33 l 63 40 q 106 62 96 47 q 126 138 116 78 l 245 817 q 247 901 256 884 q 188 920 238 917 l 134 922 l 141 961 q 312 957 240 957 q 486 961 385 957 l 479 922 l 433 920 q 378 901 392 918 q 355 817 366 885 l 223 62 l 223 62 q 408 54 326 54 q 545 58 469 54 q 638 75 616 62 q 673 140 659 89 l 696 225 l 734 225 q 711 111 720 159 q 697 -4 703 63 l 697 -4 l 212 0 l 212 0 l 22 -4 m 238 1012 l 238 1012 l 456 1226 l 463 1232 q 503 1246 483 1247 q 537 1230 523 1246 q 549 1201 549 1217 l 549 1196 q 526 1162 546 1177 l 519 1157 l 285 1012 l 285 1012 l 238 1012 z "},"ĺ":{"ha":386,"x_min":50,"x_max":518,"o":"m 61 139 l 109 342 l 213 825 q 220 913 229 896 q 160 930 211 930 l 107 930 l 113 957 q 222 977 176 966 q 331 1015 268 989 l 351 997 l 170 188 q 159 103 157 127 q 180 79 161 79 q 221 95 193 79 q 295 145 250 112 l 308 119 q 172 22 229 56 q 91 -12 116 -12 q 50 26 58 -12 q 61 139 43 63 m 207 1012 l 207 1012 l 425 1226 l 432 1232 q 472 1246 452 1247 q 506 1230 492 1246 q 518 1201 518 1217 l 517 1196 q 495 1162 515 1177 l 488 1157 l 254 1012 l 254 1012 l 207 1012 z "},"Ļ":{"ha":772,"x_min":22,"x_max":734,"o":"m 22 -4 l 28 33 l 63 40 q 106 62 96 47 q 126 138 116 78 l 245 817 q 247 901 256 884 q 188 920 238 917 l 134 922 l 141 961 q 312 957 240 957 q 486 961 385 957 l 479 922 l 433 920 q 378 901 392 918 q 355 817 366 885 l 223 62 l 223 62 q 408 54 326 54 q 545 58 469 54 q 638 75 616 62 q 673 140 659 89 l 696 225 l 734 225 q 711 111 720 159 q 697 -4 703 63 l 697 -4 l 212 0 l 212 0 l 22 -4 m 260 -295 q 315 -195 296 -240 q 342 -92 333 -155 l 433 -62 l 441 -75 q 396 -169 419 -130 q 303 -294 361 -224 l 265 -306 l 260 -295 z "},"ļ":{"ha":386,"x_min":-41,"x_max":378,"o":"m 87 139 l 136 342 l 239 825 q 246 913 255 896 q 186 930 237 930 l 134 930 l 140 957 q 248 977 203 966 q 357 1015 294 989 l 378 997 l 197 188 q 185 103 183 127 q 207 79 187 79 q 248 95 219 79 q 321 145 276 112 l 334 119 q 199 22 255 56 q 117 -12 142 -12 q 77 26 85 -12 q 87 139 69 63 m -41 -295 q 15 -195 -4 -240 q 41 -92 33 -155 l 132 -62 l 141 -75 q 96 -169 119 -130 q 3 -294 61 -224 l -35 -306 l -41 -295 z "},"Ľ":{"ha":772,"x_min":22,"x_max":738,"o":"m 22 -4 l 28 33 l 63 40 q 106 62 96 47 q 126 138 116 78 l 245 817 q 247 901 256 884 q 188 920 238 917 l 134 922 l 141 961 q 312 957 240 957 q 486 961 385 957 l 479 922 l 433 920 q 378 901 392 918 q 355 817 366 885 l 223 62 l 223 62 q 408 54 326 54 q 545 58 469 54 q 638 75 616 62 q 673 140 659 89 l 696 225 l 734 225 q 711 111 720 159 q 697 -4 703 63 l 697 -4 l 212 0 l 212 0 l 22 -4 m 556 728 q 612 827 593 783 q 638 931 629 868 l 729 961 l 738 948 q 692 854 715 893 q 600 729 658 798 l 562 717 l 556 728 z "},"ľ":{"ha":543,"x_min":75,"x_max":586,"o":"m 85 139 l 134 342 l 237 825 q 244 913 253 896 q 184 930 235 930 l 132 930 l 138 957 q 246 977 201 966 q 355 1015 292 989 l 376 997 l 195 188 q 183 103 181 127 q 205 79 185 79 q 245 95 217 79 q 319 145 274 112 l 332 119 q 197 22 253 56 q 115 -12 140 -12 q 75 26 83 -12 q 85 139 67 63 m 404 781 q 460 881 441 836 q 486 985 477 922 l 577 1015 l 586 1002 q 541 907 564 947 q 448 783 506 852 l 410 770 l 404 781 z "},"Ł":{"ha":772,"x_min":-20,"x_max":732,"o":"m 20 -4 l 26 33 l 60 40 q 103 62 93 47 q 123 138 113 78 l 172 418 l -5 323 l -20 362 l 182 471 l 242 817 q 244 901 254 884 q 185 920 235 917 l 132 922 l 138 961 q 309 957 237 957 q 483 961 382 957 l 476 922 l 431 920 q 376 901 389 918 q 352 817 363 885 l 302 536 l 500 642 l 515 602 l 294 483 l 220 62 l 220 62 q 406 54 323 54 q 543 58 467 54 q 635 75 614 62 q 671 140 656 89 l 694 225 l 732 225 q 709 111 718 159 q 694 -4 701 63 l 694 -4 l 210 0 l 210 0 l 20 -4 z "},"ł":{"ha":386,"x_min":-17,"x_max":416,"o":"m 56 139 l 104 342 l 131 470 l -1 387 l -17 427 l 144 528 l 208 825 q 214 913 223 896 q 155 930 205 930 l 102 930 l 108 957 q 216 977 171 966 q 326 1015 262 989 l 346 997 l 257 599 l 401 689 l 416 649 l 244 541 l 165 188 q 153 103 151 127 q 175 79 155 79 q 216 95 187 79 q 290 145 244 112 l 302 119 q 167 22 223 56 q 85 -12 111 -12 q 45 26 53 -12 q 56 139 37 63 z "},"Ń":{"ha":1080,"x_min":3,"x_max":1115,"o":"m 193 140 q 196 61 183 83 q 253 37 208 39 l 308 35 l 302 -4 q 153 0 216 0 q 3 -4 90 0 l 9 35 l 52 37 q 103 60 87 39 q 130 140 119 81 l 260 852 l 230 886 q 153 918 198 916 l 98 922 l 105 961 q 219 957 171 957 q 335 961 267 957 q 353 922 345 938 q 384 869 361 905 l 617 471 l 811 145 l 811 145 l 811 145 l 924 817 q 921 896 934 875 q 864 920 909 918 l 809 922 l 816 961 q 965 957 902 957 q 1115 961 1027 957 l 1108 922 l 1065 920 q 1014 897 1029 918 q 987 817 998 876 l 844 -11 l 810 -11 l 776 -11 l 307 783 l 307 783 l 307 783 l 193 140 m 556 1012 l 556 1012 l 774 1226 l 781 1232 q 821 1246 801 1247 q 855 1230 841 1246 q 867 1201 867 1217 l 867 1196 q 844 1162 864 1177 l 837 1157 l 603 1012 l 603 1012 l 556 1012 z "},"ń":{"ha":772,"x_min":33,"x_max":713,"o":"m 66 0 q 120 222 99 128 l 170 452 q 180 546 183 518 q 157 574 178 574 q 116 559 144 574 q 45 513 88 544 l 33 540 q 174 636 116 602 q 255 670 231 670 q 287 637 281 670 q 277 540 293 605 l 235 362 l 237 361 q 239 360 239 360 l 239 360 q 308 452 269 405 q 626 669 486 669 q 669 637 663 669 q 656 519 675 605 l 609 330 l 575 188 q 563 103 561 127 q 585 79 565 79 q 626 95 597 79 q 700 145 654 112 l 713 119 q 577 22 633 56 q 497 -12 522 -12 q 456 25 463 -12 q 468 139 448 63 l 487 214 l 545 460 q 556 549 559 524 q 532 574 553 574 q 313 408 442 574 l 294 383 q 240 288 264 345 q 204 174 216 232 l 170 9 l 170 9 q 122 1 142 5 q 75 -14 102 -4 l 66 0 m 349 749 l 349 749 l 567 963 l 574 969 q 613 983 593 984 q 648 967 633 983 q 660 938 660 954 l 659 932 q 637 899 656 913 l 629 894 l 395 749 l 395 749 l 349 749 z "},"Ņ":{"ha":1080,"x_min":3,"x_max":1115,"o":"m 193 140 q 196 61 183 83 q 253 37 208 39 l 308 35 l 302 -4 q 153 0 216 0 q 3 -4 90 0 l 9 35 l 52 37 q 103 60 87 39 q 130 140 119 81 l 260 852 l 230 886 q 153 918 198 916 l 98 922 l 105 961 q 219 957 171 957 q 335 961 267 957 q 353 922 345 938 q 384 869 361 905 l 617 471 l 811 145 l 811 145 l 811 145 l 924 817 q 921 896 934 875 q 864 920 909 918 l 809 922 l 816 961 q 965 957 902 957 q 1115 961 1027 957 l 1108 922 l 1065 920 q 1014 897 1029 918 q 987 817 998 876 l 844 -11 l 810 -11 l 776 -11 l 307 783 l 307 783 l 307 783 l 193 140 m 335 -295 q 391 -195 372 -240 q 417 -92 408 -155 l 508 -62 l 517 -75 q 471 -169 494 -130 q 378 -294 437 -224 l 340 -306 l 335 -295 z "},"ņ":{"ha":772,"x_min":33,"x_max":713,"o":"m 66 0 q 120 222 99 128 l 170 452 q 180 546 183 518 q 157 574 178 574 q 116 559 144 574 q 45 513 88 544 l 33 540 q 174 636 116 602 q 255 670 231 670 q 287 637 281 670 q 277 540 293 605 l 235 362 l 237 361 q 239 360 239 360 l 239 360 q 308 452 269 405 q 626 669 486 669 q 669 637 663 669 q 656 519 675 605 l 609 330 l 575 188 q 563 103 561 127 q 585 79 565 79 q 626 95 597 79 q 700 145 654 112 l 713 119 q 577 22 633 56 q 497 -12 522 -12 q 456 25 463 -12 q 468 139 448 63 l 487 214 l 545 460 q 556 549 559 524 q 532 574 553 574 q 313 408 442 574 l 294 383 q 240 288 264 345 q 204 174 216 232 l 170 9 l 170 9 q 122 1 142 5 q 75 -14 102 -4 l 66 0 m 156 -295 q 212 -195 193 -240 q 238 -92 229 -155 l 329 -62 l 338 -75 q 292 -169 315 -130 q 199 -294 258 -224 l 161 -306 l 156 -295 z "},"Ň":{"ha":1080,"x_min":3,"x_max":1115,"o":"m 193 140 q 196 61 183 83 q 253 37 208 39 l 308 35 l 302 -4 q 153 0 216 0 q 3 -4 90 0 l 9 35 l 52 37 q 103 60 87 39 q 130 140 119 81 l 260 852 l 230 886 q 153 918 198 916 l 98 922 l 105 961 q 219 957 171 957 q 335 961 267 957 q 353 922 345 938 q 384 869 361 905 l 617 471 l 811 145 l 811 145 l 811 145 l 924 817 q 921 896 934 875 q 864 920 909 918 l 809 922 l 816 961 q 965 957 902 957 q 1115 961 1027 957 l 1108 922 l 1065 920 q 1014 897 1029 918 q 987 817 998 876 l 844 -11 l 810 -11 l 776 -11 l 307 783 l 307 783 l 307 783 l 193 140 m 600 1025 l 478 1260 l 527 1260 l 643 1116 l 643 1116 l 833 1260 l 888 1260 l 668 1025 l 634 1025 l 600 1025 z "},"ň":{"ha":772,"x_min":33,"x_max":713,"o":"m 66 0 q 120 222 99 128 l 170 452 q 180 546 183 518 q 157 574 178 574 q 116 559 144 574 q 45 513 88 544 l 33 540 q 174 636 116 602 q 255 670 231 670 q 287 637 281 670 q 277 540 293 605 l 235 362 l 237 361 q 239 360 239 360 l 239 360 q 308 452 269 405 q 626 669 486 669 q 669 637 663 669 q 656 519 675 605 l 609 330 l 575 188 q 563 103 561 127 q 585 79 565 79 q 626 95 597 79 q 700 145 654 112 l 713 119 q 577 22 633 56 q 497 -12 522 -12 q 456 25 463 -12 q 468 139 448 63 l 487 214 l 545 460 q 556 549 559 524 q 532 574 553 574 q 313 408 442 574 l 294 383 q 240 288 264 345 q 204 174 216 232 l 170 9 l 170 9 q 122 1 142 5 q 75 -14 102 -4 l 66 0 m 418 720 l 282 955 l 333 955 l 458 810 l 458 810 l 658 955 l 707 955 l 483 720 l 450 720 l 418 720 z "},"Ō":{"ha":1080,"x_min":74,"x_max":1037,"o":"m 468 -25 q 176 76 279 -25 q 74 363 74 176 q 237 804 74 627 q 643 981 399 981 q 935 880 833 981 q 1037 592 1037 779 q 873 151 1037 328 q 468 -25 711 -25 l 468 -25 m 517 33 q 805 182 697 33 q 913 583 913 332 q 833 837 913 752 q 593 922 753 922 q 306 773 413 922 q 197 372 198 624 q 277 118 197 203 q 517 33 357 33 l 517 33 m 486 1120 l 859 1120 l 842 1040 l 469 1040 l 486 1120 z "},"ō":{"ha":616,"x_min":24,"x_max":588,"o":"m 210 -15 q 72 41 121 -15 q 24 193 24 95 l 24 196 q 29 267 24 227 q 44 347 35 307 q 174 579 78 488 q 385 669 269 669 q 522 614 473 669 q 572 458 571 558 q 566 387 572 427 q 551 307 560 347 q 420 75 517 165 q 210 -15 326 -15 l 210 -15 m 260 37 q 370 90 330 37 q 441 270 411 142 q 461 368 454 322 q 467 450 467 414 q 434 575 467 532 q 334 617 400 617 q 224 564 266 617 q 153 384 184 512 q 134 286 141 332 q 128 204 127 240 q 162 80 128 122 q 260 37 195 37 l 260 37 m 215 817 l 588 817 l 570 736 l 197 736 l 215 817 z "},"Ő":{"ha":1080,"x_min":74,"x_max":1037,"o":"m 468 -25 q 176 76 279 -25 q 74 363 74 176 q 237 804 74 627 q 643 981 399 981 q 935 880 833 981 q 1037 592 1037 779 q 873 151 1037 328 q 468 -25 711 -25 l 468 -25 m 517 33 q 805 182 697 33 q 913 583 913 332 q 833 837 913 752 q 593 922 753 922 q 306 773 413 922 q 197 372 198 624 q 277 118 197 203 q 517 33 357 33 l 517 33 m 498 1012 l 498 1012 l 656 1279 l 661 1285 q 693 1308 675 1304 q 728 1298 711 1311 q 746 1266 744 1285 q 734 1227 748 1246 l 729 1221 l 545 1012 l 545 1012 l 498 1012 m 718 1012 l 718 1012 l 876 1279 l 880 1285 q 912 1308 894 1304 q 947 1298 930 1311 q 965 1265 963 1285 q 954 1227 967 1246 l 948 1221 l 764 1012 l 764 1012 l 718 1012 z "},"ő":{"ha":616,"x_min":24,"x_max":685,"o":"m 210 -15 q 72 41 121 -15 q 24 193 24 95 l 24 196 q 29 267 24 227 q 44 347 35 307 q 174 579 78 488 q 385 669 269 669 q 522 614 473 669 q 572 458 571 558 q 566 387 572 427 q 551 307 560 347 q 420 75 517 165 q 210 -15 326 -15 l 210 -15 m 260 37 q 370 90 330 37 q 441 270 411 142 q 461 368 454 322 q 467 450 467 414 q 434 575 467 532 q 334 617 400 617 q 224 564 266 617 q 153 384 184 512 q 134 286 141 332 q 128 204 127 240 q 162 80 128 122 q 260 37 195 37 l 260 37 m 218 749 l 218 749 l 376 1016 l 380 1022 q 413 1044 395 1041 q 448 1035 431 1048 q 466 1003 464 1022 q 454 964 468 983 l 449 958 l 264 749 l 264 749 l 218 749 m 437 749 l 437 749 l 595 1016 l 600 1022 q 632 1044 614 1041 q 667 1035 650 1048 q 685 1002 683 1022 q 673 964 687 983 l 668 958 l 484 749 l 484 749 l 437 749 z "},"Œ":{"ha":1428,"x_min":78,"x_max":1374,"o":"m 618 981 q 857 891 775 981 q 879 861 869 877 l 879 861 l 896 957 l 1006 957 l 1006 957 l 1374 961 l 1374 961 q 1353 853 1360 899 q 1341 744 1346 807 l 1308 744 l 1302 841 q 1286 886 1299 876 q 1221 899 1273 895 q 1148 901 1183 901 q 995 896 1080 901 l 995 896 l 930 522 l 930 522 l 970 522 q 1147 525 1062 522 q 1253 532 1232 528 q 1261 522 1261 526 q 1240 458 1256 495 q 1157 463 1219 461 q 1014 465 1095 465 l 920 465 l 920 465 l 850 63 l 850 63 q 1023 55 946 56 q 1145 60 1080 54 q 1239 78 1217 65 q 1274 140 1260 92 l 1297 225 l 1335 225 q 1312 111 1320 159 q 1297 -4 1303 63 l 1297 -4 l 839 0 l 839 0 l 729 0 l 748 112 l 748 112 q 435 -22 618 -22 q 172 78 266 -22 q 78 361 78 179 q 233 804 78 627 q 618 981 387 981 m 583 922 q 308 772 413 922 q 201 379 202 622 q 268 127 201 218 q 452 36 334 36 q 733 217 620 36 l 750 245 q 777 309 762 268 q 796 385 789 349 l 834 605 q 842 685 841 643 q 838 750 843 727 q 781 859 823 817 q 583 922 715 922 z "},"œ":{"ha":929,"x_min":24,"x_max":909,"o":"m 377 669 q 518 614 469 669 q 557 538 545 584 l 557 538 l 572 554 q 792 669 686 669 q 878 640 846 669 q 909 559 909 610 q 823 406 909 468 q 555 298 739 343 l 534 294 l 534 294 l 527 248 q 522 184 522 213 q 551 82 522 115 q 642 50 581 50 q 730 74 681 50 q 850 151 780 98 l 858 123 q 701 18 769 51 q 569 -15 632 -15 q 458 43 502 -15 q 431 94 441 66 l 431 94 l 418 81 q 214 -15 319 -15 q 72 38 121 -15 q 24 193 23 91 q 29 265 24 226 q 43 347 34 304 q 172 574 73 479 q 377 669 270 669 m 328 617 q 221 560 264 617 q 152 383 178 503 q 135 290 140 334 q 130 210 130 246 q 163 81 130 125 q 263 37 197 37 q 371 90 332 37 q 439 271 410 142 q 456 364 450 320 q 462 444 462 408 q 427 573 462 529 q 328 617 394 617 m 740 611 q 621 550 663 611 q 541 328 578 489 l 541 326 l 562 330 q 743 412 680 357 q 807 541 806 467 q 790 593 806 576 q 740 611 774 611 z "},"Ŕ":{"ha":926,"x_min":12,"x_max":895,"o":"m 151 140 l 269 817 q 272 901 281 884 q 212 920 263 918 l 159 922 l 165 961 l 349 957 l 349 957 l 568 961 q 749 913 686 961 q 812 776 812 865 q 702 567 812 650 q 521 491 625 509 l 521 491 l 678 262 l 772 119 q 822 58 803 74 q 865 39 840 42 l 895 35 l 888 -4 q 800 0 837 0 q 709 -4 762 0 l 709 -4 q 538 262 610 151 q 374 505 470 366 l 380 526 l 416 524 q 614 587 540 524 q 688 756 688 650 q 642 871 688 833 q 501 910 595 910 q 393 899 446 910 l 393 899 l 260 140 q 258 56 249 73 q 317 37 267 40 l 371 35 l 365 -4 q 189 0 263 0 q 12 -4 115 0 l 18 35 l 67 37 q 126 56 113 39 q 151 140 139 73 m 455 1012 l 455 1012 l 673 1226 l 680 1232 q 720 1246 700 1247 q 754 1230 740 1246 q 766 1201 766 1217 l 766 1196 q 743 1162 763 1177 l 736 1157 l 502 1012 l 502 1012 l 455 1012 z "},"ŕ":{"ha":541,"x_min":36,"x_max":592,"o":"m 69 0 q 123 222 102 128 l 173 452 q 183 546 186 518 q 160 574 180 574 q 119 559 147 574 q 47 513 91 544 l 36 540 q 176 636 119 602 q 258 670 234 670 q 290 637 284 670 q 279 540 296 605 l 240 374 l 241 372 q 245 374 243 372 l 245 374 l 290 451 q 503 669 425 669 q 518 667 511 669 q 533 661 526 665 q 519 584 524 616 q 510 507 514 551 l 491 507 q 470 527 484 519 q 440 534 457 534 q 357 483 406 534 q 265 345 306 430 q 205 165 224 259 l 173 9 l 173 9 q 125 1 145 5 q 77 -14 105 -4 l 69 0 m 281 749 l 281 749 l 499 963 l 506 969 q 546 983 526 984 q 580 967 566 983 q 592 938 592 954 l 591 932 q 569 899 589 913 l 562 894 l 328 749 l 328 749 l 281 749 z "},"Ŗ":{"ha":926,"x_min":12,"x_max":895,"o":"m 151 140 l 269 817 q 272 901 281 884 q 212 920 263 918 l 159 922 l 165 961 l 349 957 l 349 957 l 568 961 q 749 913 686 961 q 812 776 812 865 q 702 567 812 650 q 521 491 625 509 l 521 491 l 678 262 l 772 119 q 822 58 803 74 q 865 39 840 42 l 895 35 l 888 -4 q 800 0 837 0 q 709 -4 762 0 l 709 -4 q 538 262 610 151 q 374 505 470 366 l 380 526 l 416 524 q 614 587 540 524 q 688 756 688 650 q 642 871 688 833 q 501 910 595 910 q 393 899 446 910 l 393 899 l 260 140 q 258 56 249 73 q 317 37 267 40 l 371 35 l 365 -4 q 189 0 263 0 q 12 -4 115 0 l 18 35 l 67 37 q 126 56 113 39 q 151 140 139 73 m 350 -295 q 406 -195 387 -240 q 432 -92 423 -155 l 523 -62 l 532 -75 q 486 -169 509 -130 q 393 -294 452 -224 l 355 -306 l 350 -295 z "},"ŗ":{"ha":541,"x_min":-17,"x_max":541,"o":"m 77 0 q 130 222 109 128 l 180 452 q 191 546 193 518 q 168 574 188 574 q 126 559 155 574 q 55 513 98 544 l 43 540 q 184 636 126 602 q 265 670 241 670 q 297 637 292 670 q 287 540 303 605 l 248 374 l 249 372 q 252 374 251 372 l 252 374 l 297 451 q 511 669 433 669 q 526 667 518 669 q 541 661 533 665 q 526 584 531 616 q 517 507 522 551 l 498 507 q 478 527 491 519 q 448 534 465 534 q 365 483 414 534 q 272 345 313 430 q 212 165 231 259 l 180 9 l 180 9 q 132 1 153 5 q 85 -14 113 -4 l 77 0 m -17 -295 q 39 -195 20 -240 q 65 -92 56 -155 l 156 -62 l 165 -75 q 119 -169 142 -130 q 26 -294 85 -224 l -12 -306 l -17 -295 z "},"Ř":{"ha":926,"x_min":12,"x_max":895,"o":"m 151 140 l 269 817 q 272 901 281 884 q 212 920 263 918 l 159 922 l 165 961 l 349 957 l 349 957 l 568 961 q 749 913 686 961 q 812 776 812 865 q 702 567 812 650 q 521 491 625 509 l 521 491 l 678 262 l 772 119 q 822 58 803 74 q 865 39 840 42 l 895 35 l 888 -4 q 800 0 837 0 q 709 -4 762 0 l 709 -4 q 538 262 610 151 q 374 505 470 366 l 380 526 l 416 524 q 614 587 540 524 q 688 756 688 650 q 642 871 688 833 q 501 910 595 910 q 393 899 446 910 l 393 899 l 260 140 q 258 56 249 73 q 317 37 267 40 l 371 35 l 365 -4 q 189 0 263 0 q 12 -4 115 0 l 18 35 l 67 37 q 126 56 113 39 q 151 140 139 73 m 499 1025 l 377 1260 l 426 1260 l 542 1116 l 542 1116 l 732 1260 l 787 1260 l 567 1025 l 533 1025 l 499 1025 z "},"ř":{"ha":541,"x_min":36,"x_max":639,"o":"m 69 0 q 123 222 102 128 l 173 452 q 183 546 186 518 q 160 574 180 574 q 119 559 147 574 q 47 513 91 544 l 36 540 q 176 636 119 602 q 258 670 234 670 q 290 637 284 670 q 279 540 296 605 l 240 374 l 241 372 q 245 374 243 372 l 245 374 l 290 451 q 503 669 425 669 q 518 667 511 669 q 533 661 526 665 q 519 584 524 616 q 510 507 514 551 l 491 507 q 470 527 484 519 q 440 534 457 534 q 357 483 406 534 q 265 345 306 430 q 205 165 224 259 l 173 9 l 173 9 q 125 1 145 5 q 77 -14 105 -4 l 69 0 m 350 720 l 214 955 l 265 955 l 390 810 l 390 810 l 590 955 l 639 955 l 415 720 l 382 720 l 350 720 z "},"Ś":{"ha":772,"x_min":58,"x_max":738,"o":"m 626 743 l 626 743 l 626 848 q 558 896 600 878 q 469 913 515 913 q 323 867 381 913 q 251 738 266 821 q 277 600 235 646 q 439 530 319 553 q 635 444 581 502 q 675 331 675 400 q 670 280 675 307 q 531 63 648 152 q 269 -25 415 -25 q 156 -9 221 -25 q 58 28 92 7 l 58 28 l 93 242 l 135 242 l 135 242 l 134 104 q 224 60 170 77 q 329 42 279 42 q 487 92 429 42 q 564 241 546 142 q 536 363 577 321 q 380 427 496 404 q 186 519 239 454 q 149 640 149 566 q 155 705 149 670 q 280 901 175 821 q 517 981 385 981 q 615 967 562 981 q 701 933 669 954 q 681 838 688 878 q 668 743 674 798 l 626 743 m 427 1012 l 427 1012 l 645 1226 l 652 1232 q 691 1246 671 1247 q 726 1230 711 1246 q 738 1201 738 1217 l 737 1196 q 715 1162 734 1177 l 707 1157 l 473 1012 l 473 1012 l 427 1012 z "},"ś":{"ha":541,"x_min":12,"x_max":538,"o":"m 421 475 l 421 475 l 421 552 q 369 598 401 582 q 294 614 336 614 q 195 583 233 614 q 149 496 156 551 q 172 419 141 445 q 284 383 203 393 q 429 331 385 370 q 465 248 466 299 q 464 224 466 237 q 357 59 451 134 q 164 -15 265 -15 q 83 -4 129 -15 q 12 20 37 6 q 31 113 24 74 q 44 206 39 153 l 77 206 l 77 206 l 77 91 q 133 55 95 69 q 210 41 170 41 q 321 76 281 41 q 372 182 362 111 q 345 258 379 233 q 222 296 311 284 q 95 351 133 307 q 66 439 66 385 l 69 474 q 166 604 78 538 q 333 669 255 669 q 409 660 371 669 q 479 634 447 651 q 463 555 468 589 q 454 475 458 522 l 421 475 m 227 749 l 227 749 l 445 963 l 452 969 q 491 983 471 984 q 526 967 511 983 q 538 938 538 954 l 537 932 q 515 899 534 913 l 507 894 l 273 749 l 273 749 l 227 749 z "},"Ş":{"ha":772,"x_min":58,"x_max":701,"o":"m 626 743 l 626 743 l 626 848 q 558 896 600 878 q 469 913 515 913 q 323 867 381 913 q 251 738 266 821 q 277 600 235 646 q 439 530 319 553 q 635 444 581 502 q 675 331 675 400 q 670 280 675 307 q 531 63 648 152 q 269 -25 415 -25 q 156 -9 221 -25 q 58 28 92 7 l 58 28 l 93 242 l 135 242 l 135 242 l 134 104 q 224 60 170 77 q 329 42 279 42 q 487 92 429 42 q 564 241 546 142 q 536 363 577 321 q 380 427 496 404 q 186 519 239 454 q 149 640 149 566 q 155 705 149 670 q 280 901 175 821 q 517 981 385 981 q 615 967 562 981 q 701 933 669 954 q 681 838 688 878 q 668 743 674 798 l 626 743 m 377 1 l 315 -89 l 315 -89 q 346 -86 331 -86 q 439 -119 408 -86 q 460 -208 470 -152 q 406 -275 453 -250 q 285 -300 358 -300 q 239 -294 263 -300 q 170 -272 214 -288 l 193 -231 q 250 -246 225 -241 q 291 -251 275 -251 q 339 -236 321 -251 q 362 -195 357 -222 q 349 -153 367 -170 q 300 -136 330 -136 q 275 -138 288 -136 q 251 -144 261 -140 l 239 -133 l 325 1 l 377 1 z "},"ş":{"ha":541,"x_min":12,"x_max":479,"o":"m 421 475 l 421 475 l 421 552 q 369 598 401 582 q 294 614 336 614 q 195 583 233 614 q 149 496 156 551 q 172 419 141 445 q 284 383 203 393 q 429 331 385 370 q 465 248 466 299 q 464 224 466 237 q 357 59 451 134 q 164 -15 265 -15 q 83 -4 129 -15 q 12 20 37 6 q 31 113 24 74 q 44 206 39 153 l 77 206 l 77 206 l 77 91 q 133 55 95 69 q 210 41 170 41 q 321 76 281 41 q 372 182 362 111 q 345 258 379 233 q 222 296 311 284 q 95 351 133 307 q 66 439 66 385 l 69 474 q 166 604 78 538 q 333 669 255 669 q 409 660 371 669 q 479 634 447 651 q 463 555 468 589 q 454 475 458 522 l 421 475 m 223 1 l 161 -89 l 161 -89 q 192 -86 177 -86 q 285 -119 254 -86 q 307 -208 316 -152 q 252 -275 299 -250 q 131 -300 204 -300 q 85 -294 109 -300 q 16 -272 60 -288 l 39 -231 q 96 -246 71 -241 q 137 -251 121 -251 q 185 -236 167 -251 q 208 -195 203 -222 q 195 -153 213 -170 q 146 -136 176 -136 q 121 -138 134 -136 q 97 -144 107 -140 l 85 -133 l 171 1 l 223 1 z "},"Š":{"ha":772,"x_min":58,"x_max":758,"o":"m 626 743 l 626 743 l 626 848 q 558 896 600 878 q 469 913 515 913 q 323 867 381 913 q 251 738 266 821 q 277 600 235 646 q 439 530 319 553 q 635 444 581 502 q 675 331 675 400 q 670 280 675 307 q 531 63 648 152 q 269 -25 415 -25 q 156 -9 221 -25 q 58 28 92 7 l 58 28 l 93 242 l 135 242 l 135 242 l 134 104 q 224 60 170 77 q 329 42 279 42 q 487 92 429 42 q 564 241 546 142 q 536 363 577 321 q 380 427 496 404 q 186 519 239 454 q 149 640 149 566 q 155 705 149 670 q 280 901 175 821 q 517 981 385 981 q 615 967 562 981 q 701 933 669 954 q 681 838 688 878 q 668 743 674 798 l 626 743 m 471 1025 l 349 1260 l 397 1260 l 513 1116 l 513 1116 l 703 1260 l 758 1260 l 538 1025 l 505 1025 l 471 1025 z "},"š":{"ha":541,"x_min":12,"x_max":585,"o":"m 421 475 l 421 475 l 421 552 q 369 598 401 582 q 294 614 336 614 q 195 583 233 614 q 149 496 156 551 q 172 419 141 445 q 284 383 203 393 q 429 331 385 370 q 465 248 466 299 q 464 224 466 237 q 357 59 451 134 q 164 -15 265 -15 q 83 -4 129 -15 q 12 20 37 6 q 31 113 24 74 q 44 206 39 153 l 77 206 l 77 206 l 77 91 q 133 55 95 69 q 210 41 170 41 q 321 76 281 41 q 372 182 362 111 q 345 258 379 233 q 222 296 311 284 q 95 351 133 307 q 66 439 66 385 l 69 474 q 166 604 78 538 q 333 669 255 669 q 409 660 371 669 q 479 634 447 651 q 463 555 468 589 q 454 475 458 522 l 421 475 m 296 720 l 160 955 l 211 955 l 336 810 l 336 810 l 536 955 l 585 955 l 361 720 l 328 720 l 296 720 z "},"Ţ":{"ha":848,"x_min":74,"x_max":881,"o":"m 300 140 l 433 898 l 433 898 l 271 898 q 167 889 189 898 q 137 842 145 880 l 115 732 l 74 732 l 87 846 l 100 961 l 100 961 l 498 957 l 498 957 l 881 961 l 881 961 l 863 846 l 845 732 l 804 732 l 814 808 q 801 883 822 868 q 689 898 781 898 l 543 898 l 543 898 l 410 140 q 408 55 398 71 q 475 37 418 39 l 535 35 l 529 -4 q 344 0 422 0 q 157 -4 266 0 l 163 35 l 214 37 q 275 56 261 39 q 300 140 288 72 m 357 1 l 296 -89 l 296 -89 q 326 -86 311 -86 q 419 -119 389 -86 q 441 -208 450 -152 q 386 -275 433 -250 q 265 -300 338 -300 q 219 -294 243 -300 q 151 -272 195 -288 l 173 -231 q 230 -246 205 -241 q 271 -251 255 -251 q 319 -236 301 -251 q 342 -195 338 -222 q 329 -153 347 -170 q 281 -136 311 -136 q 255 -138 269 -136 q 231 -144 241 -140 l 220 -133 l 305 1 l 357 1 z "},"ţ":{"ha":463,"x_min":-41,"x_max":438,"o":"m 100 139 l 134 302 l 178 541 l 178 541 l 61 541 l 64 560 l 188 604 l 188 604 l 195 642 q 212 749 204 690 q 222 845 220 808 l 329 896 l 348 875 q 333 830 342 865 q 314 754 323 795 l 283 604 l 283 604 l 349 604 q 402 606 376 604 q 438 610 428 608 l 422 541 l 360 541 l 269 541 l 269 541 l 250 441 l 204 187 q 195 100 193 124 q 213 75 197 75 q 263 98 227 75 q 359 165 299 120 l 373 140 q 224 22 281 58 q 129 -12 168 -12 q 92 26 99 -12 q 100 139 84 63 m 166 1 l 104 -89 l 104 -89 q 135 -86 120 -86 q 228 -119 197 -86 q 250 -208 259 -152 q 195 -275 242 -250 q 74 -300 147 -300 q 28 -294 52 -300 q -41 -272 3 -288 l -18 -231 q 39 -246 14 -241 q 80 -251 64 -251 q 128 -236 110 -251 q 151 -195 146 -222 q 138 -153 156 -170 q 90 -136 119 -136 q 64 -138 77 -136 q 40 -144 50 -140 l 28 -133 l 114 1 l 166 1 z "},"Ť":{"ha":848,"x_min":74,"x_max":881,"o":"m 300 140 l 433 898 l 433 898 l 271 898 q 167 889 189 898 q 137 842 145 880 l 115 732 l 74 732 l 87 846 l 100 961 l 100 961 l 498 957 l 498 957 l 881 961 l 881 961 l 863 846 l 845 732 l 804 732 l 814 808 q 801 883 822 868 q 689 898 781 898 l 543 898 l 543 898 l 410 140 q 408 55 398 71 q 475 37 418 39 l 535 35 l 529 -4 q 344 0 422 0 q 157 -4 266 0 l 163 35 l 214 37 q 275 56 261 39 q 300 140 288 72 m 456 1025 l 334 1260 l 382 1260 l 498 1116 l 498 1116 l 688 1260 l 743 1260 l 524 1025 l 490 1025 l 456 1025 z "},"ť":{"ha":624,"x_min":88,"x_max":645,"o":"m 127 139 l 161 302 l 205 541 l 205 541 l 88 541 l 92 560 l 215 604 l 215 604 l 222 642 q 239 749 231 690 q 250 845 247 808 l 356 896 l 375 875 q 360 830 370 865 q 341 754 350 795 l 310 604 l 310 604 l 376 604 q 429 606 404 604 q 465 610 455 608 l 450 541 l 387 541 l 296 541 l 296 541 l 277 441 l 231 187 q 222 100 220 124 q 240 75 224 75 q 290 98 254 75 q 386 165 326 120 l 400 140 q 251 22 308 58 q 156 -12 195 -12 q 119 26 126 -12 q 127 139 111 63 m 463 747 q 519 847 500 802 q 545 951 536 888 l 636 981 l 645 968 q 600 873 623 913 q 507 749 565 818 l 469 736 l 463 747 z "},"Ū":{"ha":1080,"x_min":122,"x_max":1101,"o":"m 338 790 l 252 300 q 280 124 232 184 q 441 64 328 64 q 713 184 581 64 q 770 246 747 216 l 770 246 l 861 817 q 863 900 872 884 q 803 919 853 917 l 749 922 l 756 960 q 927 956 855 956 q 1101 960 1000 956 l 1094 922 l 1048 919 q 993 901 1005 917 q 971 817 981 884 l 863 140 q 864 56 854 73 q 926 37 874 39 l 983 35 l 977 -4 q 853 -1 905 -1 q 728 -5 801 -1 l 748 86 l 768 175 q 764 177 768 175 q 760 178 760 178 l 760 178 l 733 151 q 392 -16 564 -16 q 177 68 238 -16 q 136 218 136 123 q 146 319 136 264 l 233 817 q 235 901 244 884 q 176 920 227 918 l 122 922 l 129 961 q 250 957 199 957 q 374 961 302 957 q 357 894 363 924 q 338 790 351 864 m 480 1120 l 853 1120 l 836 1040 l 463 1040 l 480 1120 z "},"ū":{"ha":772,"x_min":45,"x_max":710,"o":"m 289 540 l 242 339 l 210 193 q 200 106 197 132 q 227 81 203 81 q 436 261 299 81 l 453 285 q 508 383 482 324 q 551 505 534 442 l 587 647 l 587 647 l 635 659 l 684 671 l 690 658 q 604 342 633 475 l 573 189 q 562 103 561 127 q 576 79 562 79 q 622 95 592 79 q 697 145 652 112 l 710 119 q 574 22 631 56 q 493 -12 518 -12 q 450 25 458 -12 q 463 139 443 63 l 506 309 q 505 310 506 309 l 505 310 l 503 311 q 433 215 473 266 q 141 -16 254 -16 q 95 31 100 -16 l 94 46 q 118 201 94 96 l 123 222 l 172 444 q 185 544 186 514 q 170 574 185 574 q 128 559 156 574 q 56 513 100 544 l 45 540 q 185 636 127 602 q 267 670 243 670 q 300 637 294 670 q 289 540 305 605 m 303 817 l 676 817 l 659 736 l 286 736 l 303 817 z "},"Ů":{"ha":1080,"x_min":122,"x_max":1101,"o":"m 338 790 l 252 300 q 280 124 232 184 q 441 64 328 64 q 713 184 581 64 q 770 246 747 216 l 770 246 l 861 817 q 863 900 872 884 q 803 919 853 917 l 749 922 l 756 960 q 927 956 855 956 q 1101 960 1000 956 l 1094 922 l 1048 919 q 993 901 1005 917 q 971 817 981 884 l 863 140 q 864 56 854 73 q 926 37 874 39 l 983 35 l 977 -4 q 853 -1 905 -1 q 728 -5 801 -1 l 748 86 l 768 175 q 764 177 768 175 q 760 178 760 178 l 760 178 l 733 151 q 392 -16 564 -16 q 177 68 238 -16 q 136 218 136 123 q 146 319 136 264 l 233 817 q 235 901 244 884 q 176 920 227 918 l 122 922 l 129 961 q 250 957 199 957 q 374 961 302 957 q 357 894 363 924 q 338 790 351 864 m 646 997 q 547 1037 587 997 q 507 1136 507 1078 q 547 1235 507 1195 q 646 1276 587 1276 q 745 1235 705 1276 q 785 1136 785 1195 q 745 1037 785 1078 q 646 997 705 997 l 646 997 m 646 1047 q 707 1073 682 1047 q 732 1136 732 1099 q 707 1199 732 1173 q 646 1225 682 1225 q 585 1199 610 1225 q 560 1136 560 1173 q 585 1073 560 1099 q 646 1047 610 1047 l 646 1047 z "},"ů":{"ha":772,"x_min":45,"x_max":710,"o":"m 289 540 l 242 339 l 210 193 q 200 106 197 132 q 227 81 203 81 q 436 261 299 81 l 453 285 q 508 383 482 324 q 551 505 534 442 l 587 647 l 587 647 l 635 659 l 684 671 l 690 658 q 604 342 633 475 l 573 189 q 562 103 561 127 q 576 79 562 79 q 622 95 592 79 q 697 145 652 112 l 710 119 q 574 22 631 56 q 493 -12 518 -12 q 450 25 458 -12 q 463 139 443 63 l 506 309 q 505 310 506 309 l 505 310 l 503 311 q 433 215 473 266 q 141 -16 254 -16 q 95 31 100 -16 l 94 46 q 118 201 94 96 l 123 222 l 172 444 q 185 544 186 514 q 170 574 185 574 q 128 559 156 574 q 56 513 100 544 l 45 540 q 185 636 127 602 q 267 670 243 670 q 300 637 294 670 q 289 540 305 605 m 503 734 q 404 774 444 734 q 363 873 363 814 q 404 972 363 932 q 503 1013 444 1013 q 602 972 562 1013 q 642 873 642 932 q 602 774 642 814 q 503 734 562 734 l 503 734 m 503 784 q 564 810 538 784 q 589 873 589 836 q 564 936 589 910 q 503 962 538 962 q 442 936 467 962 q 417 873 417 910 q 442 810 417 836 q 503 784 467 784 l 503 784 z "},"Ű":{"ha":1080,"x_min":122,"x_max":1101,"o":"m 338 790 l 252 300 q 280 124 232 184 q 441 64 328 64 q 713 184 581 64 q 770 246 747 216 l 770 246 l 861 817 q 863 900 872 884 q 803 919 853 917 l 749 922 l 756 960 q 927 956 855 956 q 1101 960 1000 956 l 1094 922 l 1048 919 q 993 901 1005 917 q 971 817 981 884 l 863 140 q 864 56 854 73 q 926 37 874 39 l 983 35 l 977 -4 q 853 -1 905 -1 q 728 -5 801 -1 l 748 86 l 768 175 q 764 177 768 175 q 760 178 760 178 l 760 178 l 733 151 q 392 -16 564 -16 q 177 68 238 -16 q 136 218 136 123 q 146 319 136 264 l 233 817 q 235 901 244 884 q 176 920 227 918 l 122 922 l 129 961 q 250 957 199 957 q 374 961 302 957 q 357 894 363 924 q 338 790 351 864 m 492 1012 l 492 1012 l 650 1279 l 654 1285 q 687 1308 669 1304 q 722 1298 705 1311 q 740 1266 738 1285 q 728 1227 742 1246 l 723 1221 l 538 1012 l 538 1012 l 492 1012 m 711 1012 l 711 1012 l 869 1279 l 873 1285 q 906 1308 888 1304 q 941 1298 924 1311 q 959 1265 957 1285 q 947 1227 961 1246 l 942 1221 l 758 1012 l 758 1012 l 711 1012 z "},"ű":{"ha":772,"x_min":45,"x_max":773,"o":"m 289 540 l 242 339 l 210 193 q 200 106 197 132 q 227 81 203 81 q 436 261 299 81 l 453 285 q 508 383 482 324 q 551 505 534 442 l 587 647 l 587 647 l 635 659 l 684 671 l 690 658 q 604 342 633 475 l 573 189 q 562 103 561 127 q 576 79 562 79 q 622 95 592 79 q 697 145 652 112 l 710 119 q 574 22 631 56 q 493 -12 518 -12 q 450 25 458 -12 q 463 139 443 63 l 506 309 q 505 310 506 309 l 505 310 l 503 311 q 433 215 473 266 q 141 -16 254 -16 q 95 31 100 -16 l 94 46 q 118 201 94 96 l 123 222 l 172 444 q 185 544 186 514 q 170 574 185 574 q 128 559 156 574 q 56 513 100 544 l 45 540 q 185 636 127 602 q 267 670 243 670 q 300 637 294 670 q 289 540 305 605 m 307 749 l 307 749 l 465 1016 l 469 1022 q 501 1044 483 1041 q 536 1035 519 1048 q 554 1003 552 1022 q 543 964 556 983 l 537 958 l 353 749 l 353 749 l 307 749 m 526 749 l 526 749 l 684 1016 l 688 1022 q 720 1044 702 1041 q 755 1035 739 1048 q 773 1002 771 1022 q 762 964 775 983 l 756 958 l 572 749 l 572 749 l 526 749 z "},"Ų":{"ha":1080,"x_min":122,"x_max":1101,"o":"m 338 790 l 252 300 q 280 124 232 184 q 441 64 328 64 q 713 184 581 64 q 770 246 747 216 l 770 246 l 861 817 q 863 900 872 884 q 803 919 853 917 l 749 922 l 756 960 q 927 956 855 956 q 1101 960 1000 956 l 1094 922 l 1048 919 q 993 901 1005 917 q 971 817 981 884 l 863 140 q 864 56 854 73 q 926 37 874 39 l 983 35 l 977 -4 q 853 -1 905 -1 q 728 -5 801 -1 l 748 86 l 768 175 q 764 177 768 175 q 760 178 760 178 l 760 178 l 733 151 q 392 -16 564 -16 q 177 68 238 -16 q 136 218 136 123 q 146 319 136 264 l 233 817 q 235 901 244 884 q 176 920 227 918 l 122 922 l 129 961 q 250 957 199 957 q 374 961 302 957 q 357 894 363 924 q 338 790 351 864 m 637 -145 q 665 -82 643 -114 q 733 -1 686 -50 l 781 -1 q 729 -67 741 -47 q 713 -111 717 -87 q 723 -163 707 -141 q 766 -185 739 -185 q 800 -173 781 -185 q 835 -138 818 -160 l 854 -144 q 787 -233 825 -201 q 708 -264 749 -264 q 650 -229 670 -264 q 637 -145 629 -195 z "},"ų":{"ha":772,"x_min":45,"x_max":710,"o":"m 289 540 l 242 339 l 210 193 q 200 106 197 132 q 227 81 203 81 q 436 261 299 81 l 453 285 q 508 383 482 324 q 551 505 534 442 l 587 647 l 587 647 l 635 659 l 684 671 l 690 658 q 604 342 633 475 l 573 189 q 562 103 561 127 q 576 79 562 79 q 622 95 592 79 q 697 145 652 112 l 710 119 q 574 22 631 56 q 493 -12 518 -12 q 450 25 458 -12 q 463 139 443 63 l 506 309 q 505 310 506 309 l 505 310 l 503 311 q 433 215 473 266 q 141 -16 254 -16 q 95 31 100 -16 l 94 46 q 118 201 94 96 l 123 222 l 172 444 q 185 544 186 514 q 170 574 185 574 q 128 559 156 574 q 56 513 100 544 l 45 540 q 185 636 127 602 q 267 670 243 670 q 300 637 294 670 q 289 540 305 605 m 385 -145 q 412 -82 391 -114 q 481 -1 434 -50 l 528 -1 q 477 -67 489 -47 q 460 -111 465 -87 q 471 -163 455 -141 q 513 -185 487 -185 q 547 -173 529 -185 q 583 -138 566 -160 l 602 -144 q 534 -233 572 -201 q 456 -264 496 -264 q 397 -229 418 -264 q 385 -145 376 -195 z "},"Ÿ":{"ha":926,"x_min":72,"x_max":937,"o":"m 395 347 q 397 368 397 358 q 393 391 397 378 q 328 620 362 522 q 286 728 309 672 q 198 862 241 830 q 93 871 155 893 l 76 865 l 72 897 l 127 938 l 182 979 q 284 941 241 979 q 361 820 327 903 q 412 684 391 747 q 480 434 448 579 l 480 434 q 593 646 535 555 l 621 689 q 783 884 703 812 q 937 968 864 955 l 928 870 q 815 823 868 863 q 687 685 762 782 q 644 623 664 654 q 528 418 586 535 q 514 385 518 398 q 506 352 509 372 l 469 140 q 466 56 457 73 q 526 37 475 39 l 579 35 l 573 -4 q 402 0 474 0 q 229 -4 330 0 l 235 35 l 280 37 q 335 56 322 39 q 359 140 347 72 l 395 347 m 418 1176 q 467 1156 446 1176 q 487 1107 487 1135 q 467 1059 487 1079 q 418 1038 446 1038 q 369 1059 389 1038 q 349 1107 349 1079 q 369 1156 349 1135 q 418 1176 389 1176 m 696 1176 q 745 1156 724 1176 q 765 1107 765 1135 q 745 1059 765 1079 q 696 1038 724 1038 q 647 1059 667 1038 q 627 1107 627 1079 q 647 1156 627 1135 q 696 1176 667 1176 z "},"Ź":{"ha":926,"x_min":28,"x_max":883,"o":"m 33 28 l 730 903 l 730 903 l 465 903 q 334 899 390 903 q 225 884 277 894 l 190 741 l 149 741 q 163 850 159 804 q 168 961 167 897 l 168 961 l 667 957 l 667 957 l 883 961 l 880 945 l 877 928 l 182 54 l 182 54 l 545 54 q 640 60 591 54 q 755 80 689 66 l 806 228 l 844 228 q 822 113 829 161 q 810 -4 815 64 l 810 -4 l 244 0 l 244 0 l 28 -4 l 31 12 l 33 28 m 439 1012 l 439 1012 l 657 1226 l 664 1232 q 704 1246 684 1247 q 738 1230 724 1246 q 750 1201 750 1217 l 749 1196 q 727 1162 747 1177 l 720 1157 l 486 1012 l 486 1012 l 439 1012 z "},"ź":{"ha":616,"x_min":-1,"x_max":578,"o":"m -1 28 l 488 584 l 488 584 l 458 571 q 349 553 410 553 q 307 556 333 553 q 260 564 281 559 q 219 571 241 568 q 185 574 197 574 l 181 574 q 153 571 168 574 q 129 564 138 568 l 88 486 l 59 486 q 82 570 73 534 q 101 654 91 606 l 101 654 q 143 665 119 661 q 186 669 168 669 q 233 664 206 669 q 301 646 259 659 q 394 626 341 634 q 482 618 447 618 q 522 629 504 618 q 564 669 539 640 l 578 656 l 570 614 l 102 83 l 102 83 l 109 85 q 232 112 176 112 q 271 109 250 112 q 332 98 291 106 q 416 82 392 86 l 432 79 q 475 85 458 75 q 500 119 492 94 l 528 198 l 559 198 q 536 98 546 140 q 518 -3 527 56 l 518 -3 q 483 -12 502 -8 q 452 -16 463 -16 q 391 -11 422 -16 q 296 9 359 -5 q 192 32 224 26 q 138 37 160 37 q 68 24 105 37 q 12 -7 31 12 l -1 28 m 242 749 l 242 749 l 460 963 l 467 969 q 507 983 487 984 q 541 967 527 983 q 553 938 553 954 l 553 932 q 530 899 550 913 l 523 894 l 289 749 l 289 749 l 242 749 z "},"Ż":{"ha":926,"x_min":28,"x_max":883,"o":"m 33 28 l 730 903 l 730 903 l 465 903 q 334 899 390 903 q 225 884 277 894 l 190 741 l 149 741 q 163 850 159 804 q 168 961 167 897 l 168 961 l 667 957 l 667 957 l 883 961 l 880 945 l 877 928 l 182 54 l 182 54 l 545 54 q 640 60 591 54 q 755 80 689 66 l 806 228 l 844 228 q 822 113 829 161 q 810 -4 815 64 l 810 -4 l 244 0 l 244 0 l 28 -4 l 31 12 l 33 28 m 532 1187 q 586 1165 564 1187 q 608 1112 608 1143 q 586 1060 608 1082 q 532 1038 564 1038 q 479 1060 501 1038 q 457 1112 457 1082 q 479 1165 457 1143 q 532 1187 501 1187 z "},"ż":{"ha":616,"x_min":-1,"x_max":578,"o":"m -1 28 l 488 584 l 488 584 l 458 571 q 349 553 410 553 q 307 556 333 553 q 260 564 281 559 q 219 571 241 568 q 185 574 197 574 l 181 574 q 153 571 168 574 q 129 564 138 568 l 88 486 l 59 486 q 82 570 73 534 q 101 654 91 606 l 101 654 q 143 665 119 661 q 186 669 168 669 q 233 664 206 669 q 301 646 259 659 q 394 626 341 634 q 482 618 447 618 q 522 629 504 618 q 564 669 539 640 l 578 656 l 570 614 l 102 83 l 102 83 l 109 85 q 232 112 176 112 q 271 109 250 112 q 332 98 291 106 q 416 82 392 86 l 432 79 q 475 85 458 75 q 500 119 492 94 l 528 198 l 559 198 q 536 98 546 140 q 518 -3 527 56 l 518 -3 q 483 -12 502 -8 q 452 -16 463 -16 q 391 -11 422 -16 q 296 9 359 -5 q 192 32 224 26 q 138 37 160 37 q 68 24 105 37 q 12 -7 31 12 l -1 28 m 359 924 q 412 902 390 924 q 434 849 434 880 q 412 797 434 819 q 359 774 390 774 q 306 797 328 774 q 283 849 283 819 q 306 902 283 880 q 359 924 328 924 z "},"Ž":{"ha":926,"x_min":28,"x_max":883,"o":"m 33 28 l 730 903 l 730 903 l 465 903 q 334 899 390 903 q 225 884 277 894 l 190 741 l 149 741 q 163 850 159 804 q 168 961 167 897 l 168 961 l 667 957 l 667 957 l 883 961 l 880 945 l 877 928 l 182 54 l 182 54 l 545 54 q 640 60 591 54 q 755 80 689 66 l 806 228 l 844 228 q 822 113 829 161 q 810 -4 815 64 l 810 -4 l 244 0 l 244 0 l 28 -4 l 31 12 l 33 28 m 483 1025 l 361 1260 l 410 1260 l 526 1116 l 526 1116 l 715 1260 l 770 1260 l 551 1025 l 517 1025 l 483 1025 z "},"ž":{"ha":616,"x_min":-1,"x_max":600,"o":"m -1 28 l 488 584 l 488 584 l 458 571 q 349 553 410 553 q 307 556 333 553 q 260 564 281 559 q 219 571 241 568 q 185 574 197 574 l 181 574 q 153 571 168 574 q 129 564 138 568 l 88 486 l 59 486 q 82 570 73 534 q 101 654 91 606 l 101 654 q 143 665 119 661 q 186 669 168 669 q 233 664 206 669 q 301 646 259 659 q 394 626 341 634 q 482 618 447 618 q 522 629 504 618 q 564 669 539 640 l 578 656 l 570 614 l 102 83 l 102 83 l 109 85 q 232 112 176 112 q 271 109 250 112 q 332 98 291 106 q 416 82 392 86 l 432 79 q 475 85 458 75 q 500 119 492 94 l 528 198 l 559 198 q 536 98 546 140 q 518 -3 527 56 l 518 -3 q 483 -12 502 -8 q 452 -16 463 -16 q 391 -11 422 -16 q 296 9 359 -5 q 192 32 224 26 q 138 37 160 37 q 68 24 105 37 q 12 -7 31 12 l -1 28 m 311 720 l 176 955 l 227 955 l 351 810 l 351 810 l 551 955 l 600 955 l 376 720 l 344 720 l 311 720 z "},"ƒ":{"ha":694,"x_min":7,"x_max":654,"o":"m 423 515 l 423 515 l 379 300 l 361 210 q 217 -235 305 -87 q 12 -383 130 -383 l 7 -382 l 23 -273 l 39 -267 q 64 -288 48 -281 q 104 -295 81 -295 q 168 -245 140 -295 q 214 -91 195 -195 l 249 94 q 322 515 284 287 l 322 515 l 163 515 l 176 561 l 330 561 l 330 561 q 452 855 365 727 q 618 983 539 983 q 640 981 629 983 q 654 975 650 979 l 654 975 l 638 865 q 600 890 622 881 q 556 899 578 899 q 490 838 512 899 q 433 561 468 777 l 433 561 l 586 561 l 576 515 l 423 515 z "},"ˆ":{"ha":463,"x_min":78,"x_max":488,"o":"m 366 971 l 488 736 l 439 736 l 323 881 l 323 881 l 133 736 l 78 736 l 298 971 l 332 971 l 366 971 z "},"ˇ":{"ha":463,"x_min":144,"x_max":569,"o":"m 279 708 l 144 943 l 195 943 l 320 798 l 320 798 l 520 943 l 569 943 l 345 708 l 312 708 l 279 708 z "},"ˉ":{"ha":463,"x_min":115,"x_max":507,"o":"m 134 817 l 507 817 l 488 736 l 115 736 l 134 817 z "},"˘":{"ha":463,"x_min":115,"x_max":534,"o":"m 300 747 q 163 804 210 747 q 115 969 116 861 l 146 969 q 193 867 150 903 q 309 831 235 831 q 422 867 372 831 q 503 969 473 903 l 534 969 q 447 802 504 856 q 300 747 389 747 z "},"˙":{"ha":463,"x_min":243,"x_max":393,"o":"m 318 924 q 371 902 349 924 q 393 849 393 880 q 371 797 393 819 q 318 774 349 774 q 265 797 287 774 q 243 849 243 819 q 265 902 243 880 q 318 924 287 924 z "},"˚":{"ha":463,"x_min":221,"x_max":500,"o":"m 360 734 q 261 774 302 734 q 221 873 221 814 q 261 972 221 932 q 360 1013 302 1013 q 459 972 419 1013 q 500 873 500 932 q 459 774 500 814 q 360 734 419 734 l 360 734 m 360 784 q 421 810 396 784 q 446 873 446 836 q 421 936 446 910 q 360 962 396 962 q 299 936 324 962 q 275 873 275 910 q 299 810 275 836 q 360 784 324 784 l 360 784 z "},"˛":{"ha":463,"x_min":94,"x_max":311,"o":"m 94 -145 q 121 -82 99 -114 q 189 -1 142 -50 l 237 -1 q 185 -67 197 -47 q 169 -111 173 -87 q 179 -163 163 -141 q 222 -185 195 -185 q 256 -173 237 -185 q 291 -138 274 -160 l 311 -144 q 243 -233 281 -201 q 164 -264 205 -264 q 106 -229 126 -264 q 94 -145 85 -195 z "},"˜":{"ha":463,"x_min":87,"x_max":542,"o":"m 87 795 q 139 900 102 861 q 224 939 176 939 q 279 930 251 939 q 340 904 308 922 q 392 882 364 890 q 441 874 420 874 q 475 892 459 874 q 501 940 491 909 l 542 940 q 498 838 538 880 q 406 796 459 796 q 357 805 385 796 q 290 833 328 814 q 240 855 264 847 q 203 863 216 863 q 155 843 178 863 q 128 795 134 823 l 87 795 z "},"˝":{"ha":463,"x_min":66,"x_max":534,"o":"m 66 749 l 66 749 l 224 1016 l 229 1022 q 261 1044 243 1041 q 296 1035 280 1048 q 314 1003 313 1022 q 302 964 316 983 l 297 958 l 113 749 l 113 749 l 66 749 m 286 749 l 286 749 l 444 1016 l 448 1022 q 480 1044 462 1041 q 515 1035 499 1048 q 534 1002 532 1022 q 522 964 535 983 l 516 958 l 332 749 l 332 749 l 286 749 z "},"π":{"ha":845,"x_min":76,"x_max":806,"o":"m 76 469 q 192 614 138 578 q 348 650 247 650 l 577 651 q 707 653 638 651 q 806 657 775 654 l 785 546 l 581 546 q 562 325 559 430 q 591 98 564 220 q 595 7 606 31 q 543 -17 585 -17 q 476 23 499 -17 q 454 140 454 63 q 469 298 454 204 q 522 546 485 391 l 422 546 l 343 104 q 313 8 331 33 q 254 -17 294 -17 q 202 14 210 -17 q 222 125 195 44 l 365 546 l 301 546 q 213 525 250 546 q 117 442 175 503 l 76 469 z "},"–":{"ha":694,"x_min":-13,"x_max":704,"o":"m 3 385 l 704 385 l 688 315 l -13 315 l 3 385 z "},"—":{"ha":1389,"x_min":-13,"x_max":1405,"o":"m 3 385 l 1405 385 l 1390 315 l -13 315 l 3 385 z "},"‘":{"ha":386,"x_min":109,"x_max":361,"o":"m 361 1000 q 283 861 309 924 q 248 717 259 804 l 121 675 l 109 692 q 177 825 142 772 q 313 1002 228 904 l 353 1015 l 361 1000 z "},"’":{"ha":386,"x_min":109,"x_max":361,"o":"m 109 693 q 186 833 159 770 q 221 977 210 890 l 349 1018 l 361 1001 q 292 869 327 922 q 155 692 241 790 l 115 678 l 109 693 z "},"‚":{"ha":386,"x_min":37,"x_max":290,"o":"m 37 -156 q 115 -16 89 -79 q 151 127 139 40 l 277 169 l 290 152 q 221 19 256 73 q 85 -157 170 -60 l 45 -171 l 37 -156 z "},"“":{"ha":694,"x_min":136,"x_max":663,"o":"m 389 1000 q 311 861 337 924 q 275 717 287 804 l 149 675 l 136 692 q 205 825 170 772 q 340 1002 256 904 l 381 1015 l 389 1000 m 663 1000 q 585 861 611 924 q 549 717 561 804 l 422 675 l 410 692 q 479 825 444 772 q 614 1002 530 904 l 655 1015 l 663 1000 z "},"”":{"ha":694,"x_min":136,"x_max":663,"o":"m 136 693 q 214 833 187 770 q 249 977 237 890 l 376 1018 l 389 1001 q 319 869 355 922 q 183 692 269 790 l 143 678 l 136 693 m 410 693 q 488 833 461 770 q 523 977 511 890 l 650 1018 l 663 1001 q 593 869 629 922 q 457 692 543 790 l 417 678 l 410 693 z "},"„":{"ha":694,"x_min":60,"x_max":586,"o":"m 60 -156 q 138 -16 111 -79 q 173 127 161 41 l 300 169 l 312 152 q 243 19 278 73 q 108 -157 193 -60 l 67 -171 l 60 -156 m 334 -156 q 412 -16 385 -79 q 447 127 435 41 l 574 169 l 586 152 q 517 19 552 73 q 382 -157 467 -60 l 341 -171 l 334 -156 z "},"†":{"ha":694,"x_min":66,"x_max":652,"o":"m 81 659 q 320 650 215 651 l 320 650 q 355 957 338 789 l 473 957 q 410 650 436 789 l 410 650 q 652 659 516 652 l 638 566 q 397 574 503 574 l 397 574 l 381 478 q 327 0 351 277 l 197 0 q 294 479 261 277 l 310 574 l 310 574 q 66 566 204 574 l 81 659 z "},"‡":{"ha":694,"x_min":14,"x_max":687,"o":"m 292 366 q 319 448 311 414 q 353 604 336 515 l 353 604 l 256 600 q 117 593 198 598 l 134 682 q 271 675 213 677 l 365 671 l 365 671 l 407 957 l 519 957 l 453 672 l 453 672 l 547 675 q 687 682 606 677 l 670 593 q 533 600 591 598 l 438 603 l 438 603 q 413 448 422 515 q 410 366 409 414 l 409 366 q 382 285 390 319 q 347 129 365 218 l 347 129 l 444 132 q 584 140 503 134 l 567 50 q 430 58 488 56 l 336 61 l 336 61 l 294 -224 l 182 -224 l 248 60 l 248 60 l 153 58 q 14 50 94 56 l 31 140 q 168 132 109 134 l 262 130 l 262 130 q 288 285 279 218 q 292 366 292 319 l 292 366 z "},"•":{"ha":694,"x_min":119,"x_max":597,"o":"m 358 730 q 526 660 456 730 q 597 491 597 589 q 526 323 597 393 q 358 252 456 252 q 190 323 260 252 q 119 491 119 393 q 190 660 119 589 q 358 730 260 730 z "},"…":{"ha":1389,"x_min":142,"x_max":1206,"o":"m 233 155 q 277 131 262 155 q 286 74 293 107 q 251 17 277 41 q 195 -7 224 -7 q 150 17 165 -7 q 142 74 134 41 q 176 131 149 107 q 233 155 203 155 m 693 155 q 738 131 722 155 q 746 74 753 107 q 711 17 738 41 q 655 -7 684 -7 q 610 17 626 -7 q 602 74 594 41 q 637 131 610 107 q 693 155 664 155 m 1154 155 q 1198 131 1183 155 q 1206 74 1214 107 q 1172 17 1198 41 q 1116 -7 1145 -7 q 1070 17 1086 -7 q 1063 74 1055 41 q 1097 131 1070 107 q 1154 155 1124 155 z "},"‰":{"ha":1389,"x_min":100,"x_max":1285,"o":"m 258 566 q 142 611 185 566 q 100 732 99 656 q 101 759 100 744 q 104 787 102 774 q 182 920 118 865 q 322 975 245 975 q 438 930 395 975 q 481 808 481 884 q 479 780 481 795 q 476 752 478 765 q 398 620 463 675 q 258 566 334 566 l 258 566 m 320 943 q 244 899 275 943 q 198 770 213 855 q 191 726 193 745 q 189 688 189 706 q 206 619 189 641 q 260 597 223 597 q 337 641 305 597 q 383 770 368 685 q 389 814 387 794 q 391 852 391 834 q 374 922 391 900 q 320 943 357 943 l 320 943 m 133 -7 l 760 1002 l 820 1002 l 193 -7 l 133 -7 m 616 1 q 500 46 543 1 q 457 167 457 91 q 459 194 458 179 q 463 222 460 210 q 540 355 476 300 q 680 410 604 410 q 796 365 753 410 q 839 243 839 319 q 838 215 839 231 q 834 187 836 200 q 756 55 821 110 q 616 1 692 1 l 616 1 m 678 378 q 602 334 633 378 q 555 205 570 290 q 549 161 551 180 q 547 123 547 141 q 564 54 547 76 q 618 33 581 33 q 694 76 663 33 q 741 205 726 120 q 747 249 745 229 q 749 288 749 269 q 732 357 749 335 q 678 378 715 378 l 678 378 m 1062 1 q 946 46 989 1 q 903 167 903 91 q 905 194 904 179 q 909 222 906 210 q 986 355 922 300 q 1126 410 1050 410 q 1242 365 1199 410 q 1285 243 1285 319 q 1284 215 1285 231 q 1280 187 1282 200 q 1203 55 1267 110 q 1062 1 1139 1 l 1062 1 m 1124 378 q 1048 334 1079 378 q 1002 205 1017 290 q 996 161 998 180 q 994 123 994 141 q 1010 54 994 76 q 1064 33 1027 33 q 1141 76 1109 33 q 1187 205 1172 120 q 1193 249 1191 229 q 1195 288 1196 269 q 1179 357 1196 335 q 1124 378 1162 378 l 1124 378 z "},"‹":{"ha":463,"x_min":79,"x_max":377,"o":"m 377 588 l 184 357 l 184 357 l 320 113 l 292 96 l 79 350 l 79 359 l 79 370 l 353 610 l 377 588 z "},"›":{"ha":463,"x_min":87,"x_max":385,"o":"m 87 114 l 280 345 l 280 345 l 144 589 l 172 606 l 385 352 l 385 342 l 385 332 l 112 92 l 87 114 z "},"⁄":{"ha":232,"x_min":-235,"x_max":469,"o":"m 469 971 l -155 1 l -235 1 l 389 971 l 469 971 z "},"⁴":{"ha":431,"x_min":7,"x_max":435,"o":"m 237 546 l 7 546 l 11 566 l 16 587 q 159 776 98 698 q 311 961 222 854 l 387 976 l 398 968 l 321 596 l 321 596 l 382 596 l 433 596 l 435 592 l 419 541 q 383 544 412 543 q 319 546 354 546 l 311 546 l 311 546 l 299 489 q 298 437 290 448 q 349 424 307 427 l 395 420 l 387 386 q 246 389 306 389 q 104 386 187 389 l 112 420 l 155 424 q 206 437 195 427 q 226 489 217 448 l 237 546 l 237 546 m 248 596 l 248 596 l 315 918 l 315 918 l 315 918 l 201 777 q 62 596 140 701 l 62 596 l 248 596 z "},"€":{"ha":694,"x_min":16,"x_max":720,"o":"m 629 143 l 616 93 q 499 13 559 39 q 377 -14 439 -14 q 178 80 248 -14 q 108 350 108 175 l 108 375 l 16 375 l 38 433 l 111 433 q 122 522 115 479 l 41 522 l 64 580 l 135 580 q 233 793 167 699 q 544 971 357 971 q 629 959 585 971 q 720 924 673 947 q 698 821 705 864 q 684 719 690 779 l 646 719 l 646 719 l 646 836 q 572 881 614 865 q 480 897 530 897 q 286 762 351 897 q 234 580 251 690 l 547 580 l 525 522 l 227 522 l 221 433 l 489 433 l 467 375 l 220 375 l 220 359 q 270 134 219 210 q 420 59 321 59 q 517 82 471 59 q 616 153 564 104 l 629 143 z "},"™":{"ha":1389,"x_min":72,"x_max":1321,"o":"m 269 484 l 269 924 l 269 924 l 214 924 q 134 910 157 924 q 107 858 111 896 l 104 823 l 72 823 l 72 890 l 72 957 l 72 957 l 308 957 l 308 957 l 542 957 l 542 957 l 542 890 l 542 823 l 510 823 l 507 858 q 480 910 503 896 q 404 924 458 924 l 347 924 l 347 924 l 347 484 q 358 437 347 450 q 397 424 368 425 l 434 422 l 434 395 l 308 395 l 181 395 l 181 422 l 218 424 q 258 437 248 425 q 269 484 269 450 m 738 472 q 749 438 738 448 q 791 425 760 428 l 804 423 l 804 395 l 720 395 l 635 395 l 635 422 l 647 424 q 691 437 680 427 q 703 471 703 447 l 703 870 q 697 917 703 904 q 675 930 691 929 l 647 931 l 647 957 l 723 957 l 799 957 l 799 957 l 979 532 l 979 532 l 979 532 l 1042 675 q 1164 957 1094 793 l 1164 957 l 1240 957 l 1316 957 l 1316 932 l 1283 931 q 1255 922 1261 930 q 1250 878 1250 913 l 1250 488 q 1261 433 1250 444 q 1318 422 1272 422 l 1321 422 l 1321 395 l 1211 395 l 1101 395 l 1101 422 l 1104 422 q 1161 433 1150 422 q 1172 488 1172 444 l 1172 907 l 1172 907 l 961 395 l 956 395 l 951 395 l 738 901 l 738 901 l 738 472 z "},"Ω":{"ha":845,"x_min":68,"x_max":819,"o":"m 406 0 l 126 0 l 76 278 l 126 286 q 168 170 149 193 q 245 146 187 148 l 299 146 q 238 255 277 187 q 164 380 199 323 q 94 523 120 452 q 68 646 68 595 q 170 872 68 787 q 444 960 271 958 q 713 873 607 960 q 819 650 819 785 q 794 525 819 597 q 724 380 768 453 q 659 270 698 338 q 589 146 620 202 l 642 146 q 718 175 693 145 q 762 286 743 204 l 811 278 l 761 0 l 481 0 q 569 245 564 229 q 590 311 574 260 q 638 498 621 411 q 654 646 654 585 q 596 826 654 755 q 444 900 537 897 q 292 827 350 897 q 233 648 233 758 q 252 497 233 595 q 298 311 271 399 q 345 169 314 258 q 406 0 376 79 z "},"∂":{"ha":692,"x_min":55,"x_max":635,"o":"m 55 261 q 150 544 55 420 q 365 667 244 667 q 430 656 397 667 q 501 623 463 646 q 490 827 515 751 q 407 903 465 903 q 366 884 388 903 q 331 836 344 865 q 297 780 311 793 q 256 767 283 767 q 198 800 216 767 q 199 872 180 833 q 270 943 221 914 q 370 972 319 972 q 569 867 503 972 q 635 552 635 762 q 536 139 635 300 q 283 -22 437 -22 q 119 58 183 -22 q 55 261 55 137 m 184 220 q 214 89 184 142 q 287 35 243 35 q 412 156 360 35 q 463 448 463 277 q 437 570 463 530 q 357 611 410 611 q 234 497 285 611 q 184 220 184 384 z "},"∆":{"ha":922,"x_min":25,"x_max":897,"o":"m 502 943 l 897 0 l 25 0 l 502 943 m 452 730 l 150 132 l 692 132 l 452 730 z "},"∏":{"ha":1383,"x_min":134,"x_max":1249,"o":"m 134 -214 l 134 -170 q 268 -110 236 -158 q 299 87 299 -61 l 299 698 q 270 893 301 845 q 134 954 238 942 l 134 998 l 1249 998 l 1249 954 q 1115 893 1147 942 q 1084 698 1084 845 l 1084 87 q 1115 -110 1084 -61 q 1249 -170 1147 -158 l 1249 -214 l 772 -214 l 772 -170 q 909 -111 878 -158 q 937 87 939 -63 l 937 943 l 446 943 l 446 87 q 477 -110 446 -61 q 611 -170 509 -158 l 611 -214 l 134 -214 z "},"∑":{"ha":1383,"x_min":282,"x_max":1092,"o":"m 282 -214 l 615 355 l 288 998 l 1047 998 l 1078 749 l 1031 740 l 1019 766 q 923 902 983 863 q 753 942 863 942 l 479 942 l 730 440 l 425 -73 l 780 -73 q 928 -38 873 -73 q 1029 84 983 -3 l 1044 112 l 1092 98 l 1013 -214 l 282 -214 z "},"−":{"ha":842,"x_min":79,"x_max":781,"o":"m 79 388 l 781 388 l 781 311 l 79 311 l 79 388 z "},"∙":{"ha":347,"x_min":115,"x_max":258,"o":"m 206 559 q 251 535 235 559 q 258 478 267 511 q 223 421 250 445 q 167 397 196 397 q 122 421 138 397 q 115 478 106 445 q 150 535 123 511 q 206 559 177 559 z "},"√":{"ha":999,"x_min":38,"x_max":1168,"o":"m 38 297 l 240 429 l 583 -80 l 909 1037 l 1168 1037 l 1168 979 l 977 979 l 602 -254 l 552 -254 l 165 303 l 67 232 l 38 297 z "},"∞":{"ha":1383,"x_min":192,"x_max":1190,"o":"m 192 386 q 271 591 192 507 q 465 674 350 674 q 607 633 547 674 q 726 496 667 592 q 833 606 777 570 q 954 643 890 643 q 1123 571 1057 643 q 1190 387 1190 500 q 1124 205 1190 277 q 959 132 1058 132 q 831 171 888 132 q 739 280 774 209 q 613 138 667 174 q 473 101 558 101 q 273 184 355 101 q 192 386 192 267 m 267 385 q 314 262 267 312 q 429 212 361 212 q 560 261 503 212 q 668 418 617 311 q 575 529 625 495 q 452 564 524 564 q 321 512 374 564 q 267 385 267 460 m 1114 386 q 1074 492 1114 452 q 967 532 1034 532 q 868 498 910 532 q 785 384 826 464 q 861 279 813 316 q 969 243 909 243 q 1075 281 1036 243 q 1114 386 1114 320 z "},"∫":{"ha":1383,"x_min":510,"x_max":869,"o":"m 510 -216 q 529 -167 510 -188 q 573 -146 547 -146 q 614 -164 597 -146 q 631 -205 631 -181 l 625 -246 q 629 -257 624 -252 q 642 -261 633 -261 q 689 -202 677 -262 q 684 -52 701 -142 q 637 237 659 78 q 606 496 614 395 q 622 925 584 786 q 762 1064 660 1064 q 838 1036 806 1064 q 869 966 869 1007 q 853 913 869 931 q 805 896 837 896 q 762 909 777 896 q 748 948 748 922 q 759 997 748 955 q 755 1006 760 1002 q 741 1010 750 1010 q 687 922 689 1010 q 731 589 685 833 q 777 181 768 396 q 764 -152 787 -33 q 714 -274 749 -233 q 625 -315 679 -315 q 543 -286 576 -315 q 510 -216 510 -258 z "},"≈":{"ha":1383,"x_min":281,"x_max":1139,"o":"m 281 186 q 387 301 319 254 q 515 349 455 349 q 616 334 552 349 q 763 293 681 319 q 862 268 809 278 q 946 258 916 258 q 1036 282 987 258 q 1114 340 1084 306 l 1139 326 q 1047 202 1107 248 q 918 156 987 156 q 847 165 897 156 q 745 189 797 175 q 573 233 635 219 q 484 247 510 247 q 388 223 441 247 q 302 165 335 199 l 281 186 m 281 425 q 387 539 319 492 q 515 587 455 587 q 616 572 552 587 q 763 531 681 557 q 862 506 809 516 q 946 496 916 496 q 1036 520 987 496 q 1114 578 1084 544 l 1139 564 q 1047 440 1107 486 q 918 394 987 394 q 847 404 897 394 q 745 427 797 413 q 573 471 635 457 q 484 485 510 485 q 388 461 441 485 q 302 403 335 437 l 281 425 z "},"≠":{"ha":1383,"x_min":276,"x_max":1137,"o":"m 278 -63 l 494 189 l 276 189 l 276 281 l 572 281 l 732 468 l 276 468 l 276 559 l 810 559 l 1025 808 l 1137 808 l 923 559 l 1135 559 l 1135 468 l 845 468 l 685 281 l 1135 281 l 1135 189 l 606 189 l 391 -63 l 278 -63 z "},"≤":{"ha":1383,"x_min":283,"x_max":1141,"o":"m 1141 838 l 1141 746 l 420 468 l 1141 258 l 1141 167 l 283 422 l 283 514 l 1141 838 m 283 92 l 1141 92 l 1141 0 l 283 0 l 283 92 z "},"≥":{"ha":1383,"x_min":283,"x_max":1141,"o":"m 283 838 l 1141 514 l 1141 422 l 283 167 l 283 258 l 1004 468 l 283 746 l 283 838 m 283 92 l 1141 92 l 1141 0 l 283 0 l 283 92 z "},"◊":{"ha":794,"x_min":85,"x_max":708,"o":"m 359 965 l 434 965 l 708 482 l 434 0 l 359 0 l 85 482 l 359 965 m 397 898 l 160 482 l 397 65 l 633 482 l 397 898 z "},"":{"ha":463,"x_min":243,"x_max":393,"o":"m 318 1187 q 371 1165 349 1187 q 393 1112 393 1143 q 371 1060 393 1082 q 318 1038 349 1038 q 265 1060 287 1038 q 243 1112 243 1082 q 265 1165 243 1143 q 318 1187 287 1187 z "},"":{"ha":463,"x_min":115,"x_max":534,"o":"m 300 1010 q 162 1067 210 1010 q 115 1232 115 1124 l 146 1232 q 193 1130 150 1166 q 309 1094 235 1094 q 422 1130 372 1094 q 503 1232 473 1166 l 534 1232 q 447 1065 504 1119 q 300 1010 389 1010 z "},"":{"ha":463,"x_min":115,"x_max":507,"o":"m 134 1120 l 507 1120 l 488 1040 l 115 1040 l 134 1120 z "},"":{"ha":463,"x_min":170,"x_max":637,"o":"m 170 1012 l 170 1012 l 328 1279 l 332 1285 q 364 1308 346 1304 q 399 1298 382 1311 q 417 1266 416 1285 q 406 1227 419 1246 l 400 1221 l 216 1012 l 216 1012 l 170 1012 m 389 1012 l 389 1012 l 547 1279 l 551 1285 q 583 1308 565 1304 q 618 1298 602 1311 q 637 1265 635 1285 q 625 1227 638 1246 l 619 1221 l 435 1012 l 435 1012 l 389 1012 z "},"":{"ha":463,"x_min":94,"x_max":311,"o":"m 94 -145 q 121 -82 99 -114 q 189 -1 142 -50 l 237 -1 q 185 -67 197 -47 q 169 -111 173 -87 q 179 -163 163 -141 q 222 -185 195 -185 q 256 -173 237 -185 q 291 -138 274 -160 l 311 -144 q 243 -233 281 -201 q 164 -264 205 -264 q 106 -229 126 -264 q 94 -145 85 -195 z "},"":{"ha":463,"x_min":-12,"x_max":279,"o":"m 195 1 l 134 -89 l 134 -89 q 164 -86 149 -86 q 257 -119 227 -86 q 279 -208 288 -152 q 224 -275 271 -250 q 103 -300 176 -300 q 57 -294 81 -300 q -12 -272 33 -288 l 11 -231 q 68 -246 43 -241 q 109 -251 93 -251 q 157 -236 139 -251 q 180 -195 176 -222 q 167 -153 185 -170 q 119 -136 149 -136 q 93 -138 106 -136 q 69 -144 79 -140 l 58 -133 l 143 1 l 195 1 z "},"":{"ha":463,"x_min":221,"x_max":500,"o":"m 360 997 q 261 1037 302 997 q 221 1136 221 1078 q 261 1235 221 1195 q 360 1276 302 1276 q 459 1235 419 1276 q 500 1136 500 1195 q 459 1037 500 1078 q 360 997 419 997 l 360 997 m 360 1047 q 421 1073 396 1047 q 446 1136 446 1099 q 421 1199 446 1173 q 360 1225 396 1225 q 299 1199 324 1225 q 275 1136 275 1173 q 299 1073 275 1099 q 360 1047 324 1047 l 360 1047 z "},"":{"ha":463,"x_min":144,"x_max":554,"o":"m 267 1025 l 144 1260 l 193 1260 l 309 1116 l 309 1116 l 499 1260 l 554 1260 l 335 1025 l 301 1025 l 267 1025 z "},"":{"ha":463,"x_min":87,"x_max":542,"o":"m 87 1058 q 139 1163 102 1124 q 224 1202 176 1202 q 279 1193 251 1202 q 340 1167 308 1185 q 392 1145 364 1154 q 441 1137 419 1137 q 475 1155 458 1137 q 501 1203 491 1173 l 542 1203 q 498 1101 538 1143 q 406 1059 459 1059 q 357 1068 385 1059 q 290 1097 328 1078 q 240 1118 264 1110 q 203 1126 216 1126 q 155 1106 178 1126 q 128 1058 134 1086 l 87 1058 z "},"":{"ha":463,"x_min":109,"x_max":525,"o":"m 178 1176 q 227 1156 206 1176 q 247 1107 247 1135 q 227 1059 247 1079 q 178 1038 206 1038 q 129 1059 149 1038 q 109 1107 109 1079 q 129 1156 109 1135 q 178 1176 149 1176 m 456 1176 q 505 1156 484 1176 q 525 1107 525 1135 q 505 1059 525 1079 q 456 1038 484 1038 q 407 1059 427 1038 q 387 1107 387 1079 q 407 1156 387 1135 q 456 1176 427 1176 z "},"":{"ha":463,"x_min":78,"x_max":488,"o":"m 365 1234 l 488 1000 l 439 1000 l 323 1144 l 323 1144 l 133 1000 l 78 1000 l 297 1234 l 331 1234 l 365 1234 z "},"":{"ha":463,"x_min":119,"x_max":429,"o":"m 383 1012 l 383 1012 l 149 1155 l 142 1160 q 120 1194 123 1175 l 119 1200 q 132 1228 119 1216 q 166 1245 146 1244 q 205 1231 186 1246 l 212 1225 l 429 1012 l 429 1012 l 383 1012 z "},"":{"ha":463,"x_min":170,"x_max":481,"o":"m 170 1012 l 170 1012 l 388 1226 l 395 1232 q 434 1246 414 1247 q 469 1230 454 1246 q 481 1201 480 1217 l 480 1196 q 458 1162 477 1177 l 450 1157 l 216 1012 l 216 1012 l 170 1012 z "},"":{"ha":733,"x_min":-225,"x_max":695,"o":"m 245 532 l 245 532 l 201 318 l 149 58 q 19 -254 113 -127 q -178 -381 -76 -381 q -201 -378 -189 -381 q -225 -372 -214 -376 q -203 -317 -212 -340 q -187 -263 -196 -295 l -169 -258 q -139 -286 -158 -276 q -94 -296 -119 -296 q -12 -226 -50 -296 q 52 -26 26 -156 l 76 108 l 149 532 l 149 532 l 39 532 l 45 562 l 161 606 l 161 606 l 187 753 q 299 923 201 827 q 460 1018 398 1018 q 490 1013 476 1018 q 519 998 504 1008 q 503 941 508 965 q 494 884 498 917 l 476 878 q 448 919 466 903 q 412 935 429 935 q 345 903 372 935 q 306 810 317 870 l 260 605 l 260 605 l 323 602 q 420 603 393 599 q 505 629 448 607 l 496 609 l 377 532 l 282 532 l 245 532 m 423 139 l 490 439 q 509 552 510 526 q 486 577 509 577 q 450 566 478 577 q 374 532 422 555 l 369 561 q 526 642 466 613 q 600 670 586 670 q 626 637 623 670 q 613 540 629 605 l 566 339 l 534 189 q 523 103 521 127 q 544 79 525 79 q 584 95 555 79 q 659 145 612 112 l 671 119 q 533 22 589 56 q 453 -12 476 -12 q 414 26 421 -12 q 423 139 406 63 m 647 988 q 688 966 673 988 q 695 913 702 944 q 664 861 688 883 q 614 839 640 839 q 573 861 587 839 q 566 913 559 883 q 597 966 573 944 q 647 988 621 988 z "},"":{"ha":757,"x_min":-225,"x_max":722,"o":"m 249 532 l 249 532 l 204 318 l 152 58 q 21 -254 117 -127 q -177 -381 -75 -381 q -205 -378 -192 -381 q -225 -372 -218 -376 q -203 -317 -211 -340 q -187 -263 -195 -294 l -169 -258 q -138 -286 -158 -276 q -93 -296 -119 -296 q -8 -226 -47 -296 q 54 -26 30 -156 l 79 108 l 152 532 l 152 532 l 36 532 l 42 562 l 164 606 l 164 606 l 190 753 q 309 923 203 827 q 481 1018 414 1018 q 503 1015 492 1018 q 531 1005 514 1012 q 516 942 521 968 q 506 878 511 916 l 492 878 q 465 916 485 903 q 415 930 445 930 q 347 899 375 930 q 309 810 319 867 l 265 607 l 265 607 l 296 607 q 365 610 336 607 q 412 620 393 613 l 418 610 l 395 532 l 320 532 l 249 532 m 447 139 l 492 342 q 587 825 535 553 q 592 913 602 896 q 532 930 583 930 l 479 930 l 486 957 q 593 977 548 966 q 702 1015 640 990 l 722 997 q 616 512 659 718 l 551 186 q 542 102 539 126 q 564 79 545 79 q 604 95 576 79 q 677 145 632 112 l 690 119 q 556 22 612 56 q 478 -12 502 -12 q 437 26 446 -12 q 447 139 430 63 z "},"ﬁ":{"ha":733,"x_min":-225,"x_max":695,"o":"m 245 532 l 245 532 l 201 318 l 149 58 q 19 -254 113 -127 q -178 -381 -76 -381 q -201 -378 -189 -381 q -225 -372 -214 -376 q -203 -317 -212 -340 q -187 -263 -196 -295 l -169 -258 q -139 -286 -158 -276 q -94 -296 -119 -296 q -12 -226 -50 -296 q 52 -26 26 -156 l 76 108 l 149 532 l 149 532 l 39 532 l 45 562 l 161 606 l 161 606 l 187 753 q 299 923 201 827 q 460 1018 398 1018 q 490 1013 476 1018 q 519 998 504 1008 q 503 941 508 965 q 494 884 498 917 l 476 878 q 448 919 466 903 q 412 935 429 935 q 345 903 372 935 q 306 810 317 870 l 260 605 l 260 605 l 323 602 q 420 603 393 599 q 505 629 448 607 l 496 609 l 377 532 l 282 532 l 245 532 m 423 139 l 490 439 q 509 552 510 526 q 486 577 509 577 q 450 566 478 577 q 374 532 422 555 l 369 561 q 526 642 466 613 q 600 670 586 670 q 626 637 623 670 q 613 540 629 605 l 566 339 l 534 189 q 523 103 521 127 q 544 79 525 79 q 584 95 555 79 q 659 145 612 112 l 671 119 q 533 22 589 56 q 453 -12 476 -12 q 414 26 421 -12 q 423 139 406 63 m 647 988 q 688 966 673 988 q 695 913 702 944 q 664 861 688 883 q 614 839 640 839 q 573 861 587 839 q 566 913 559 883 q 597 966 573 944 q 647 988 621 988 z "}}}
